<svg id="Layer_1" data-name="Layer 1" xmlns="http://www.w3.org/2000/svg" viewBox="0 0 200 200"><defs><style>.cls-1{fill:#e7eadf;}.cls-2{fill:#4d4d4d;}</style></defs><title>Artboard 1</title><path class="cls-1" d="M174,159.46a2.88,2.88,0,0,1,1.21-2.68l-.62-1.22s.34.39.94,1a12.23,12.23,0,0,1,2.41-1.06l-4.63-1.79a30.48,30.48,0,0,0,8-.33,13.89,13.89,0,0,0,2.47-5.84,7,7,0,0,0-2.28-7.14c-1.37-1.07-2.71-1.14-4.26-1.74s-2.33-2.28-4-2.68a11.63,11.63,0,0,0-4.31.29c-.23.39-.48.77-.74,1.12l-8,2a31.38,31.38,0,0,0,3.83-2.49,15.56,15.56,0,0,1-1.79.05l-1.93-1.44-5.73,0a29.4,29.4,0,0,0,3.81-1.3c-2.5-.89-5-1.93-7.38-3.07-2.84-2.32-6.11-3.81-9.22-5.68a87.94,87.94,0,0,1-9.39-6.68c-6.12-4.88-12.58-9.19-18.48-14.41-2.71-2.39-5.78-4.27-8.46-6.68S99.91,93.23,97.06,91a103.53,103.53,0,0,1-9.24-8.38c-.9-.89-1.82-1.76-2.75-2.62l-.81,1.85s.2-.85.42-2.21c-1.76-1.64-3.54-3.26-5.25-5l0,0L75.52,78.2a34.88,34.88,0,0,0,2.66-4.72c-4.86-4.72-9.92-9.22-14.3-14.44-2.69-4-5.21-8.18-7.73-12.34A12.45,12.45,0,0,0,47,40.39c-3.81-.44-7.14,1.2-10.47,3a2.65,2.65,0,0,0-1.62,2.35,2.66,2.66,0,0,0,.58,1.23,5.9,5.9,0,0,1,1.1,2.55,13.46,13.46,0,0,0,5.06,2,32.44,32.44,0,0,1-5.13-.74,4.31,4.31,0,0,1-.65,1.42.05.05,0,0,0,.08.07,5.58,5.58,0,0,0,.39-.41,13.16,13.16,0,0,1-1.06,1.42,12.73,12.73,0,0,0,2.34,0s-1.09.25-2.71.45a9.13,9.13,0,0,1-2.43,1.87c-2.12,1.09-4.79-.46-7-.71a6.83,6.83,0,0,0-3.55.33c-4.69,1.92-8,9.62-5.87,14.37,1.76,4,7.17,8.83,11.6,6.79a13.75,13.75,0,0,0,2.89-1.89l-1.43-1.62s.82.62,2.16,1.45c0-.11-.09-.21-.14-.32a27.68,27.68,0,0,1,4.54-3.51,12.21,12.21,0,0,0,1.42-.95L36,65.61a29.6,29.6,0,0,0,2.12,3.16A4.91,4.91,0,0,1,41,67.67c1.75,0,3.28,1.33,4.69,2.36,0,.22,0,.44,0,.67a4.56,4.56,0,0,0,.47,1.81,4,4,0,0,0,2.09,2.31c1.21.5,3,.15,4.23,0a8,8,0,0,1,2.68-.06,16.94,16.94,0,0,0,.21-7,37.24,37.24,0,0,1,1.43,7.74c.58.37,1.13.79,1.67,1.15a.63.63,0,0,0,.78,0c.22.17.43.35.64.53A18.07,18.07,0,0,0,58.36,71a34.46,34.46,0,0,1,3.49,7.77c1,.93,2.08,1.86,3.15,2.69,2.7,2.08,5.55,3.79,8.34,5.69,0,0,0,0,0,.05a.09.09,0,0,0,.16.06l.94.64a22.09,22.09,0,0,1,1.84,1.45,4.05,4.05,0,0,0,.14.48c0,.1.2,0,.17-.07s0-.11,0-.16c2.25,2,4.16,4.38,6.43,6.43,2.93,2.65,6.42,4.47,9.34,7.16,2.7,2.48,5.47,4.79,8.32,7.08,3.11,2.5,6,5.33,9,8,1.49,1.29,3,2.56,4.46,3.8a14.44,14.44,0,0,0-.26-3.28,36.61,36.61,0,0,1,.92,3.81q1.52,1.24,3.08,2.44a14.9,14.9,0,0,0-1.08-3,34.6,34.6,0,0,1,1.95,3.69l.14.11c3.27,2.42,6.11,5.38,9.15,8.1,1.71,1.53,3.62,2.81,5.3,4.38,1.42,1.33,2.57,3,3.89,4.39,2.68,2.93,5.68,5.52,8.47,8.34,1.07,1.35,2.27,2.59,3.25,4l.09.15,0,0c-.07.12,0,.2.06.15A8.83,8.83,0,0,0,150.1,157v0c0,.1.19.16.26.16.23.3.56.62.8.92a6.71,6.71,0,0,1,.85,1.35c-.05.19-.11.39-.18.58s.18.23.24.07.07-.21.1-.32a19.23,19.23,0,0,1,.85,2.94l.12.52c0,.2,0,.4,0,.6a.11.11,0,0,0,.2.09,7.79,7.79,0,0,0,2.16,4.23c1.8,1.47,4.56,2.17,6.65,3.09a.63.63,0,0,0,.5,0,13.27,13.27,0,0,0,2.49.67,7.09,7.09,0,0,0,3.85-.29c2.05-.82,3-2.92,3.67-5L169.16,164a34.78,34.78,0,0,0,3.83,1.44c.12-.38.24-.76.37-1.12a11.68,11.68,0,0,0,.69-3.18l-4.44-3.32A35.7,35.7,0,0,0,174,159.46Z"/><path class="cls-2" d="M174,159.42a2.19,2.19,0,0,1,0-.74,2.83,2.83,0,0,1,.21-.75,3.12,3.12,0,0,1,1-1.21l0,.09-.63-1.21-.25-.48.38.4.94,1h-.11a12.33,12.33,0,0,1,2.42-1.09v.19l-4.64-1.76-.89-.34,1,.08a30.64,30.64,0,0,0,7.95-.38l-.11.06a14.22,14.22,0,0,0,2.49-6.38,6.77,6.77,0,0,0-2.14-6.14,7.31,7.31,0,0,0-3.07-1.42,9.92,9.92,0,0,1-1.7-.61,7,7,0,0,1-1.45-1.1,8,8,0,0,0-1.32-1.06,3.39,3.39,0,0,0-1.56-.43,18,18,0,0,0-3.43.41l.2-.14-.75,1.15-.05.08-.11,0-8,2-2.31.58,2.09-1.15a32.52,32.52,0,0,0,3.78-2.47l.22.57-1.83.06h-.09l-.09-.07-1.93-1.44.2.07-5.73,0H152l2.5-.67a30.56,30.56,0,0,0,3.75-1.3l0,.66c-2.53-.89-5-1.93-7.42-3.06l0,0,0,0c-2.66-2.17-5.82-3.65-8.84-5.43a81.65,81.65,0,0,1-8.63-6c-5.43-4.36-11.17-8.29-16.58-12.73-1.35-1.09-2.67-2.28-4-3.39s-2.73-2.12-4.13-3.16a51.92,51.92,0,0,1-4.06-3.33c-1.3-1.14-2.67-2.21-4-3.26S97.73,92,96.36,90.94s-2.69-2.24-4-3.43c-2.57-2.37-5-4.87-7.53-7.25l.52-.11L84.56,82l-1.14,2.6L84,81.8l.42-2.19.1.28-5.26-5h.41l-3.9,3.5L74,79.95,75.29,78a35.91,35.91,0,0,0,2.64-4.67l.06.31c-4.84-4.72-9.91-9.27-14.27-14.49h0l-5.86-9.41-1.47-2.35a21,21,0,0,0-1.54-2.27,12.78,12.78,0,0,0-4.18-3.47,10.74,10.74,0,0,0-5.28-1.16,14.77,14.77,0,0,0-5.29,1.32c-.84.36-1.67.77-2.49,1.19a5.42,5.42,0,0,0-2.16,1.53,1.81,1.81,0,0,0-.33,1.19,2.63,2.63,0,0,0,.56,1.15,6.09,6.09,0,0,1,1.12,2.6l-.09-.14a13.27,13.27,0,0,0,5,2l0,.41A33.21,33.21,0,0,1,36.48,51l.26-.16A4.33,4.33,0,0,1,36.29,52l-.16.26-.07.1a.16.16,0,0,0-.24-.21l.35-.38.35.26-1.08,1.45-.15-.37a12.51,12.51,0,0,0,2.3,0l.08.45-2.73.46.14-.07a9.39,9.39,0,0,1-2.47,1.91,4.82,4.82,0,0,1-3.15.29c-1-.19-2-.53-3-.76a9.41,9.41,0,0,0-3-.25,5.73,5.73,0,0,0-2.71,1,9.16,9.16,0,0,0-2.17,2,13.84,13.84,0,0,0-2.62,5.34,9.66,9.66,0,0,0,.24,5.83A13.61,13.61,0,0,0,19.85,74a9.36,9.36,0,0,0,5.24,2.48c1.95.15,3.69-1,5.23-2.29l0,.52-1.43-1.62L27,71l2.39,1.59L31.48,74l-.55.47-.13-.29-.12-.28.21-.18c.94-.8,1.85-1.66,2.86-2.42a14,14,0,0,1,1.59-1.06c.53-.33,1-.67,1.51-1l-.15.43-1.12-3.9-.91-3.18,1.67,2.87a30.68,30.68,0,0,0,2.1,3.1l-.58-.09a6.75,6.75,0,0,1,2-1,4.12,4.12,0,0,1,2.34,0A13.2,13.2,0,0,1,46,69.66l.17.12V70a8.43,8.43,0,0,0,.09,1.21,3.78,3.78,0,0,0,.35,1.08v.06A3.67,3.67,0,0,0,48,74.13a3.43,3.43,0,0,0,2.16.49c.8,0,1.64-.16,2.5-.24a7.69,7.69,0,0,1,2.68,0l-.55.34A16.48,16.48,0,0,0,55,67.9l.89-.23a37.46,37.46,0,0,1,.94,3.88,34.35,34.35,0,0,1,.52,4l-.21-.36,1.19.81.3.2.24.16c.08,0,.1,0,.18,0l.32-.22.26.21.65.54-.76.4a17.66,17.66,0,0,0-1.56-6l.81-.46a35.31,35.31,0,0,1,2,3.83,31,31,0,0,1,1.53,4.06l-.14-.22,2.69,2.29c.89.77,1.87,1.43,2.83,2.11,1.94,1.34,4,2.6,5.93,3.93l.21.37s0,.1,0,0a.39.39,0,0,0-.15-.24.38.38,0,0,0-.54.09l.65-.11c.48.33,1,.65,1.43,1l1.4,1.1.1.08.05.17.12.4v0a.38.38,0,0,0-.07-.11.41.41,0,0,0-.28-.15.36.36,0,0,0-.35.18.39.39,0,0,0-.05.25c0,.06,0,.06,0,0v0l0-.12-.33-1.48,1.11,1c3.12,2.83,5.6,6.15,9,8.48,1.65,1.21,3.39,2.35,5,3.64.83.63,1.61,1.37,2.4,2l2.36,2,4.71,4c1.6,1.32,3.2,2.67,4.72,4.07s3,2.8,4.6,4.15l4.71,4-.82.37a14,14,0,0,0-.25-3.16l1-.25a38.43,38.43,0,0,1,.92,3.87l-.17-.29,3.06,2.43-.75.49a14.47,14.47,0,0,0-1-2.93l.81-.45a36.24,36.24,0,0,1,2,3.75l-.14-.17a77.76,77.76,0,0,1,7,6.13c1.13,1.05,2.23,2.12,3.41,3.08s2.43,1.89,3.6,2.93a27.32,27.32,0,0,1,3.18,3.44c1,1.19,2,2.31,3.09,3.4,2.16,2.18,4.46,4.25,6.63,6.46h0c1.09,1.38,2.34,2.68,3.34,4.2l.17.25-.16.1c-.06,0,0,0,0,0a.27.27,0,0,0-.17-.27c-.14,0-.18,0-.19,0l.4.1a8.83,8.83,0,0,0,1,1.6l.09.08v.18c0,.09,0-.13,0-.14l0,0s.06,0,0,0l.27.12c.3.36.61.69.91,1.07a7,7,0,0,1,.76,1.26l.05.11,0,.1-.1.33-.05.17s0,.17,0,0a.17.17,0,0,0-.34-.05l.1-.3.25-.78.31.75a24.51,24.51,0,0,1,1,3.5v.08l0,.44v.15a.16.16,0,0,0,0-.07.17.17,0,0,0-.27-.06l.47.14a11.14,11.14,0,0,0,1.07,2.9,5.3,5.3,0,0,0,2.21,2,21.52,21.52,0,0,0,2.87,1.27l1.49.57.74.3c.29.12.4.19.57.12l.09,0,.1,0a13,13,0,0,0,3.06.75,6.65,6.65,0,0,0,3.07-.35,4.77,4.77,0,0,0,2.3-2,13.41,13.41,0,0,0,1.29-2.9l.06.21-3.44-2.61-1.15-.87,1.31.6a36.27,36.27,0,0,0,3.8,1.45l-.17.09c.23-.71.49-1.41.69-2.11a10.34,10.34,0,0,0,.39-2.16l0,.09-4.42-3.35-.57-.43.64.3c.71.33,1.44.62,2.17.89l1.11.39C173.29,159.18,173.65,159.28,174,159.42Zm.06.08a12.14,12.14,0,0,1-1.17-.34l-1.11-.38c-.74-.27-1.47-.55-2.19-.87l.08-.13,4.46,3.3,0,0v.06a10.57,10.57,0,0,1-.37,2.21c-.2.72-.45,1.42-.67,2.13l0,.13-.13,0a36.51,36.51,0,0,1-3.85-1.42l.16-.27,3.47,2.57.11.08,0,.13a13.78,13.78,0,0,1-1.3,3,5.2,5.2,0,0,1-2.48,2.19,7,7,0,0,1-3.28.4,13.41,13.41,0,0,1-3.2-.77h.18a.88.88,0,0,1-.54,0,3.83,3.83,0,0,1-.41-.16l-.73-.29-1.49-.56a22,22,0,0,1-2.94-1.29,8.81,8.81,0,0,1-1.36-.91,5,5,0,0,1-1.07-1.29,11.66,11.66,0,0,1-1.14-3l.47.14a.4.4,0,0,1-.64-.12.42.42,0,0,1,0-.17v-.18l0-.44v.08a24.14,24.14,0,0,0-1-3.41l.56,0-.1.33a.43.43,0,0,1-.82-.07.77.77,0,0,1,.05-.3l0-.15.09-.3,0,.21a6.43,6.43,0,0,0-.7-1.14c-.28-.35-.62-.71-.92-1.07l.27.12a.67.67,0,0,1-.34-.08.5.5,0,0,1-.18-.15c-.09-.06-.08-.35-.07-.31l.09.26a3.71,3.71,0,0,1-.64-.86,8.89,8.89,0,0,0-.47-.82l.4.1a.4.4,0,0,1-.33,0,.38.38,0,0,1-.22-.39c0-.16.09-.25.12-.26v.35c-1-1.46-2.21-2.73-3.34-4.14l0,0c-2.17-2.18-4.48-4.23-6.67-6.42-1.09-1.09-2.17-2.23-3.16-3.43a26.57,26.57,0,0,0-3.12-3.33c-1.15-1-2.39-1.91-3.6-2.89s-2.34-2.05-3.47-3.1a77,77,0,0,0-7-6l-.09-.07-.05-.11a35.44,35.44,0,0,0-1.93-3.63l.81-.45a15.4,15.4,0,0,1,1.12,3.11l.34,1.34-1.09-.85-3.1-2.44-.13-.11,0-.18a37.57,37.57,0,0,0-.92-3.75l1-.25a14.84,14.84,0,0,1,.27,3.39l0,1-.79-.67-4.73-4c-1.57-1.37-3.08-2.78-4.61-4.17s-3.08-2.72-4.68-4l-4.74-4-2.37-2c-.81-.67-1.52-1.36-2.34-2-1.61-1.26-3.34-2.39-5-3.62a33.74,33.74,0,0,1-4.71-4.15c-1.45-1.5-2.82-3-4.34-4.39l.78-.46,0,.1,0,.12a.57.57,0,0,1-.08.36.58.58,0,0,1-.55.28.56.56,0,0,1-.38-.2A.57.57,0,0,1,76,90v0l-.15-.5.15.25L74.64,88.7c-.43-.36-.92-.68-1.39-1l.65-.11a.57.57,0,0,1-1-.23.54.54,0,0,1,0-.14l.21.37c-2-1.33-4-2.59-5.93-3.94-1-.69-2-1.36-2.88-2.14l-2.73-2.33-.1-.08,0-.14A30.07,30.07,0,0,0,59.93,75a34.49,34.49,0,0,0-2-3.72l.81-.46a18.56,18.56,0,0,1,1.65,6.31l.11,1.12-.87-.72L59,77h.58a1.09,1.09,0,0,1-1.16.17A2.5,2.5,0,0,1,58.1,77l-.3-.2-1.18-.81-.2-.13,0-.22a33.44,33.44,0,0,0-.5-3.85A36.65,36.65,0,0,0,55,68l.89-.23a17.38,17.38,0,0,1-.21,7.16l-.1.46-.45-.11a7,7,0,0,0-2.37.06c-.83.07-1.67.22-2.56.24a4.33,4.33,0,0,1-2.7-.65,4.56,4.56,0,0,1-1.68-2.21l0,.06a4.68,4.68,0,0,1-.44-1.34A9.22,9.22,0,0,1,45.28,70l.18.35A12.58,12.58,0,0,0,42,68.27a3.24,3.24,0,0,0-1.86,0,5.93,5.93,0,0,0-1.76.9l-.34.23L37.79,69a31.4,31.4,0,0,1-2.15-3.22l.76-.31,1.09,3.91.08.28-.23.15c-.53.35-1.07.73-1.6,1a13.2,13.2,0,0,0-1.51,1c-1,.73-1.89,1.57-2.84,2.38l.09-.46.15.34.51,1.18-1.05-.71L28.9,73.14l.5-.54,1.42,1.62.25.29-.29.24a15,15,0,0,1-2.6,1.74,6.11,6.11,0,0,1-3.13.67,10,10,0,0,1-5.62-2.68,14.22,14.22,0,0,1-3.71-5,10.24,10.24,0,0,1-.23-6.2,14.42,14.42,0,0,1,2.76-5.54,9.69,9.69,0,0,1,2.3-2.11,6.26,6.26,0,0,1,3-1.1,9.9,9.9,0,0,1,3.12.27c1,.25,2,.58,2.95.77a4.35,4.35,0,0,0,2.83-.24,8.92,8.92,0,0,0,2.35-1.81l.05-.06h.09L37.57,53l.08.45a13,13,0,0,1-2.38,0l-.41,0,.26-.34,1-1.4.35.26c-.15.15-.25.27-.43.45a.27.27,0,0,1-.4-.34l.09-.14.14-.23a3.9,3.9,0,0,0,.41-1l.05-.21.21,0a32.83,32.83,0,0,0,5.09.75l0,.41a13.66,13.66,0,0,1-5.13-2.08l-.08,0v-.09a5.73,5.73,0,0,0-1-2.44,2.94,2.94,0,0,1-.62-1.32,2.17,2.17,0,0,1,.4-1.43,5.72,5.72,0,0,1,2.3-1.64c.82-.42,1.66-.83,2.51-1.19a15.09,15.09,0,0,1,5.41-1.32,11.33,11.33,0,0,1,5.43,1.2,13.1,13.1,0,0,1,4.3,3.53,21.41,21.41,0,0,1,1.58,2.3l1.48,2.34,5.91,9.37v0c4.36,5.17,9.44,9.67,14.32,14.38l.14.13-.08.17a36.4,36.4,0,0,1-2.67,4.77L75.33,78l3.88-3.52.2-.18.2.19,5.28,5,.13.12,0,.16-.41,2.23-.61-.2.8-1.85.18-.42.34.31c2.56,2.38,5,4.86,7.56,7.21,1.28,1.17,2.59,2.3,4,3.37s2.77,2.09,4.16,3.15,2.78,2.12,4.1,3.27a51.08,51.08,0,0,0,4,3.27c1.39,1,2.82,2.05,4.18,3.17s2.63,2.28,4,3.37c5.4,4.36,11.15,8.32,16.56,12.72a80.85,80.85,0,0,0,8.51,6c3,1.76,6.17,3.27,8.91,5.53l-.08,0c2.4,1.14,4.84,2.18,7.33,3.07l.87.31-.85.35a31.15,31.15,0,0,1-3.86,1.31l-.08-.68,5.73,0h.11l.09.06,1.93,1.45-.18-.06,1.76,0,1,0-.81.6a33.06,33.06,0,0,1-3.88,2.51l-.22-.57,8-2-.16.11.73-1.1.08-.12.13,0a18.22,18.22,0,0,1,3.54-.4,3.94,3.94,0,0,1,1.8.51,8.45,8.45,0,0,1,1.41,1.14,6.53,6.53,0,0,0,1.34,1,9.57,9.57,0,0,0,1.6.58,7.81,7.81,0,0,1,3.24,1.53,7.19,7.19,0,0,1,2.27,6.59,14.58,14.58,0,0,1-2.66,6.55l0,.05h-.07a30.93,30.93,0,0,1-8,.28l.06-.26L178,155.4l.26.1-.26.09a12.17,12.17,0,0,0-2.39,1l-.06,0,0-.05-.93-1,.13-.09.61,1.22,0,.05,0,0a3,3,0,0,0-1,1.14,2.72,2.72,0,0,0-.21.72A7.45,7.45,0,0,0,174,159.5Z"/></svg>