<svg id="Layer_1" data-name="Layer 1" xmlns="http://www.w3.org/2000/svg" xmlns:xlink="http://www.w3.org/1999/xlink" viewBox="0 0 200 200"><defs><style>.cls-1{fill:none;}.cls-2{clip-path:url(#clip-path);}.cls-3{fill:#f59daf;}.cls-4{fill:#c66785;}.cls-5{fill:#dcddde;}.cls-6{fill:#ab5974;}.cls-7{fill:#d98a98;}.cls-8{fill:#f8b7c9;}.cls-9{fill:#cb82ae;}.cls-10{fill:#b2727e;}.cls-11{fill:#8d4a61;}.cls-12{fill:#cb7629;}.cls-13{fill:#e48b25;}.cls-14{fill:#f9a220;}.cls-15{fill:#f8bb26;}.cls-16{fill:#ce6228;}.cls-17{fill:#e17126;}.cls-18{fill:#e18226;}</style><clipPath id="clip-path"><rect class="cls-1" x="-33" y="17" width="269" height="208"/></clipPath></defs><title>brain</title><g class="cls-2"><path class="cls-3" d="M185.71,119a5.77,5.77,0,0,1,1.13,5.34,6.31,6.31,0,0,1-1.38,2.59c2.25,2.71,1.16,8-.89,10.26-2.54,2.74-7.92,3.93-10.74,1.19.78.75-3.07,3.76-3.61,3.9a3.76,3.76,0,0,1-2.87-.66l-.49-.25a.93.93,0,0,0-.62.24c-1.78,1.17-3.39,2.76-5.57,2.65a13.51,13.51,0,0,1-6.06-2.19l-.05,0a2.25,2.25,0,0,0-1.21-.39c-.64,0-1.11.61-1.66,1a4.75,4.75,0,0,1-3.71.28c-.42-.09-.82-.2-1.24-.33a21.49,21.49,0,0,1-2.38-.88c-.4-.17-.79-.36-1.16-.56-1.26-.64-2-1.69-3.12-2.43-2.3,2.62-4.7,4.7-8.16,5-4.78.41-7.1-3.24-11.15-5.14-3-1.39-6.12-.72-9.2-.05-2.81.61-5.62,1.21-8.39.27A7.74,7.74,0,0,1,98,133.18a16.21,16.21,0,0,1-10.22,5.08A13.81,13.81,0,0,1,77.64,135c-6.24,3.57-13.48.64-17.54-4.89-11.37,1.21-12.3-6-10.34-8.52-.52.2-1,.38-1.49.53a12.31,12.31,0,0,1-8.71-.38c-.55-.22-1.09-.47-1.56-.69a8.27,8.27,0,0,0-2.52-.89,30.17,30.17,0,0,0-3.61,0c-4.06.17-9.13.35-10.45-3.2a17.91,17.91,0,0,0-.64-2.32,3.55,3.55,0,0,0-1.18-1.17l-.05,0c-.4-.25-.84-.5-1.22-.78a5.48,5.48,0,0,1-2-5.92,1.2,1.2,0,0,0,.1-.75,1.22,1.22,0,0,0-.6-.53,13.45,13.45,0,0,1-3.39-2.52,7.42,7.42,0,0,1-.72-.88,6.53,6.53,0,0,1-1.19-4.2A8.83,8.83,0,0,1,12,93.48c.22-.31,3.29-3.49,3.51-3.13-4.18-7,.37-17.14,10-20.31a31,31,0,0,0,3.41-.74c.59-.3,6-8.41,15.76-6.41,2.48-5.45,13.41-12.22,24.81-10.28,6.88-9.15,22-10.59,31.1-3.56,8.26-4.56,20.28-2.1,24.74,5.17a24.71,24.71,0,0,1,19,4.59c5.69-1.69,12.37-.55,16.77,3.37,3.24,2.9,3.68,6.5,3.36,10.09,6.3-.24,12.37,4.4,12.69,10,6,1,9.9,5.39,10.37,10a9,9,0,0,1-1.61,6.25c-.17.23-.34.47-.52.69l-.3.36.1.06a12.48,12.48,0,0,1,2.64,2l.4.41a11.1,11.1,0,0,1,2.32,3.64l.19.5a10.6,10.6,0,0,1-5,12.9"/><path class="cls-4" d="M121.75,115.23l.58-.17c2.56-3.1,7.08-3,10.28-.8a4.9,4.9,0,0,0-3.45-2.93,8.2,8.2,0,0,0-4.7.35,7.31,7.31,0,0,0-3.28,2.12c-7.05-5.25-18.22-2-23.15,4.73a14.06,14.06,0,0,0-3.42-.62c-1.87-.71-3.93-.76-5.8-1.69a17.74,17.74,0,0,1-5.61-4.52c-.18-.21-.59,0-.48.29a12.27,12.27,0,0,0,7.19,6.7c-4.89,2-7.16,7.7-5.83,11a.31.31,0,0,0,.6,0c.87-2.8,1.15-5.18,3.37-7.36a8.66,8.66,0,0,1,9.8-1.59,1.11,1.11,0,0,0,1.48-.35c5.22-7.42,14.38-8.6,22.43-5.14"/><path class="cls-4" d="M156,96.08a9.06,9.06,0,0,0-8,2.06,6.9,6.9,0,0,1-2.66-3.58,11.78,11.78,0,0,1,.5-6.65c-2.82,1.79-3.33,4.43-2.39,7.28a7.31,7.31,0,0,0,3.37,4.12,10.53,10.53,0,0,0-2.6,7c-3.22-.6-6.52-.24-8.82,2.27a7.7,7.7,0,0,0-.92,9.55.51.51,0,0,0,.92-.36c-.27-2.65-.29-5.27,1.54-7.45a7.51,7.51,0,0,1,7.79-2.44.76.76,0,0,0,1.08-.71,10.62,10.62,0,0,1,2.58-7.54c1.66-2,5-2.77,7.63-3.1a.22.22,0,0,0,0-.44"/><path class="cls-4" d="M143.48,65.85l-.08-.48s0,.17,0,.49c0,.16,0,.35,0,.59s-.08.49-.12.79a11.06,11.06,0,0,1-2,4.59c-4.67,6.36-10.68,5.87-16.66,5.37-3.41-.28-6.8-.56-9.93.42-5.05,1.52-9.77,4.32-10.39,11.08,2.35-5.91,7.91-10.07,15.67-9.86,3.55.11,7.29.89,11,.55,7.57-.62,13.58-7,12.6-13.54"/><path class="cls-4" d="M157.91,98.8a.37.37,0,0,0-.61.35c1.49,4,2.41,8,.54,12-1.77,3.76-5.48,6.46-9.33,7.87a.25.25,0,0,0,.1.48,11.62,11.62,0,0,0,2.41-.35,13.23,13.23,0,0,0,0,12.71c.1.2.43,0,.35-.17-2.88-7.65,2.58-12.25,3.85-14.44,5.8-4,8.77-12.68,2.71-18.41"/><path class="cls-4" d="M136.12,129.53c-3.22.15-6.25.46-9-1.63-2.34-1.77-3.23-4.24-4.56-6.76h-.08a6.64,6.64,0,0,0-.15,3.35c-2.76.78-7.88,4.47-15.25-.16a.32.32,0,0,0-.41.47,11.69,11.69,0,0,0,8.94,3.82c2.41,0,5.54-.59,7.29-2.51,2.31,4.68,9.28,7.48,13.6,4.46a.58.58,0,0,0-.38-1"/><path class="cls-4" d="M133.44,98.09v-.45c-3.43-3.4-4.33-9.07,1.13-11.37.38-.16.15-.66-.25-.55-3.22.88-5.46,2.87-5.75,6.06a5.93,5.93,0,0,0,3.12,5.83c-3.31,1-4.79,6.43-3.08,8.9a.53.53,0,0,0,.94-.38c-.21-1.75-.41-3.34.48-5,.79-1.44,2.31-2,3.41-3.08"/><path class="cls-4" d="M92.87,73.29a10.1,10.1,0,0,0-4.93,9.42c-2.89-2.11-8.29-.93-11,1.36-9.89-5.89-24.08-2.55-29.63,7.56a16.57,16.57,0,0,0-12.5.71c-4.13-.66-7.68-3.41-8.37-7.26-.06-.31-.65-.29-.66.06a7.73,7.73,0,0,0,3.58,7.11,8.65,8.65,0,0,0,3.39,1.25c-6.68,4.48-5.09,11.23-4.43,9.37C29.68,99.3,31.17,96.13,35,94a13.3,13.3,0,0,1,12.41-.12,1.2,1.2,0,0,0,1.45-.57c4.87-9.76,18.27-13.8,27.6-7.49a1.07,1.07,0,0,0,1.37-.06c4.58-4.72,9.91-.63,10.7-.47a10.46,10.46,0,0,0,.4,1c-5.28,1.87-7.68,8.07-3.81,12.11a.83.83,0,0,0,1.3-1c-2.35-4-.8-8.47,4.59-9.34a1.14,1.14,0,0,0,.79-1.68C89,82.53,89.71,77.36,93.3,73.8a.33.33,0,0,0-.43-.51"/><path class="cls-4" d="M95.09,53.06c-.56,2.65-1.32,5.1-3.74,7.07-2.63,2.14-5.77,2.1-6.82,2.2-7.36-3.61-16.28.62-17.58,7.89-8.46-4.87-20.48-1.08-23.77,4.43C38.29,69,25.66,73.16,24.4,80.5c0,.26.38.4.55.15,5.66-8.2,11.73-6.84,15.39-5.49,1.7.63,2.88,1.26,3.26.93,3.36-2.68,6.47-5,11-5.85a16.77,16.77,0,0,1,12.49,2.42c.67.47,1.81,0,1.77-.77-.25-5.44,5.09-7.31,10.68-7.7a8.4,8.4,0,0,1,1.83,0,8.22,8.22,0,0,1,2.13.72c2.53,1.13,5.12,2.36,6.73,4.37a4.47,4.47,0,0,0-1.4-3.69,2.92,2.92,0,0,1-1-1.18c-.41-1.55,4-3.25,5.07-4.35,1.91-2,3.17-4.49,2.65-7,0-.21-.47-.22-.52,0"/><path class="cls-4" d="M183.11,117.81a1.08,1.08,0,0,0-.07,1.9,3.53,3.53,0,0,1,1.49,4.54,4,4,0,0,1-.9,1.41.31.31,0,0,0-.37.36,6,6,0,0,1-3.19,1.21,15.07,15.07,0,0,1-7.5-1.55c-1-1.61-2.65-2.9-3.73-4.47a37,37,0,0,1-3-6.27c-.12-.27-.56-.33-.62,0-.62,3,.81,6.39,2.72,8.88-5.79-1.88-13.71.16-11.41,7.82.27-2.3,1.19-4.75,3.22-5.86,3.71-2,7.68-.33,11.68,1.37,3.27,1.39,6.58,2.79,9.79,2.14a8.26,8.26,0,0,0,2.89-1.18,8.1,8.1,0,0,1,.64,1.85,7.55,7.55,0,0,1-1.24,5.47c-2.43,3.32-6.08,2.59-9.38,1.74a5.3,5.3,0,0,0-2.67-5.36.34.34,0,0,0-.42.53c2.5,3.23,1.28,10-3.81,7.72a1.31,1.31,0,0,0-.82-.22,1.21,1.21,0,0,0-.6.36c-3.24,2.73-7.65,3.78-10.83.3l-.08-.09c-.57-.66-1.26-1.43-2.08-1.17a2.19,2.19,0,0,0-.79.55c-1.14,1.07-2.5,2.05-4,2a5.45,5.45,0,0,1-2.32-.72,13.39,13.39,0,0,1-4.1-2.87c-.5-.58-1.54-2.69-2.37-1.19a9.27,9.27,0,0,1-8.93,4.67c-3.61-.39-6-3.73-9.44-4.73-3.24-.94-6.88-.16-10.17.17a15.46,15.46,0,0,1-7.61-.78,5.71,5.71,0,0,1-2.79-2.41,16.64,16.64,0,0,1-1-4.17c-2.9,3.7-6.83,6.68-11.48,6.8a13.05,13.05,0,0,1-11.23-6,1.07,1.07,0,0,0-1.22-.44A10.72,10.72,0,0,1,62.6,125c-2.79-5.36.46-11.53,5.79-14.23a8.18,8.18,0,0,1,7-.45l.17-.5a8.76,8.76,0,0,1,6.33-5.34,14.45,14.45,0,0,1,9,1.1c.2-2.84,2.82-5.27,5.79-5.81,4.11-.75,6.95,1.25,8.33,4.72-.5-1.27,3-4.11,3.93-4.64,2.1-1.27,4.6-1.46,7-1.66,3.05-.3,8.34,1.76,7.72,5.47a2.45,2.45,0,0,0,.6-2.84,8,8,0,0,0-5.51-4.7,10.68,10.68,0,0,0-4.82-.22c4.35-.81,5.92-6,4.09-9.29,0,2.95-2.18,5.53-4.66,7.41-.56.38-7.92,5.66-7.52,5.92a12.6,12.6,0,0,0-13.58-.2,5.26,5.26,0,0,0-2.52,2.77,11.78,11.78,0,0,0-10.46-.2,42.52,42.52,0,0,0-6,5.27l-.4,0c-8.74-.94-15.37,9-13,16.55a12.64,12.64,0,0,0,5.84,7.43,11.74,11.74,0,0,0,4.55,1.46c.27,0,1.49-.11,2.65-.24s2.32-.27,2.34-.24c.39.49.77.94,1.17,1.36-7,2.07-12.25-1-14.84-5.59a1,1,0,0,0-1-.45c-4.37.23-11.57-.28-9.1-6.72v-.28c5.4-3,8.11-8.76,6.31-14l-.07-.22c.08-3.31,1.07-6.61,4.21-8.71a10.57,10.57,0,0,1,5.27-1.71C68.55,96,69.93,96,71.37,96c.42,0,.69-.58.33-.81a6.77,6.77,0,0,0-2.35-1,11.72,11.72,0,0,0-9.24,2.68A10.86,10.86,0,0,0,56.26,104a9.1,9.1,0,0,0-4.85-3,11.62,11.62,0,0,0-4-.25,6.91,6.91,0,0,0-4.83,2.48.59.59,0,0,0,.74.89c.66-.25,1.29-.5,1.91-.72,2.23-.75,4.33-1.14,6.73-.17a7,7,0,0,1,4.12,4.83,8.78,8.78,0,0,1,.15,3.73c-1.29,7.3-9.82,10.29-16.1,7.83-1.23-.49-2.35-1.71-3.58-2-1-.23-2.1.41-3.07.55a11.52,11.52,0,0,1-9.74-3.41,12.21,12.21,0,0,1-.87-1c-1.83-2.29-5.54-6-5-9.12a2,2,0,0,0,0-.77c-.15-.55-.85-.72-1.44-.89a4.73,4.73,0,0,1-3.17-5.75c.67-2.33,1.48-4.53,4.23-5.37.71-.22,1.39-1,1-1.68-2.47-3.49-3.27-7.72-.82-11.89,2.57-4.34,7.15-6.06,12.15-7.11a1.21,1.21,0,0,0,.89-.64c1.26-3.12,4.46-5.39,8.12-6.25s7.44.3,10.51,1.8l1.09.56a3.45,3.45,0,0,0-.67-1c-1-1.21-2.87-3-3.44-2.35,2.69-2.95,5.12-5.52,9.43-7.22a22.38,22.38,0,0,1,14-.81,1.72,1.72,0,0,0,1.7-.69c6.06-8.41,19.92-10.51,28-3.49a1.52,1.52,0,0,0,1.78,0c6.9-4.42,17.66-2.44,22,3.54l-.05,0a19.16,19.16,0,0,0-6.48,3.34,17,17,0,0,0-5.81,8.12c-3.73-1.21-7.6,1.65-8.31,5.19-.64,3.12.74,6.08.45,9.18v.06c-.37,3.89-3.49,6.94-7.39,8.34a.47.47,0,1,0,.25.89,12.13,12.13,0,0,0,8.51-6.71,8.8,8.8,0,0,0,.67-2.3,15.56,15.56,0,0,0,.08-3.52,18.69,18.69,0,0,1-.05-5.39c.4-1.85,2.94-5.25,5.62-3,.67.55,2.17.58,2.43-.41a15.73,15.73,0,0,1,9-10.33A19.49,19.49,0,0,1,143.16,61a1.51,1.51,0,0,0,1.34.2c4.88-1.6,10.88-.75,14.65,2.76,2.9,2.71,2.72,6.19,2.28,9.46a1.45,1.45,0,0,0,1.85,1.47c5.66-1.21,11.38,3.39,11,8.37,0,.69.74,1.22,1.43,1.25,8.51.55,12,9.65,6.14,14.45a1.23,1.23,0,0,0,.57,2.08,10.72,10.72,0,0,1,1.51.71c7,3.84,6.36,13.16-.87,16.08m7.55-11.69-.19-.5a11.1,11.1,0,0,0-2.32-3.64l-.4-.41a12.48,12.48,0,0,0-2.64-2l-.1-.06.3-.36c.18-.22.35-.45.52-.69a9,9,0,0,0,1.61-6.25c-.47-4.64-4.35-9.06-10.37-10-.32-5.55-6.39-10.19-12.69-10,.32-3.59-.12-7.19-3.36-10.09-4.4-3.92-11.08-5.06-16.77-3.37a24.71,24.71,0,0,0-19-4.59c-4.46-7.27-16.48-9.73-24.74-5.17-9.07-7-24.22-5.59-31.1,3.56-11.4-1.94-22.32,4.83-24.81,10.28-9.79-2-15.18,6.11-15.76,6.41a31,31,0,0,1-3.41.74c-9.58,3.16-14.13,13.33-10,20.31C15.3,90,12.23,93.16,12,93.48a8.83,8.83,0,0,0-1.46,4.36,6.53,6.53,0,0,0,1.19,4.2,7.42,7.42,0,0,0,.72.88,13.45,13.45,0,0,0,3.39,2.52,1.22,1.22,0,0,1,.6.53,1.2,1.2,0,0,1-.1.75,5.48,5.48,0,0,0,2,5.92c.39.28.82.53,1.22.78l.05,0a3.55,3.55,0,0,1,1.18,1.17,17.91,17.91,0,0,1,.64,2.32c1.33,3.54,6.39,3.37,10.45,3.2a30.21,30.21,0,0,1,3.61,0A8.27,8.27,0,0,1,38,121c.47.22,1,.45,1.56.69a12.31,12.31,0,0,0,8.71.38c.49-.16,1-.33,1.49-.53-2,2.55-1,9.73,10.34,8.52,4.06,5.53,11.3,8.46,17.54,4.89a13.81,13.81,0,0,0,10.09,3.31A16.21,16.21,0,0,0,98,133.18a7.74,7.74,0,0,0,5.22,5.58c2.77.94,5.58.33,8.39-.27,3.09-.67,6.17-1.33,9.2.05,4,1.9,6.36,5.55,11.15,5.14,3.46-.27,5.86-2.35,8.16-5,1.16.74,1.86,1.79,3.12,2.43.37.2.75.39,1.16.56a18.82,18.82,0,0,0,2.38.88c.42.12.82.23,1.24.33a4.75,4.75,0,0,0,3.71-.28c.55-.36,1-.92,1.66-1a2.25,2.25,0,0,1,1.21.39l.05,0a13.51,13.51,0,0,0,6.06,2.19c2.18.11,3.8-1.47,5.57-2.65a.93.93,0,0,1,.62-.24l.49.25a3.76,3.76,0,0,0,2.87.66c.54-.14,4.38-3.15,3.61-3.9,2.82,2.74,8.21,1.55,10.74-1.19,2-2.26,3.14-7.55.89-10.26a6.31,6.31,0,0,0,1.38-2.59,5.77,5.77,0,0,0-1.13-5.34,10.6,10.6,0,0,0,5-12.9m-119-11a6.77,6.77,0,0,0-2.35-1,11.72,11.72,0,0,0-9.24,2.68A10.86,10.86,0,0,0,56.26,104a9.1,9.1,0,0,0-4.85-3,11.62,11.62,0,0,0-4-.25,6.91,6.91,0,0,0-4.83,2.48.59.59,0,0,0,.74.89c.66-.25,1.29-.5,1.91-.72,2.23-.75,4.33-1.14,6.73-.17a7,7,0,0,1,4.12,4.83c.52-.38,1-.75,1.51-1.16l.18-.16-.07-.22c.08-3.31,1.07-6.61,4.21-8.71a10.57,10.57,0,0,1,5.27-1.71C68.55,96,69.93,96,71.37,96c.42,0,.69-.58.33-.81"/><path class="cls-4" d="M165.72,86.75c-1,2.09-.11,4.83,1.41,6.68a8.29,8.29,0,0,0,5.28,3,9.94,9.94,0,0,1,2.17,5.24c.12,2.86-1.5,5-3.21,7.18-.23.29.21.59.49.47,4.91-2.12,5.68-9.13,1.91-12.81a8.88,8.88,0,0,0,1.92-.25V96a11.81,11.81,0,0,1-6.87-3.57c-1.53-1.84-1.69-3.95-1.9-6.09l.22-.11a.44.44,0,0,0-.17-.82c-3.56-.86-6.59-.65-9.18-3.56s-2.05-6.6-.4-9.72L157.3,72c-3.39,2.3-3.54,7-1.41,10.21,1.75,2.61,6.32,5.32,9.83,4.52"/><path class="cls-5" d="M187.5,92.83c0-.19,0-.38,0-.57v0c0,.19,0,.39,0,.58"/><path class="cls-6" d="M185.32,99.19l0-.1a30.54,30.54,0,0,0,2.09-6.83c0,.19,0,.38,0,.57a9.34,9.34,0,0,1-2.18,6.36"/><path class="cls-7" d="M160.88,144.28h0m0,0h0m-1.15-1.56a6.3,6.3,0,0,1-4.75-2.17c0-.29,0-.58,0-.88a11.28,11.28,0,0,0-.57-4.58,9.39,9.39,0,0,0-.77-1.72c-.17-.3-.35-.58-.54-.85a10.94,10.94,0,0,0-2.15-2.26h0c-1.77-6.82,3.1-11,4.3-13a14.44,14.44,0,0,0,2.6-2.32c.83.08,1.69.11,2.54.11A27.44,27.44,0,0,0,184,101.73h0c7,3.84,6.36,13.16-.87,16.08a1.08,1.08,0,0,0-.07,1.9,3.53,3.53,0,0,1,1.49,4.54,4,4,0,0,1-.9,1.41h-.07a.31.31,0,0,0-.31.37,6,6,0,0,1-3.19,1.21,9.69,9.69,0,0,1-1.08.06,16.81,16.81,0,0,1-6.42-1.61c-1-1.61-2.65-2.9-3.73-4.47a37,37,0,0,1-3-6.27.39.39,0,0,0-.35-.22.26.26,0,0,0-.27.22c-.62,3,.81,6.39,2.72,8.88a13.62,13.62,0,0,0-4.16-.65c-4.72,0-9,2.56-7.25,8.47.27-2.3,1.19-4.75,3.22-5.86a7.52,7.52,0,0,1,3.69-.93c2.6,0,5.29,1.15,8,2.3s5.43,2.3,8.11,2.3a8.48,8.48,0,0,0,1.68-.16,8.26,8.26,0,0,0,2.89-1.18,8.1,8.1,0,0,1,.64,1.85,7.55,7.55,0,0,1-1.24,5.47,5.78,5.78,0,0,1-5,2.46,18.16,18.16,0,0,1-4.39-.72,5.3,5.3,0,0,0-2.67-5.36.4.4,0,0,0-.17,0,.34.34,0,0,0-.25.57c2.15,2.78,1.54,8.18-1.92,8.18a4.69,4.69,0,0,1-1.89-.45,1.64,1.64,0,0,0-.69-.23h-.13a1.21,1.21,0,0,0-.6.36,9.71,9.71,0,0,1-6,2.5m9.83-.35h0m0,0a3.9,3.9,0,0,1-2.2-.72,3.9,3.9,0,0,0,2.2.72m.64-.06h0m-4.3-.44h0m.13-.09,0,0,0,0m.17-.11,0,0,0,0m.66-.27h0m-.06,0h0M178.05,140h0m0,0a6,6,0,0,1-4.14-1.48A6,6,0,0,0,178,140m-4.15-1.49,0,0,0,0m0,0,0,0,0,0m-87.23-.13h0m0,0A13.86,13.86,0,0,1,77.69,135a13.86,13.86,0,0,0,8.92,3.31m97.86-1v0m0,0,.07-.08-.07.08m-97-.72a13.06,13.06,0,0,1-10.92-6,1,1,0,0,0-.9-.49,1.14,1.14,0,0,0-.33,0,10.82,10.82,0,0,1-3.25.5A10.6,10.6,0,0,1,62.6,125c-2.79-5.36.46-11.53,5.79-14.23a9.41,9.41,0,0,1,4.18-1,6.58,6.58,0,0,1,2.8.59l.17-.5h0A26.38,26.38,0,0,0,83.18,113a12.39,12.39,0,0,0,6.72,5.72c-4.89,2-7.16,7.7-5.83,11a.33.33,0,0,0,.31.22.31.31,0,0,0,.29-.24c.87-2.8,1.15-5.18,3.37-7.36a8.92,8.92,0,0,1,6.16-2.47,7.72,7.72,0,0,1,3.64.88,1.2,1.2,0,0,0,.56.15,1.11,1.11,0,0,0,.92-.5,16.32,16.32,0,0,1,13.75-7,22.07,22.07,0,0,1,8.68,1.86l.58-.17a6.68,6.68,0,0,1,5.28-2.4,8.89,8.89,0,0,1,5,1.6h0a4.9,4.9,0,0,0-3.45-2.93,6.71,6.71,0,0,0-1.67-.2,9.22,9.22,0,0,0-3,.55,7.31,7.31,0,0,0-3.28,2.12,13.69,13.69,0,0,0-7.87-2.61c2.44-.67,4.88-1.31,7.38-1.75a38.71,38.71,0,0,1,6.7-.58,43.51,43.51,0,0,1,7.23.63,7.58,7.58,0,0,0-.2,8.64.47.47,0,0,0,.39.2.52.52,0,0,0,.53-.56c-.27-2.65-.29-5.27,1.54-7.45l.29-.33h0c1.73.36,3.49.81,5.25,1.35a92.87,92.87,0,0,0,12.94,3.29h0a18.45,18.45,0,0,1-6.87,4.36.25.25,0,0,0,.09.49h0a11.62,11.62,0,0,0,2.41-.35,13,13,0,0,0-1,10.47h0a29.88,29.88,0,0,0-9.1-3.79l-2.08-.58c-.89-.24-1.76-.47-2.65-.69-3.24-.85-6.51-1.63-9.77-2.33-1.24-.27-2.48-.53-3.73-.75l-.16-.31h-.08c0,.08,0,.16-.07.24a39,39,0,0,0-6.78-.67q-.88,0-1.76.06c-4.77.33-10.46,1.79-14.37,4.57-3.41,2.43-5,4.81-9.81,5.33-1.34.14-1.83,3.2-1.93,5.89h-.31m-15.63-.05h0m0,0c-4.47,0-8.82-2.56-11.66-6.37,2.83,3.81,7.18,6.37,11.66,6.37m.23-2.07a11.78,11.78,0,0,1-10.49-6.25,1,1,0,0,0-.9-.46h-.11c-.49,0-1,0-1.56,0-4.3,0-9.73-1-7.54-6.77v-.28c5.4-3,8.11-8.76,6.31-14,3.71-3.1,6.08-7.3,9.42-10.64h0C68.55,96,69.93,96,71.37,96a.52.52,0,0,0,.5-.51.36.36,0,0,0-.16-.3,6.77,6.77,0,0,0-2.35-1A16.41,16.41,0,0,1,73,92.1c.54,4.65-3.69,9.21-1.27,13.68a9.53,9.53,0,0,0,1.17,1.71,10.71,10.71,0,0,0-1.15-.06c-8.17,0-14.12,9.44-11.9,16.61a12.64,12.64,0,0,0,5.84,7.43,11.74,11.74,0,0,0,4.55,1.46h.08c.38,0,1.5-.12,2.57-.25s2.1-.25,2.3-.25h0c.39.49.77.94,1.17,1.36a15.44,15.44,0,0,1-4.35.66M57.68,130.2h0m0,0c-6.56,0-8.72-3.31-8.72-6a4.44,4.44,0,0,1,.75-2.56c-1.74,2.41-1,8.58,8,8.59m2.47-.08v0m-.12,0h0m-15.67-7.38h0m0,0a12.6,12.6,0,0,1-4.79-1,12.59,12.59,0,0,0,4.79,1m3.68-.55h0m.11,0,.1,0-.1,0m1.61-.55,0,0h0l0,0m-5-1.09a12.64,12.64,0,0,1-4.6-.85c-1.23-.49-2.35-1.71-3.58-2a1.86,1.86,0,0,0-.45-.05,19.75,19.75,0,0,0-2.62.6,11.77,11.77,0,0,1-1.49.1,11.58,11.58,0,0,1-8.24-3.51,34.85,34.85,0,0,0,7.81.84,44.62,44.62,0,0,0,7.58-.67,41.17,41.17,0,0,0,16.94-6.86h0a8.78,8.78,0,0,1,.15,3.73c-1,5.61-6.26,8.68-11.5,8.68m-15.58-.26h0m-.4,0c-3.21,0-6.33-.6-7.33-3.27,1,2.67,4.12,3.23,7.33,3.27m1.43,0,1.69-.06,1.74-.07-1.74.07-1.69.06m5.27-.09h0m0,0h0m0,0h0m0,0h0m0,0h0m0,0h0m0,0h0m0,0h0m0,0h0m0,0h0m0,0h0m0,0h0m0,0h0m0,0h0m0,0h0m0,0h0m0,0h0m-1.21,0h0m1.17,0h0m0,0h0m0,0h0m0,0h0m0,0h0m0,0h0m0,0h0m0,0h0m0,0h0m0,0h0m0,0h0m0,0h0m0,0h0M98,118.53a14.06,14.06,0,0,0-3.42-.62c-1.87-.71-3.93-.76-5.8-1.69a16.63,16.63,0,0,1-4-2.85h0a46.78,46.78,0,0,0,10.62,1.3,35,35,0,0,0,5.51-.42c.84-.14,1.68-.3,2.52-.49h0A17.38,17.38,0,0,0,98,118.53"/><path class="cls-6" d="M84.37,129.9a.33.33,0,0,1-.31-.22c-1.33-3.28.94-9,5.83-11A12.39,12.39,0,0,1,83.18,113h0c.4.11.8.22,1.21.31l.37.09a16.63,16.63,0,0,0,4,2.85c1.87.92,3.93,1,5.8,1.69a14.06,14.06,0,0,1,3.42.62,17.38,17.38,0,0,1,5.41-4.76c3.31-.69,6.58-1.68,9.85-2.57h0a13.69,13.69,0,0,1,7.87,2.61,7.31,7.31,0,0,1,3.28-2.12,9.22,9.22,0,0,1,3-.55,6.71,6.71,0,0,1,1.67.2,4.9,4.9,0,0,1,3.45,2.93,8.89,8.89,0,0,0-5-1.6,6.68,6.68,0,0,0-5.28,2.4l-.58.17a22.07,22.07,0,0,0-8.68-1.86,16.32,16.32,0,0,0-13.75,7,1.11,1.11,0,0,1-.92.5,1.2,1.2,0,0,1-.56-.15,7.72,7.72,0,0,0-3.64-.88A8.92,8.92,0,0,0,88,122.31c-2.22,2.17-2.51,4.55-3.37,7.36a.31.31,0,0,1-.29.24"/><path class="cls-6" d="M134.81,118.33a.47.47,0,0,1-.39-.2,7.58,7.58,0,0,1,.2-8.64h0c.84.14,1.69.3,2.54.5l-.29.33c-1.83,2.19-1.81,4.81-1.54,7.45a.52.52,0,0,1-.53.56"/><path class="cls-6" d="M150.91,130.26c-.27-.23-.55-.45-.85-.66a13,13,0,0,1,1-10.47,11.62,11.62,0,0,1-2.41.35h0a.25.25,0,0,1-.09-.49,18.45,18.45,0,0,0,6.87-4.36c.8.13,1.61.2,2.41.27h0a14.44,14.44,0,0,1-2.6,2.32c-1.19,2.05-6.07,6.22-4.3,13"/><path class="cls-6" d="M122.72,121.45h0l-.3-.06h0c0-.08,0-.16.07-.24h.08l.16.31"/><path class="cls-6" d="M160.88,144.28h-.21a13.12,13.12,0,0,1-5.81-2,11.41,11.41,0,0,0,.12-1.67,6.3,6.3,0,0,0,4.75,2.17,9.71,9.71,0,0,0,6-2.5,1.21,1.21,0,0,1,.6-.36h.13a1.64,1.64,0,0,1,.69.23,4.69,4.69,0,0,0,1.89.45c3.46,0,4.07-5.4,1.92-8.18a.34.34,0,0,1,.25-.57.4.4,0,0,1,.17,0,5.3,5.3,0,0,1,2.67,5.36,18.16,18.16,0,0,0,4.39.72,5.78,5.78,0,0,0,5-2.46,7.55,7.55,0,0,0,1.24-5.47,8.1,8.1,0,0,0-.64-1.85,8.26,8.26,0,0,1-2.89,1.18,8.48,8.48,0,0,1-1.68.16c-2.68,0-5.4-1.15-8.11-2.3s-5.39-2.3-8-2.3a7.52,7.52,0,0,0-3.69.93c-2,1.11-3,3.56-3.22,5.86-1.78-5.91,2.53-8.47,7.25-8.47a13.62,13.62,0,0,1,4.16.65c-1.91-2.49-3.34-5.84-2.72-8.88a.26.26,0,0,1,.27-.22.39.39,0,0,1,.35.22,37,37,0,0,0,3,6.27c1.07,1.57,2.75,2.85,3.73,4.47a16.81,16.81,0,0,0,6.42,1.61,9.69,9.69,0,0,0,1.08-.06,6,6,0,0,0,3.19-1.21.31.31,0,0,1,.31-.37h.07a4,4,0,0,0,.9-1.41,3.53,3.53,0,0,0-1.49-4.54,1.08,1.08,0,0,1,.07-1.9c7.23-2.91,7.86-12.24.87-16.08.42-.69.79-1.4,1.14-2.12a12.48,12.48,0,0,1,2.64,2l.4.41a11.1,11.1,0,0,1,2.32,3.64l.19.5a11,11,0,0,1,.6,3.57,10.52,10.52,0,0,1-5.55,9.32h0a5.5,5.5,0,0,1,1.34,3.69,6.53,6.53,0,0,1-.22,1.66,6.31,6.31,0,0,1-1.38,2.59h0a6.27,6.27,0,0,1,1.25,4,9.9,9.9,0,0,1-2.14,6.24h0l-.07.08h0v0h0a9.31,9.31,0,0,1-6.4,2.65h0a6,6,0,0,1-4.14-1.48h0l0,0h0l0,0h0a.35.35,0,0,1,.1.26c0,1-3.22,3.51-3.71,3.64h0a3.23,3.23,0,0,1-.63.06h0a3.9,3.9,0,0,1-2.2-.72h0l-.49-.25h-.08a1.08,1.08,0,0,0-.54.24h0l0,0h0l-.12.08h0l0,0h0l-.12.08h0c-1.58,1.1-3.07,2.41-5,2.42h0m-74.25-6h0A13.86,13.86,0,0,1,77.69,135h0l0,0h0a11.6,11.6,0,0,1-5.81,1.56h0c-4.47,0-8.82-2.56-11.66-6.37h0l0,0h0v0h0l0,0H60a23,23,0,0,1-2.34.13h0c-9,0-9.7-6.17-8-8.59l0-.05,0,0h0c-.52.2-1,.38-1.49.53h0l-.1,0h0l-.09,0h0a13.19,13.19,0,0,1-3.67.55h0a12.59,12.59,0,0,1-4.79-1h0c-.55-.23-1.09-.47-1.56-.69a8.27,8.27,0,0,0-2.52-.89H33.6l-1.74.07-1.69.06H28.75c-3.21,0-6.33-.6-7.33-3.27h0a17.91,17.91,0,0,0-.64-2.32,3.55,3.55,0,0,0-1.18-1.17,28.71,28.71,0,0,0,4.15,1.3h0A11.58,11.58,0,0,0,32,118.27a11.77,11.77,0,0,0,1.49-.1,19.75,19.75,0,0,1,2.62-.6,1.86,1.86,0,0,1,.45.05c1.23.3,2.35,1.52,3.58,2a12.64,12.64,0,0,0,4.6.85c5.24,0,10.5-3.07,11.5-8.68a8.78,8.78,0,0,0-.15-3.73c.52-.38,1-.75,1.51-1.16l.18-.16h0c1.8,5.23-.91,11-6.31,14V121c-2.19,5.72,3.23,6.77,7.54,6.77.54,0,1.07,0,1.56,0h.11a1,1,0,0,1,.9.46,11.78,11.78,0,0,0,10.49,6.25,15.44,15.44,0,0,0,4.35-.66c-.4-.42-.79-.88-1.17-1.36h0c-.21,0-1.23.12-2.3.25s-2.19.25-2.57.25h-.08a11.74,11.74,0,0,1-4.55-1.46A12.64,12.64,0,0,1,59.85,124c-2.23-7.17,3.73-16.61,11.9-16.61a10.71,10.71,0,0,1,1.15.06h0a12.15,12.15,0,0,0,2.65,2.3l-.17.5a6.58,6.58,0,0,0-2.8-.59,9.41,9.41,0,0,0-4.18,1c-5.34,2.69-8.58,8.87-5.79,14.23a10.6,10.6,0,0,0,9.45,5.62,10.82,10.82,0,0,0,3.25-.5,1.14,1.14,0,0,1,.33,0,1,1,0,0,1,.9.49,13.06,13.06,0,0,0,10.92,6h.31c0,.28,0,.57,0,.84s-.1.57-.13.86c-.32,0-.65,0-1,0h0M67.19,96.11a20.11,20.11,0,0,1,2.17-1.91h0a6.77,6.77,0,0,1,2.35,1,.36.36,0,0,1,.16.3.52.52,0,0,1-.5.51c-1.44,0-2.82,0-4.18.14"/><path class="cls-8" d="M32.44,112.32c-5.32,0-9.94-5.37-8.3-10.49.58-1.79,1.79-3.44,2.17-5.26.65-3.13-2.69-4-4-6.36-2.56-4.71-1-8,2.25-10.59a7.43,7.43,0,0,0-.21.88c0,.16.13.28.3.28a.3.3,0,0,0,.25-.13,21.35,21.35,0,0,1,2.19-2.7A60.6,60.6,0,0,1,36,74.16a15.12,15.12,0,0,1,4.35,1,14.68,14.68,0,0,0,3,1,.44.44,0,0,0,.3-.09c3.36-2.68,6.47-5,11-5.85A19.36,19.36,0,0,1,58,70a15.92,15.92,0,0,1,9.16,2.71,1.13,1.13,0,0,0,.65.19,1,1,0,0,0,1.12-1c-.25-5.44,5.09-7.31,10.68-7.7.33,0,.66,0,1,0a5.74,5.74,0,0,1,.84.06,8.22,8.22,0,0,1,2.13.72c2.53,1.13,5.12,2.36,6.73,4.37a4.47,4.47,0,0,0-1.4-3.69,2.92,2.92,0,0,1-1-1.18c-.41-1.55,4-3.25,5.07-4.35,1.91-2,3.17-4.49,2.65-7,0-.11-.15-.16-.27-.16a.23.23,0,0,0-.25.16c-.56,2.65-1.32,5.1-3.74,7.07-2.63,2.14-5.77,2.1-6.82,2.2A12.8,12.8,0,0,0,78.87,61c-5.68,0-10.95,3.74-11.93,9.2A17.78,17.78,0,0,0,58,68c-6.42,0-12.65,2.94-14.87,6.68a7.24,7.24,0,0,0-3.06-2.05,28.11,28.11,0,0,0,9.2-6.51h0l1.09.56h0a3.45,3.45,0,0,0-.67-1h0c3.71-3.58,7.36-7,15.75-7.89,2.1-.2,4.29-.23,6.49-.23h3a59.67,59.67,0,0,0,8-.4c5.15-.7,8.48-4.35,14.09-5a35.42,35.42,0,0,1,3.83-.23,21.18,21.18,0,0,1,5.06.56c2.86.7,5.49,2.22,6.82,4.42a2.71,2.71,0,0,0,1,1.16,2,2,0,0,0,.89.18,7.55,7.55,0,0,0,1.2-.14c.3-.05.6-.09.92-.12l0,0a17,17,0,0,0-5.81,8.12,5.74,5.74,0,0,0-1.78-.28,6.94,6.94,0,0,0-6.53,5.47c-.64,3.12.74,6.08.45,9.18h0l-1.29-.11q-.93-.06-1.86-.06a50.93,50.93,0,0,0-9.85,1.15A10.4,10.4,0,0,1,93.3,73.8a.34.34,0,0,0-.23-.57.37.37,0,0,0-.2.06,10.14,10.14,0,0,0-5,8.69l-.42.09-.49.11a7.42,7.42,0,0,0-3-.56A11.54,11.54,0,0,0,77,84.07a21.22,21.22,0,0,0-10.86-2.9c-7.54,0-15.07,3.73-18.77,10.47a14.31,14.31,0,0,0-5.16-.91,17.61,17.61,0,0,0-7.34,1.62c-4.13-.66-7.68-3.41-8.37-7.26a.3.3,0,0,0-.32-.22.31.31,0,0,0-.34.28,7.73,7.73,0,0,0,3.58,7.11,8.65,8.65,0,0,0,3.39,1.25c-5.9,4-5.35,9.69-4.69,9.69.09,0,.18-.1.25-.32C29.68,99.3,31.17,96.13,35,94a12.93,12.93,0,0,1,6.27-1.6,13.49,13.49,0,0,1,6.14,1.48.82.82,0,0,0,.37.08,1.3,1.3,0,0,0,1.08-.65A19.72,19.72,0,0,1,66.33,82.82,18,18,0,0,1,75,85l-2.5.65a57.72,57.72,0,0,0-13.4,4.88,42.31,42.31,0,0,0-11.71,10.23h0a6.91,6.91,0,0,0-4.83,2.48.63.63,0,0,0-.12.37.59.59,0,0,0,.6.57.72.72,0,0,0,.26-.05c.66-.25,1.29-.5,1.91-.72h0c-3.74,4.58-6.93,8.37-11.95,8.86a7.86,7.86,0,0,1-.86,0M146.85,90.91q-.88,0-1.76,0a13.75,13.75,0,0,1,.7-3,5.92,5.92,0,0,0-2.46,2.82c-2.07-.2-4.14-.55-6.16-.94s-3.73-.76-5.59-1.19a6.59,6.59,0,0,1,3-2.32c.35-.14.19-.56-.14-.56l-.11,0a8.47,8.47,0,0,0-4.29,2.5c-3.16-.77-6.29-1.65-9.37-2.68-3.7-1.23-7.37-2.68-11.16-3.73a16.49,16.49,0,0,1,9.81-3h.57c2.93.09,6,.64,9.05.64.65,0,1.29,0,1.94-.08,6.05-.49,11.11-4.66,12.39-9.67h.44a22,22,0,0,0,2.73-.21,20.47,20.47,0,0,1,2.48-.21,8.58,8.58,0,0,1,5.24,1.83,24.39,24.39,0,0,1,2.14,1.72c-2.4,2.47-2.31,6.52-.41,9.38a11.48,11.48,0,0,0,4.2,3.51,11.44,11.44,0,0,1-4.88,3.58,20.38,20.38,0,0,1-8.37,1.58M107.6,81.33c-.82-.19-1.64-.36-2.47-.5h0a15.56,15.56,0,0,0,.08-3.52,18.69,18.69,0,0,1-.05-5.39c.31-1.42,1.87-3.74,3.78-3.74a2.84,2.84,0,0,1,1.84.75,1.94,1.94,0,0,0,1.18.38,1.19,1.19,0,0,0,1.25-.79,15.73,15.73,0,0,1,9-10.33h0a29.62,29.62,0,0,1,8.46,2.26c4.53,2.11,6.29,8.49,11.08,9.15l.67.08a11.49,11.49,0,0,1-1.26,2.14c-3.41,4.65-7.55,5.64-11.87,5.64-1.58,0-3.19-.13-4.79-.26s-3.21-.26-4.78-.26a18.59,18.59,0,0,0-12.16,4.41"/><path class="cls-9" d="M145.09,90.86c-.59,0-1.18-.08-1.76-.14a5.92,5.92,0,0,1,2.46-2.82,13.75,13.75,0,0,0-.7,3"/><path class="cls-9" d="M109.51,81.82q-1-.26-1.91-.49a18.59,18.59,0,0,1,12.16-4.41c1.57,0,3.17.13,4.78.26s3.21.26,4.79.26c4.32,0,8.45-1,11.87-5.64a11.49,11.49,0,0,0,1.26-2.14l.81.05c-1.28,5-6.34,9.17-12.39,9.67-.65.06-1.29.08-1.94.08-3.06,0-6.12-.55-9.05-.64h-.57a16.49,16.49,0,0,0-9.81,3"/><path class="cls-9" d="M131.58,88.59,130,88.23a8.47,8.47,0,0,1,4.29-2.5l.11,0c.33,0,.49.42.14.56a6.59,6.59,0,0,0-3,2.32"/><path class="cls-9" d="M28.1,103.19c-.67,0-1.21-5.73,4.69-9.69a8.65,8.65,0,0,1-3.39-1.25,7.73,7.73,0,0,1-3.58-7.11.31.31,0,0,1,.34-.28.3.3,0,0,1,.32.22c.68,3.84,4.24,6.6,8.37,7.26a17.61,17.61,0,0,1,7.34-1.62,14.31,14.31,0,0,1,5.16.91C51,84.9,58.57,81.16,66.11,81.16A21.22,21.22,0,0,1,77,84.07,11.54,11.54,0,0,1,84,81.61a7.42,7.42,0,0,1,3,.56Q81,83.48,75,85a18,18,0,0,0-8.7-2.18A19.72,19.72,0,0,0,48.82,93.34a1.3,1.3,0,0,1-1.08.65.82.82,0,0,1-.37-.08,13.49,13.49,0,0,0-6.14-1.48A12.93,12.93,0,0,0,35,94c-3.78,2.09-5.27,5.27-6.6,8.84-.08.22-.17.32-.25.32M87.91,82a10.14,10.14,0,0,1,5-8.69.37.37,0,0,1,.2-.06.34.34,0,0,1,.23.57,10.4,10.4,0,0,0-3.22,7.74L87.91,82"/><path class="cls-9" d="M24.7,80.78c-.17,0-.33-.12-.3-.28a7.43,7.43,0,0,1,.21-.88,20.14,20.14,0,0,1,2.53-1.67,21.35,21.35,0,0,0-2.19,2.7.3.3,0,0,1-.25.13m18.6-4.59a14.68,14.68,0,0,1-3-1,15.12,15.12,0,0,0-4.35-1c1.45-.53,2.82-1,4-1.5l.11,0a7.24,7.24,0,0,1,3.06,2.05C45.4,70.93,51.63,68,58,68a17.78,17.78,0,0,1,8.9,2.24c1-5.46,6.24-9.2,11.93-9.2a12.8,12.8,0,0,1,5.65,1.31c1.05-.11,4.2-.07,6.82-2.2,2.42-2,3.18-4.42,3.74-7.07a.23.23,0,0,1,.25-.16c.12,0,.25.06.27.16.52,2.52-.74,5-2.65,7-1.09,1.1-5.48,2.81-5.07,4.35a2.92,2.92,0,0,0,1,1.18,4.47,4.47,0,0,1,1.4,3.69c-1.61-2-4.2-3.24-6.73-4.37a8.22,8.22,0,0,0-2.13-.72,5.74,5.74,0,0,0-.84-.06c-.33,0-.66,0-1,0-5.59.39-10.93,2.25-10.68,7.7a1,1,0,0,1-1.12,1,1.13,1.13,0,0,1-.65-.19A15.92,15.92,0,0,0,58,70a19.36,19.36,0,0,0-3.33.29c-4.56.8-7.67,3.17-11,5.85a.44.44,0,0,1-.3.09"/><path class="cls-9" d="M43.05,104.18a.59.59,0,0,1-.6-.57.63.63,0,0,1,.12-.37,6.91,6.91,0,0,1,4.83-2.48h0c-.75.9-1.48,1.78-2.18,2.64h0c-.62.22-1.26.47-1.91.72a.72.72,0,0,1-.26.05m62.07-23.35c-.68-.11-1.36-.21-2-.28h0c.29-3.1-1.09-6.06-.45-9.18a6.94,6.94,0,0,1,6.53-5.47,5.74,5.74,0,0,1,1.78.28,17,17,0,0,1,5.81-8.12l0,0a19.54,19.54,0,0,1,2-.1,28.74,28.74,0,0,1,3.5.23h0a15.73,15.73,0,0,0-9,10.33,1.19,1.19,0,0,1-1.25.79,1.94,1.94,0,0,1-1.18-.38,2.84,2.84,0,0,0-1.84-.75c-1.92,0-3.47,2.32-3.78,3.74a18.69,18.69,0,0,0,.05,5.39,15.56,15.56,0,0,1-.08,3.52h0M50.42,66.67l-1.09-.56h0l.42-.41h0a3.45,3.45,0,0,1,.67,1"/><path class="cls-8" d="M161,84a7.94,7.94,0,0,1-3.21-2.22c-2.35-2.62-2.16-5.68-1-8.49,3.38,3.24,5.4,7.24,4.19,10.71"/><path class="cls-9" d="M160.09,85.74a11.48,11.48,0,0,1-4.2-3.51c-1.9-2.86-2-6.9.41-9.38l.5.46c-1.18,2.81-1.37,5.88,1,8.49A7.94,7.94,0,0,0,161,84a6.68,6.68,0,0,1-.9,1.71"/><path class="cls-10" d="M154.94,139.68a9.68,9.68,0,0,0-.57-2.58,8.86,8.86,0,0,0-.78-1.62,9.27,9.27,0,0,0-.53-.79c-2.67-3.54-7.57-5.13-12.11-6.32l-2.08-.53-2.65-.66c-3.24-.8-6.51-1.52-9.78-2.19l-2.11-.42c-.57-1-1.06-2.05-1.61-3.13,1.25.22,2.49.48,3.73.75,3.26.71,6.53,1.49,9.77,2.33.89.22,1.76.45,2.65.69l2.08.58a29.88,29.88,0,0,1,9.1,3.79h0a15,15,0,0,0,.94,2.23.16.16,0,0,0,.15.09.21.21,0,0,0,.21-.27,13.34,13.34,0,0,1-.44-1.4h0a10.94,10.94,0,0,1,2.15,2.26c.18.27.37.55.54.85a9.39,9.39,0,0,1,.77,1.72,11.28,11.28,0,0,1,.57,4.58m-67.17-3.11c.1-2.69.59-5.75,1.93-5.89,4.82-.52,6.4-2.9,9.81-5.33,3.91-2.79,9.6-4.25,14.37-4.57q.88-.06,1.76-.06a39,39,0,0,1,6.78.67,6.62,6.62,0,0,0-.13,2.83,41.31,41.31,0,0,0-6.63-.61q-.89,0-1.78.06a36.81,36.81,0,0,0-6.3,1l-.48-.29a.3.3,0,0,0-.16,0,.32.32,0,0,0-.25.52l0,0A24.89,24.89,0,0,0,99.5,128a10.17,10.17,0,0,0-3.26,3.43l-.93.08a5.8,5.8,0,0,0-.65,0,6.82,6.82,0,0,0-3.37.93,16.93,16.93,0,0,0-1.93.8l1.12-.25a6.9,6.9,0,0,0-1.56,1.65,7.76,7.76,0,0,0-.94,2h-.19"/><path class="cls-11" d="M151.15,131.92a.16.16,0,0,1-.15-.09,15,15,0,0,1-.94-2.23c.3.22.58.43.85.66a13.34,13.34,0,0,0,.44,1.4.21.21,0,0,1-.21.27"/><path class="cls-11" d="M106.71,124.85l0,0a.32.32,0,0,1,.25-.52.3.3,0,0,1,.16,0l.48.29-.85.22m17.63-.27-2.06-.36a6.62,6.62,0,0,1,.13-2.83h0l.3.06h0c.56,1.08,1,2.14,1.61,3.13"/><path class="cls-11" d="M87.74,137.41c0-.28,0-.56,0-.84H88a8.75,8.75,0,0,0-.22.85"/><path class="cls-12" d="M113.41,167.88c-.29-1.51-2.24-9.09-2.35-10.15-.48-4.4,1.39-6.71,4-10.08,4.92-6.36-3.88-12.68-10.07-15a21.2,21.2,0,0,0-9.69-1.2,6.65,6.65,0,0,0-4,.9,16.93,16.93,0,0,0-1.93.8l1.12-.25a6.9,6.9,0,0,0-1.56,1.65,9.67,9.67,0,0,0-1,7.64c1.47,6.06,6.31,17.67,10,23l15.52,2.71"/><path class="cls-13" d="M154.44,144a12.15,12.15,0,0,1-1.14,2.65l-.13.22a22.2,22.2,0,0,1-8.83,7.76l-.11.06c-.72.38-1.47.75-2.22,1.08a33.65,33.65,0,0,1-12.73,3,28.41,28.41,0,0,1-3.38-.1h-.14a26.11,26.11,0,0,1-10.15-3.1,21.91,21.91,0,0,1-2.94-1.94,19.94,19.94,0,0,1-3.43-3.39c-2.3-2.92-3.78-6.52-6.86-8.74-2.34-1.68-5.29-2.47-6.47-4.69a4.74,4.74,0,0,1-.53-2.26v-.35c.12-2.52,1.9-4.78,4.1-6.26,3.92-2.61,9.61-4,14.37-4.29A47.84,47.84,0,0,1,126.45,125c3.27.67,6.54,1.39,9.78,2.19l2.65.66,2.08.53c4.54,1.19,9.44,2.78,12.11,6.32a9.27,9.27,0,0,1,.53.79,8.86,8.86,0,0,1,.78,1.62,10.85,10.85,0,0,1,.07,6.95"/><path class="cls-14" d="M132.89,152.68c2.89-1,4.85-3.49,7.47-5,1.85-1.06,4-1.6,5.88-2.58s3.65-2.6,3.77-4.63c.14-2.45-2.12-4.43-4.41-5.64a23.66,23.66,0,0,0-8.39-2.56c-4.81-.53-10,.34-14.28-1.76-1.85-.9-3.41-2.32-5.36-3-5.89-2-18.88,4.9-11.52,10.54,2,1.55,4.59,2.53,6.25,4.43,1.18,1.35,1.79,3.06,2.91,4.45,1.71,2.11,4.42,3.28,7,4.31,3.38,1.34,7.2,2.6,10.64,1.41"/><path class="cls-13" d="M101.89,145.8a39.75,39.75,0,0,0-6.12-4.72c-1.38-.93-5-3.08-4.83,0,.2,3.45,3.08,9,4.95,12,.76,1.19,2,2.33,3.5,2.19a4.82,4.82,0,0,0,3-2,6.49,6.49,0,0,0,1.61-2.68c.37-1.73-.77-3.43-2.06-4.72Z"/><path class="cls-15" d="M127.41,148.15a6.85,6.85,0,0,1-3.34-.87c-2.5-6.4-5.45-9.76-8.09-11.41a63.39,63.39,0,0,1,13.47,4.6L132.9,142l.63.28.95,1.41c-1.4,1.08-2.46,2.69-4,3.64a5.88,5.88,0,0,1-3.06.82m12.29-5.83-.11,0,.37,0-.26.07m-4.83-1.69c-4.19-1.65-7-3.21-11.82-4.92a29.26,29.26,0,0,0,3.82-.7l.34.29a8.89,8.89,0,0,0,2,1.64,4.57,4.57,0,0,0,2,.37c.7,0,1.42-.09,2.12-.13.33,0,.66,0,1,0a15.68,15.68,0,0,1,4.69.72,4.09,4.09,0,0,1,2.61,2,39.54,39.54,0,0,1-6.75.82m-14.46-6.73c-2.77,0-5.38-.47-8.22-.75.33-1.52,1.66-2,3.13-2a12.46,12.46,0,0,1,2.62.34,31,31,0,0,1,6.54,2,20.89,20.89,0,0,1-4.07.38"/><path class="cls-16" d="M128.44,158.82c-.84,0-1.69,0-2.54-.11h0c-.41,0-1.33-2.47-1.51-2.85-.47-1-.88-2.08-1.28-3.13l-.47-1.31a34.13,34.13,0,0,0,3.37,1.14,30,30,0,0,0,3.26,6.24h-.84m13.58-3c-1.08-1.55-1.75-3-3.94-6.52a21.37,21.37,0,0,1,1.75-1.28c1.42,2.18,2.76,4.53,4.41,6.72-.72.38-1.47.75-2.22,1.08h0m-26.4-.22a21.91,21.91,0,0,1-2.94-1.94h0c-2.55-14.73-4.6-13.37-11.12-18.13v0a34.73,34.73,0,0,0-5.63,1.35h0a4.74,4.74,0,0,1-.53-2.26,47.28,47.28,0,0,1,8.7-1.41c-.58,1.59-.14,3.31,2,4.92,1.81,1.39,4,2.31,5.68,3.85a20.17,20.17,0,0,1,1.4,2.93c1.29,3.48,1.7,7.15,2.48,10.73m35.95-8.64a33.08,33.08,0,0,1-7.54-.87,24.11,24.11,0,0,0,2.22-1,9.77,9.77,0,0,0,1.7-1.1c1.22.12,2.4.18,3.54.18s2,0,3-.13a12.15,12.15,0,0,1-1.14,2.65l-.13.22h0q-.82,0-1.61,0M150,139.61a4.91,4.91,0,0,0-1.12-2.27,32.63,32.63,0,0,0,4.22-2.64,9.27,9.27,0,0,1,.53.79,8.86,8.86,0,0,1,.78,1.62,26.44,26.44,0,0,1-4.41,2.5m-16.23-7.52c-1.49,0-3,0-4.44-.12l.86-.4a20.25,20.25,0,0,0,6.08-4.38l2.65.66a25.47,25.47,0,0,1-5.14,4.24"/><path class="cls-17" d="M126,152.56a34.13,34.13,0,0,1-3.37-1.14c-.59-1.66-1.15-3.33-1.8-5-1.54-3.83-4-8-7.85-10.16a9.21,9.21,0,0,0-4.46-1.2h-.18c-.51,0-1.05,0-1.6.09s-1.11.09-1.64.09a5.88,5.88,0,0,1-1-.07c3.2.54,5.91,3.75,7.61,6.71-1.64-1.54-3.87-2.46-5.68-3.85-2.11-1.61-2.54-3.33-2-4.92,1.68-.13,3.24-.19,4.48-.19l1.12,0c.86,0,1.69.09,2.5.17a3.35,3.35,0,0,0-.06.4c-.37,3.84,5.79,4.25,7.7,6.55,1.24,1.5,1.27,3.59,2.24,5.25a5.32,5.32,0,0,0,2,1.93q.33.85.65,1.77c.42,1.2.83,2.37,1.29,3.51m12.06-3.28c-.9-1.45-2.05-3.27-3.59-5.59a5.25,5.25,0,0,1,1.81-.95,29.3,29.3,0,0,1,3.08-.36l.34-.07a43,43,0,0,0,8.24,1.68,9.77,9.77,0,0,1-1.7,1.1,24.11,24.11,0,0,1-2.22,1,47.29,47.29,0,0,1-7.82-2.63,25.57,25.57,0,0,1,3.61,4.56,21.37,21.37,0,0,0-1.75,1.28m1.89-7a2.36,2.36,0,0,0,1.73-1.52,1.51,1.51,0,0,0-.06-.91,34.46,34.46,0,0,0,3.49-.93,24.66,24.66,0,0,0,3.72-1.55,4.91,4.91,0,0,1,1.12,2.27,33.1,33.1,0,0,1-10,2.64M126.88,135a11.78,11.78,0,0,0-2.4-1.49,22.35,22.35,0,0,0,4.81-1.55c1.46.09,3,.09,4.44.12a24.89,24.89,0,0,1-2.41,1.34,23.82,23.82,0,0,1-4.44,1.58"/><path class="cls-18" d="M124.08,147.29a5.32,5.32,0,0,1-2-1.93c-1-1.66-1-3.75-2.24-5.25-1.91-2.31-8.07-2.72-7.7-6.55a3.35,3.35,0,0,1,.06-.4c2.85.28,5.46.75,8.22.75a20.89,20.89,0,0,0,4.07-.38,11.78,11.78,0,0,1,2.4,1.49,29.26,29.26,0,0,1-3.82.7c4.79,1.71,7.63,3.27,11.82,4.92a39.54,39.54,0,0,0,6.75-.82,1.51,1.51,0,0,1,.06.91,2.36,2.36,0,0,1-1.73,1.52l-.37,0,.11,0-.34.07a29.3,29.3,0,0,0-3.08.36,5.25,5.25,0,0,0-1.81.95l-.95-1.41-.63-.28-3.44-1.53a63.39,63.39,0,0,0-13.47-4.6c2.64,1.65,5.59,5,8.09,11.41"/></g></svg>