<svg id="Layer_1" data-name="Layer 1" xmlns="http://www.w3.org/2000/svg" xmlns:xlink="http://www.w3.org/1999/xlink" viewBox="0 0 200 200"><defs><style>.cls-1{fill:none;}.cls-2{clip-path:url(#clip-path);}.cls-3{fill:#f2c4a5;}.cls-4{fill:#e7b088;}.cls-5{fill:#c99471;}.cls-6{fill:#fbdcc8;}</style><clipPath id="clip-path"><circle class="cls-1" cx="89.17" cy="100.43" r="115.94" transform="translate(-29.99 162.37) rotate(-75.86)"/></clipPath></defs><title>ear</title><g class="cls-2"><path class="cls-3" d="M155,104.59c-.21.42-.43.82-.66,1.22q-.55,1-1.13,2c-.16.28-.34.57-.52.84s-.31.51-.48.76c-.33.52-.66,1-1,1.55s-.7,1-1,1.53c-10.38,14.9-24.78,25.3-35.83,35.8-.61.56-1.2,1.14-1.79,1.72l-.63.63c-.53.52-1,1-1.54,1.57-.32.32-.63.63-.93,1s-.79.86-1.19,1.29c-3.7,4.06-7.28,8.55-10.94,13-1,1.25-2.06,2.49-3.13,3.73-.9,1-1.81,2.1-2.75,3.12-.66.73-1.33,1.43-2,2.14l-.33.33c-.74.76-1.49,1.5-2.23,2.22-.34.34-.7.66-1.06,1s-.83.76-1.26,1.13a45.66,45.66,0,0,1-8.67,6.16c-.33.17-.65.35-1,.51s-.73.36-1.11.54c-.63.28-1.28.56-1.93.82h0c-.71.26-1.41.51-2.12.73l-1.08.31c-.72.2-1.46.38-2.21.51l-.62.1-.51.1-.72.09c-.52.08-1.07.12-1.59.17s-.79.06-1.19.07-.8,0-1.21,0l-1.23,0c-.39,0-.78,0-1.17-.07l-.61,0c-.33,0-.67-.06-1-.1l-1-.13c-.26,0-.53-.08-.8-.13l-.64-.11-.42-.08c-.7-.13-1.42-.29-2.13-.47l-.69-.17-.37-.11c-.29-.07-.58-.17-.86-.26a6.79,6.79,0,0,1-.78-.27l-.68-.24c-.25-.09-.51-.19-.77-.32s-.74-.31-1.1-.48-.89-.44-1.32-.67-1.09-.62-1.61-1c-.33-.2-.65-.42-1-.64l-.17-.11-.41-.29-.51-.39-.38-.29c-.37-.29-.72-.58-1.07-.88s-.79-.69-1.16-1.05a23,23,0,0,1-2.18-2.27,24,24,0,0,1-1.54-1.91l-.43-.57a34.65,34.65,0,0,1-2.5-3.85l0-.07a43.14,43.14,0,0,1-2.66-5.75c-.13-.32-.26-.67-.37-1l-.21-.63-.21-.68-.27-.86-.19-.75c-.11-.39-.21-.78-.31-1.17a40.63,40.63,0,0,1-1.21-10.11,50.13,50.13,0,0,1,.94-9c.13-.7.26-1.39.42-2.08,4.49-20.32,18.47-39.35,15.05-60.65-4-24.73,8.58-50.84,29.44-63.58A52.74,52.74,0,0,1,101.26,10c21.34.41,40,12.9,51.47,30.28a72.87,72.87,0,0,1,4.29,7.4c.33.63.63,1.25.91,1.86s.46,1,.69,1.5v0a73.3,73.3,0,0,1,3.87,11c.27,1.22.49,2.45.65,3.69a48.57,48.57,0,0,1,.09,11.42c-.06.61-.13,1.23-.21,1.86a72,72,0,0,1-8,25.53Z"/><path class="cls-4" d="M105.55,103.43c.42-7.09-2.13-14.1-5.85-20.16a29.68,29.68,0,0,0-8.88-9.71c-2-1.31-4.27-2.24-6.33-3.48C77,65.61,72.37,57.43,64.84,53.1a23.17,23.17,0,0,0,1.31,26c1.11-3.33,5.8-3.6,9.12-2.44C83.49,79.56,89.49,87.16,92,95.52s1.76,17.36-.31,25.82a4.17,4.17,0,0,0,3.35-.5c6.35-3.19,10.14-10.31,10.56-17.41Z"/><path class="cls-4" d="M124.37,51.11c8.79,14.34,11.12,40,6.2,50.35,7.15-15,11.09-32.73,5-48.21a41.44,41.44,0,0,0-24.88-23.8C97.23,24.85,70.4,28,63.75,43.16c-8.74,19.92,16.39,27,27.31,35.2,3.11,2.34,5.14,5.84,6.67,9.41,4.19,9.76,4.55,22.59-3.46,29.56,4,2.15,9.21.58,12.43-2.62s4.83-7.65,6-12c1.67-6.3,2.6-13.16.18-19.22C108,71.11,79.9,58.14,99.32,44.79c10.92-7.5,19.34-3,25,6.32Z"/><path class="cls-4" d="M78,115l.55.27a17.52,17.52,0,0,0,14,.54c1,5.3-3.92,11.9-8.61,13.86s-10.1,1.27-14.31,3.91c-6,3.75-8,13.25-14.95,14.16-5.22.68-9.55-4.44-10.72-9.57-1-4.51-.64-10.85,2.25-14.7,2.2-2.93,7.73-3.31,8.59-7.38.31-1.46-.26-2.94-.46-4.42-1.06-8,9.08-13.57,13.74-6.07A25.28,25.28,0,0,0,78,115Z"/><path class="cls-5" d="M141.23,69.39c.54-11.41-1.18-22-11.82-32.25-15.71-14.7-40.18-17-56.45-1.8A40.58,40.58,0,0,0,60.43,62.7c-.59,9.54-2.86,12.72,10.73,22,.14.1-2.32-3.91-2.73-4.52-6.36-9.26,5-12.83,11.85-9.71C93.18,76.29,101.56,90.66,98.94,105c-2.83,15.56-19.71,20.82-32,27.38-4.73,2.54-14,4.89-15.29-2.48-.78-4.64,4.44-7.12,5.65-11.08s-1.75-8-.11-11.53c3.17-6.83,10-1.72,12.83,2.22,3.07-6.34-6-10.64-10.71-9.22-3.82,1.14-7.5,4.35-8,8.5-.31,2.64.19,4.58-.25,6.68-.7,3.15-2.69,3.06-4.56,4.83-6.24,5.86-7.15,19.59-1.26,26.14,11.8,13.09,32.17-14,41.95-18.31,12.53-5.49,25.33-13,23.06-28.77-1.73-12-8.93-19.9-18-27.24-9.4-7.6-18.07-12.34-12-26.2C84.8,35.62,92,28.15,103.72,30.27c12.7,2.29,24.49,11.29,29,23.52,7.45,19.69-1.48,37.18-9.34,54.89,12.92-9.37,17.09-24.1,17.81-39.3Z"/><path class="cls-4" d="M151.22,110.91c-10,15.1-25.93,26.44-38.66,39.05-15.53,15.38-33.32,49-62,39.77-7.5-2.36-14.06-7.56-18.54-15.64l.06.14c-18.31-33.13,16.11-60.74,11-92.72-1.38-8.59-.8-17.87-1.18-26.44-.8-17.66,18.42-27.55,30.62-37.14-10.75,8.44-19.6,24.28-20.92,43.82-.7,10.45.68,21-.9,31.37-2.69,17.7-16.18,39.2-18.58,57C29,173,54.5,189.44,77.25,174.14c18.86-12.7,21.12-32.8,39.6-46.42,6-4.46,13-5.86,18.47-11.22,11.12-10.9,24-41,23.32-65.42,8.81,20,4.92,41.47-7.41,59.83Z"/><path class="cls-6" d="M71.3,175.13A24.81,24.81,0,0,0,80,168.61c5.51-6.58,1.94-13.15-6.07-8.69q-3.45,1.93-7,3.64a18.64,18.64,0,0,1-4.07,1.56c-8.39,1.82-11.65-6-18.73-6.58-7.59-.57-1.76,10.48.62,13,6.81,7.16,17.84,7.59,26.55,3.61Z"/><path class="cls-6" d="M68.86,33.82C80.17,23.93,94.23,19,109.27,22.42c18.92,4.28,31.78,20.46,36,38.77a36.23,36.23,0,0,1,.86,11.11c-.25,3.17-3,8.65-1.85,11.67,1.76,4.63,4.56-2.79,5.54-5.21,13.51-33.29-21.9-65.3-53.87-62.9-13.81,1-36.44,10.06-36.18,27.07v.37c1.85.14,7.19-7.87,9.06-9.5Z"/></g></svg>