<svg id="Layer_1" data-name="Layer 1" xmlns="http://www.w3.org/2000/svg" xmlns:xlink="http://www.w3.org/1999/xlink" viewBox="0 0 200 200"><defs><style>.cls-1{fill:none;}.cls-2{clip-path:url(#clip-path);}.cls-3{clip-path:url(#clip-path-2);}.cls-4{fill:#a4506f;}.cls-5{fill:#c66785;}.cls-6{fill:#f59daf;}.cls-7{fill:#8e4560;}.cls-8{fill:#ab5974;}.cls-9{fill:#d98a98;}.cls-10{fill:#cb82ae;}.cls-11{fill:#f8b7c9;}</style><clipPath id="clip-path"><ellipse class="cls-1" cx="109" cy="100" rx="131" ry="137"/></clipPath><clipPath id="clip-path-2"><rect class="cls-1" x="3.14" y="-590.53" width="1062.6" height="1058.13"/></clipPath></defs><title>gland</title><g class="cls-2"><g class="cls-3"><path class="cls-4" d="M162.6,184.59c-3.27,0-5.31-2.09-6.95-3.78-1.45-1.49-2.4-2.4-3.7-2.4a8.22,8.22,0,0,0-2.55.66c-.5.19-1,.37-1.51.52a18.71,18.71,0,0,1-5.22.8h0c-11,0-16.24-11.29-20.82-21.26-2.34-5.08-4.54-9.88-7.19-12.49a85.3,85.3,0,0,0-11-5.81,13.91,13.91,0,0,1-6.53,1.6,14.59,14.59,0,0,1-8.56-2.76,35.25,35.25,0,0,0-2.19,5.91c-1,3.19-2,6.48-4.15,9.3-1.82,2.37-5.91,4.23-8.82,5-1.09,4.46-2.91,6.89-5.65,10.19-.42.5-.84,1.07-1.26,1.65a16.08,16.08,0,0,1-4.73,4.81,21.76,21.76,0,0,1-5.23,1.14c-3.5,3.69-7.6,5.71-11.62,5.71a13,13,0,0,1-7-2.14c-5.45-3.45-12-9.11-12.1-16.42v-.4l-.32-.15a22.32,22.32,0,0,1-11-11.61,19,19,0,0,1-1.16-6.63,13.68,13.68,0,0,0-.86-5.07A8.74,8.74,0,0,0,11,139.11a18,18,0,0,1-1.33-1.6c-3.59-5-2-11.79-.22-17.11.4-1.18.89-2.64.58-3.63a6.29,6.29,0,0,0-1.51-2.11L7.91,114A18.57,18.57,0,0,1,5.06,94.83c.21-.48.44-1,.68-1.44.79-1.62,1.54-3.16,1.19-4.35a6.39,6.39,0,0,0-1.05-1.78c-.29-.39-.57-.79-.83-1.2-2.21-3.59-2.27-8.64-.17-13.2a32.66,32.66,0,0,1,6.41-8.64c-3.68-10.51-.38-16.78,4.65-24.38.26-.4.52-.81.77-1.24s.52-.92.76-1.38c.58-1.08,1.14-2.23,1.69-3.34s1.14-2.33,1.75-3.47c.5-.92.91-1.65,1.31-2.28.19-.3.37-.59.56-.88v0l.4-.57c.34-.46.68-.92,1-1.34a11.87,11.87,0,0,1,9.45-4.66,14,14,0,0,1,2,.14l.76.12c9.09,1.72,15.49,11.31,20.17,18.31l.55.82c.22.32.44.65.67,1s.47.65.7.93a73.73,73.73,0,0,0,5.2,6,51.39,51.39,0,0,1,5.65,6.76,23,23,0,0,1,3.84,12.87h.25a19.8,19.8,0,0,1,11.1,3.23c5.53,3.74,5.62,10.22,5.15,16a7.4,7.4,0,0,1,.91-.05,12.78,12.78,0,0,1,1.45.09,30.08,30.08,0,0,1,10.19,3.08c.79-4.22,2.92-10.05,5.63-11.43a6.73,6.73,0,0,1,3.14-.71,16.93,16.93,0,0,1,3.55.5c.44.09.88.19,1.31.26a5.64,5.64,0,0,0,1,.09,3.74,3.74,0,0,0,2.21-.59l.33-.5a5.34,5.34,0,0,0,0-1.22,5.52,5.52,0,0,1,1-4.1,5.29,5.29,0,0,1,2-1.36c.65-.29,1.3-.56,1.93-.81,2.51-1,4.08-1.72,4.55-3.18a6.41,6.41,0,0,0-.24-2.6,10.22,10.22,0,0,1-.22-4.58,9.43,9.43,0,0,1,1.6-3.46c.22-.27.37-.47.53-.65l.13-.15.06-.05.58-.55.68-.54.56-.38.88-.52.74-.37.6-.28,1-.46c.61-.27,1.22-.53,1.82-.83.36-.18.7-.37,1-.57l.38-.26.27-.19.47-.39.42-.4A23.52,23.52,0,0,0,143,45.77a32.94,32.94,0,0,1,2.29-3.38c.64-.79,1.28-1.46,1.84-2.06,1.78-1.88,2.76-2.92,2.71-5.83,0-.48,0-1-.08-1.46a19,19,0,0,1,0-3.28c.74-7.55,7.79-11.5,14.36-11.5a14.71,14.71,0,0,1,6.09,1.26c7.48,3.43,12.55,11.84,16.52,19.61C191,47.62,191.14,51.9,191,60.79l.05.83.62.39.17.1a16.38,16.38,0,0,1,7.06,10.43,18.22,18.22,0,0,1-2,13.53c-.26.42-.55.82-.84,1.22A6.61,6.61,0,0,0,195,89c-.34,1.18.4,2.71,1.19,4.33.24.48.47,1,.68,1.45A18.57,18.57,0,0,1,194.06,114l-.62.69a6.46,6.46,0,0,0-1.52,2.11c-.3,1,.17,2.39.59,3.64,1.79,5.31,3.38,12.06-.22,17.1a18.47,18.47,0,0,1-1.32,1.59,8.57,8.57,0,0,0-1.44,1.91c-.83,1.78-.64,3.72-.42,6,.32,3.27.73,7.33-2.71,11.1a28.65,28.65,0,0,1-4.43,3.76,19.77,19.77,0,0,0-4.72,4.31,13.22,13.22,0,0,0-2,5.19,30.64,30.64,0,0,1-1,3.65c-1.69,4.6-6.57,9.58-11.52,9.62h-.06"/></g><path class="cls-5" d="M195.08,95.7a16.36,16.36,0,0,1-2.5,16.86c-1,1.11-2.13,2.13-2.57,3.56-.49,1.62.07,3.36.6,5,1.68,5,3.09,10.94.07,15.17-.95,1.32-2.27,2.35-3,3.83-2.53,5.41,2.13,11.15-2.78,16.53-2.85,3.12-6.76,4.67-9.31,8.26-2.25,3.15-2.09,5.93-3.34,9.34-1.39,3.78-5.53,8.25-9.67,8.29-2.43,0-4-1.54-5.51-3.09s-3-3.15-5.32-3.08c-1.56,0-3,.81-4.47,1.25C128.11,183.24,125.08,154,116,145.13c-.95-.93-12-6.91-12.75-6.47a12.47,12.47,0,0,1-15.19-2.08c-3.71,4.93-3.63,12-7.45,17-1.73,2.25-6.42,4.13-8.94,4.61-.93,4.77-2.57,7-5.49,10.57-1.63,2-3.18,4.73-5.42,6-.54.3-5.12,1.16-5.12.87-4.49,5.11-10.72,7.75-16.8,3.9-4.76-3-11-8.25-11.14-14.67a3.25,3.25,0,0,0-.21-1.43,2.62,2.62,0,0,0-1.37-1,20.26,20.26,0,0,1-9.88-10.5c-1.63-3.88-.35-8.14-2-11.78-.7-1.48-2-2.52-3-3.83-3-4.23-1.61-10.19.06-15.17.54-1.6,1.1-3.34.6-5-.43-1.43-1.59-2.46-2.56-3.56A16.36,16.36,0,0,1,6.88,95.7c1-2.35,2.69-4.79,2-7.27a14.76,14.76,0,0,0-2.12-3.51c-2-3.27-1.66-7.66,0-11.16s4.31-6.3,7-9c-3.92-10-1.45-15.55,4-23.72.29-.44.57-.89.84-1.36s.54-1,.8-1.44c1.18-2.2,2.25-4.58,3.43-6.81.4-.74.81-1.47,1.24-2.16.29-.46.58-.91.89-1.34h0c.31-.43.63-.85.95-1.23a10,10,0,0,1,7.94-3.94,12,12,0,0,1,1.69.12l.7.11c8.6,1.63,14.82,11.41,19.42,18.27.24.36.48.71.73,1s.48.67.74,1c3.75,5,7.91,8.29,10.74,12.59,2.33,3.51,3.79,7.68,3.43,13.9a18.51,18.51,0,0,1,12.32,2.77c5.73,3.87,4.46,11.48,3.87,18a2.76,2.76,0,0,1,1.26-1.32,5.71,5.71,0,0,1,3.24-.34,28.26,28.26,0,0,1,12.08,4.34c-.24-2.74,2.29-11.59,4.83-12.89,2.08-1.06,4.51-.17,6.8.23a6.2,6.2,0,0,0,4.75-.91,2.94,2.94,0,0,0,1-1.63c.36-1.48-.39-3.31.58-4.46a3.47,3.47,0,0,1,1.28-.83c3.21-1.45,6.59-2.19,7.58-5.23.71-2.15-1-5.05-.42-7.33a7.27,7.27,0,0,1,1.24-2.7L132,57l.09-.09.49-.46.56-.44.45-.3.14-.08.62-.37.66-.32.55-.26c1-.44,2-.85,2.95-1.34.4-.2.8-.42,1.19-.66l.5-.33.33-.24.61-.51.5-.47c2.06-2.15,3.38-5.19,5.15-7.37,2.56-3.15,5.11-4.34,5-9.28A37.19,37.19,0,0,1,151.7,30c.83-8.42,11.28-11.47,17.66-8.54,7.17,3.29,12,11.78,15.56,18.68,4.15,8.16,4.21,12,4.1,20.64a3.87,3.87,0,0,0,.31,1.88,3.86,3.86,0,0,0,1.53,1.27c6.61,4.07,8.5,14.34,4.36,21a15.53,15.53,0,0,0-2.12,3.51c-.71,2.48.94,4.92,2,7.27"/><path class="cls-6" d="M182.71,35.93q-.81-1.44-1.7-2.87l-.07.39a2.62,2.62,0,0,0,1.76,2.48"/><path class="cls-6" d="M165.89,35.41l1.34.9,3.3,2.23a1.33,1.33,0,0,0,2-.16l.29-.22c.81-.61,1.63-1.22,2.43-1.86a16.42,16.42,0,0,0,4.56-5.15c-2.81-4.12-6.2-7.82-10.39-9.74a12.34,12.34,0,0,0-4.5-1.06,12.7,12.7,0,0,0-.76,4.68,15.85,15.85,0,0,0,1,5.38c.09.23,2,5.82.75,5"/><path class="cls-6" d="M177.51,37.93c-1.71.28-4.56.92-5.27,2.49a4.84,4.84,0,0,0,0,3.45c1.23,4,5.59,8.88,6.29,12,.48,2.08.58,4.25,1.14,6.31s1.69,4.1,3.54,5c2.31,1.11,5.18.08,6.9-1.87A9.28,9.28,0,0,0,191,64l-.16-.11a4,4,0,0,1-1.52-1.28,3.72,3.72,0,0,1-.31-1.88c.1-8.59.05-12.48-4.11-20.64l-.69-1.34a13.27,13.27,0,0,0-6.73-.84"/><path class="cls-6" d="M165,70.35c2.26,3.2,3.5,2.8,6.89,2.63a14.72,14.72,0,0,1,2,.12c2.13.21,4.71.42,5.48-1.67.6-1.63-1-3.12-2-4.51-1.87-2.58-2-6.06-2.12-9.29s-.63-6.78-2.94-8.92a6.9,6.9,0,0,0-8.34-.47c-2.49,1.65-2.56,2.65-2.91,5.54a7.28,7.28,0,0,1-.88,2.55,32.27,32.27,0,0,0-2,3.68,3.72,3.72,0,0,0-.28,1.68,4.22,4.22,0,0,0,1,2.09c1.93,2.41,4.21,4,6,6.58"/><path class="cls-6" d="M181.88,70.62c-2.33,2.74.35,7.58,1.31,10.37.73,2.14-.25,7.75-1.27,9.73a6.18,6.18,0,0,0-1,2.27c-.11,1.59,1.49,2.64,3,2.86l.57,0a5.85,5.85,0,0,0,.74,0c5.41-.58,9-7.68,8.35-12.9-.18-1.34-.57-2.73-.17-4,1.42-4.55,4.61-6.88-1.66-8.94-2.63-.86-7.81-1.88-9.94.63"/><path class="cls-6" d="M194.11,69.1c.55.16,1.11.28,1.67.42a14.11,14.11,0,0,0-2.65-3.81,10.2,10.2,0,0,0-.15,1.75,1.82,1.82,0,0,0,.31,1.2,1.64,1.64,0,0,0,.83.45"/><path class="cls-6" d="M156.66,67c-3.68.59-3.41,7.44-4.39,10s-2.27,4.87-2.6,7.65a4.82,4.82,0,0,0,.24,2.58,5.25,5.25,0,0,0,1.81,1.88,16.62,16.62,0,0,0,4.59,2.68l.35.1c4.76,1.3,7.25-3,6.42-7.48-.29-1.58-1.13-2.43-.77-4.14.51-2.35,3.58-3.75,2.88-6.5-.26-1-2.42-3.24-4.42-4.88A9.07,9.07,0,0,0,157.64,67a3.62,3.62,0,0,0-1,0"/><path class="cls-6" d="M194.88,84.64l.14.61.22-.34a15.76,15.76,0,0,0,2.09-9.82,3.22,3.22,0,0,0-1.57,2,14.89,14.89,0,0,0-.88,7.58"/><path class="cls-6" d="M195.09,95.69c-.5-1.14-1.15-2.31-1.6-3.48l-.42.31a9.73,9.73,0,0,0-3,2.67l-.25.65a5.92,5.92,0,0,0,2,5.12,5.68,5.68,0,0,0,2.46.58c.63,0,1.33,0,2,0a15.62,15.62,0,0,0-1.22-5.71l-.06-.15"/><path class="cls-6" d="M177.51,97.47c-1.71.28-4.56.92-5.27,2.49a4.84,4.84,0,0,0,0,3.45c1.23,4,5.59,8.89,6.29,12,.48,2.08.58,4.25,1.14,6.31s1.69,4.1,3.54,5c2.31,1.11,5.18.09,6.9-1.87a9.16,9.16,0,0,0,1.16-1.67c-.21-.7-.43-1.4-.65-2.07-.54-1.6-1.09-3.34-.6-5,.43-1.43,1.6-2.46,2.56-3.56l.53-.66a18.22,18.22,0,0,0-3.73-10,13.6,13.6,0,0,0-11.88-4.41"/><path class="cls-6" d="M175.21,117.17c-.16-3.23-.63-6.78-2.94-8.92a6.9,6.9,0,0,0-8.34-.47c-2.49,1.65-2.56,2.65-2.91,5.54a7.28,7.28,0,0,1-.88,2.55,32,32,0,0,0-2,3.68,3.71,3.71,0,0,0-.28,1.68,4.19,4.19,0,0,0,1,2.09c1.93,2.41,4.21,4,6,6.58,2.26,3.21,3.5,2.8,6.89,2.63a14.68,14.68,0,0,1,2,.12c2.13.21,4.71.42,5.49-1.67.6-1.63-1-3.12-2-4.51-1.87-2.58-2-6.05-2.12-9.29"/><path class="cls-6" d="M181.88,130.15c-2.33,2.74.35,7.58,1.31,10.37.73,2.14-.25,7.74-1.27,9.73a6.25,6.25,0,0,0-1,2.27c-.11,1.59,1.49,2.64,3,2.86l.57,0a7.16,7.16,0,0,0,.74,0l.68-.11c3.16-5-.56-10.23,1.76-15.2.69-1.48,2-2.52,3-3.84a10.49,10.49,0,0,0,1.76-6.5l-.63-.22c-2.63-.87-7.81-1.87-9.94.63"/><path class="cls-6" d="M194.81,109.11a16.62,16.62,0,0,0,1.49-5.49l-.46.2c-1.7.86-1.56,2.92-1,5.3"/><path class="cls-6" d="M165.89,154.48l1.34.91,3.3,2.23a1.78,1.78,0,0,0,.76.35,1.8,1.8,0,0,0,1.21-.5l.29-.22c.81-.61,1.63-1.22,2.43-1.86,2.42-2,4.61-4.17,5.41-7.42a17.75,17.75,0,0,0-1-10.4c-1.37-3.77-5.93-2.38-9.1-2.36a5.19,5.19,0,0,0-2.14.31c-3.23,1.45-4.31,5.2-4.26,8.6a15.82,15.82,0,0,0,1,5.38c.09.24,2,5.83.75,5"/><path class="cls-6" d="M165.19,133.3c-.26-1-2.42-3.24-4.42-4.88a9,9,0,0,0-3.13-1.94,3.52,3.52,0,0,0-1,0c-3.68.59-3.41,7.43-4.39,10s-2.27,4.87-2.6,7.65a4.82,4.82,0,0,0,.24,2.58,5.29,5.29,0,0,0,1.81,1.88,16.75,16.75,0,0,0,4.59,2.68l.35.1c4.76,1.3,7.25-3,6.42-7.48-.29-1.59-1.13-2.43-.77-4.15.51-2.35,3.58-3.75,2.88-6.5"/><path class="cls-6" d="M160.76,108.22a21.52,21.52,0,0,1,2.71-1.53,7.19,7.19,0,0,0,3.65-5.69,5.2,5.2,0,0,0-3.33-5.15l-.42-.1a7.57,7.57,0,0,0-2.47.1,10.13,10.13,0,0,1-2.21.18,5.91,5.91,0,0,1-1-.18c-.33-.08-.65-.19-1-.3-1.56-.56-3.08-1.35-4.66-1a3.61,3.61,0,0,0-2.06,1.32,3.77,3.77,0,0,0-.63,1.16,4,4,0,0,0,.71,3.67,7.61,7.61,0,0,0,3.1,6.61c.54.38,1.17.74,1.35,1.39a2.71,2.71,0,0,1,0,1.05,6.6,6.6,0,0,0,.5,4.1,3.14,3.14,0,0,0,1.7,1.4,2.09,2.09,0,0,0,1.72-.1c-.07-2.54.45-5.36,2.39-6.91"/><path class="cls-6" d="M172.78,97.71c.81-.61,1.63-1.22,2.43-1.86,2.42-1.95,4.61-4.17,5.41-7.42a17.75,17.75,0,0,0-1-10.4c-1.37-3.77-5.93-2.38-9.1-2.36a5.29,5.29,0,0,0-2.14.31c-3.23,1.45-4.31,5.19-4.26,8.6a15.82,15.82,0,0,0,1,5.38c.09.24,2,5.83.75,5l1.34.9,3.3,2.24a1.33,1.33,0,0,0,2-.16l.29-.22"/><path class="cls-6" d="M177.51,157c-1.71.28-4.56.92-5.27,2.49a4.84,4.84,0,0,0,0,3.45,20.66,20.66,0,0,0,2.09,4.3,12,12,0,0,1,1.32-2.39c2.23-3.15,5.51-4.72,8.21-7.17a13.09,13.09,0,0,0-6.35-.69"/><path class="cls-6" d="M172.27,167.78a6.91,6.91,0,0,0-8.34-.47c-2.49,1.65-2.56,2.66-2.91,5.54a7.32,7.32,0,0,1-.88,2.55,32.72,32.72,0,0,0-2,3.67,4.52,4.52,0,0,0-.27,1.12,6.6,6.6,0,0,0,4.73,2.32c4.14,0,8.28-4.51,9.66-8.29a47.38,47.38,0,0,0,1.29-4.74,7.06,7.06,0,0,0-1.33-1.7"/><path class="cls-6" d="M160.76,167.75a21.51,21.51,0,0,1,2.71-1.53,7.2,7.2,0,0,0,3.65-5.7,5.19,5.19,0,0,0-3.33-5.14l-.42-.11a7.65,7.65,0,0,0-2.47.11,10,10,0,0,1-2.21.18,6.17,6.17,0,0,1-1-.18c-.33-.09-.65-.19-1-.31-1.56-.56-3.08-1.35-4.66-1a3.62,3.62,0,0,0-2.06,1.32,3.72,3.72,0,0,0-.63,1.16,4,4,0,0,0,.71,3.67,7.61,7.61,0,0,0,3.1,6.61c.54.37,1.17.74,1.35,1.39a2.71,2.71,0,0,1,0,1.05,6.59,6.59,0,0,0,.5,4.09,3.15,3.15,0,0,0,1.7,1.41,2.11,2.11,0,0,0,1.72-.1c-.07-2.55.45-5.37,2.39-6.91"/><path class="cls-6" d="M156.66,32.36c4.76,1.3,7.25-3,6.42-7.48-.29-1.58-1.13-2.43-.77-4.15l.09-.3a14.23,14.23,0,0,0-5.74,1.91,9.91,9.91,0,0,0-4.9,7.26,16.59,16.59,0,0,0,4.55,2.65l.35.1"/><path class="cls-6" d="M153.12,47.76c.54.37,1.17.73,1.35,1.39a2.7,2.7,0,0,1,0,1,6.58,6.58,0,0,0,.5,4.09,3.16,3.16,0,0,0,1.7,1.41,2.14,2.14,0,0,0,1.72-.1c-.07-2.55.45-5.37,2.39-6.91a21.17,21.17,0,0,1,2.71-1.53,7.2,7.2,0,0,0,3.65-5.7,5.2,5.2,0,0,0-3.33-5.14l-.42-.1a7.57,7.57,0,0,0-2.47.1,9.8,9.8,0,0,1-2.21.18,6.17,6.17,0,0,1-1-.18,9.87,9.87,0,0,1-1-.31c-1.56-.56-3.08-1.35-4.66-1l-.18.05a10.54,10.54,0,0,1-.1,1.27,8,8,0,0,1-2.07,4.28l.38.56a7.61,7.61,0,0,0,3.1,6.62"/><path class="cls-6" d="M130.91,67a7.1,7.1,0,0,0,2.28-1.71A13.66,13.66,0,0,0,136,58a26.56,26.56,0,0,0,.24-3.67c-2.61,1.14-5,2.31-5.91,5.84-.52,2.09.87,4.71.54,6.8"/><path class="cls-6" d="M125,90.72A6.15,6.15,0,0,0,124,93c-.11,1.59,1.49,2.64,3,2.86l.57,0a5.84,5.84,0,0,0,.74,0c5.41-.58,9-7.68,8.35-12.9-.18-1.34-.57-2.73-.17-4C138,74.37,141.17,72,134.89,70A19.29,19.29,0,0,0,130,69c-1.3,1.6-3.55,2.35-5.83,3.31-.56,2.75,1.36,6.37,2.13,8.63S126,88.73,125,90.72"/><path class="cls-6" d="M139,57.82c-1,3.21-2.91,6.13-2.91,9.63a1.83,1.83,0,0,0,.31,1.2,1.64,1.64,0,0,0,.83.45,14.85,14.85,0,0,1,3.8,1.22c1.57,1,2.38,2.93,3.88,4a4.67,4.67,0,0,0,5.16.18c2.63-1.67,3.08-5.4,3.24-8.61.25-5,.44-10.34-1.88-14.74a17.18,17.18,0,0,0-5.74-5.81,39,39,0,0,1-4,5.76,11,11,0,0,1-2.9,2.09c.1.43.19.86.25,1.28a7.43,7.43,0,0,1-.06,3.33"/><path class="cls-6" d="M109,94.94l1.34.9,3.3,2.24a1.76,1.76,0,0,0,.76.35,1.79,1.79,0,0,0,1.21-.51l.29-.22c.81-.61,1.63-1.22,2.43-1.86,2.42-1.95,4.61-4.17,5.41-7.42a17.73,17.73,0,0,0-1-10.4,3.67,3.67,0,0,0-1.25-1.74,6.33,6.33,0,0,1-.09,1.74c-.57,2.34-3.52,2.94-5.8,2.54s-4.72-1.29-6.79-.23a4,4,0,0,0-1.3,1.28,14,14,0,0,0-.27,3,15.81,15.81,0,0,0,1,5.38c.09.24,2,5.83.75,5"/><path class="cls-6" d="M106.15,84.41l-.06-.26A30.58,30.58,0,0,0,104,91.32c1.85-1.32,2.65-4.07,2.12-6.91"/><path class="cls-6" d="M136.14,92.52a9.73,9.73,0,0,0-3,2.67l-.25.65a5.92,5.92,0,0,0,2,5.12,5.68,5.68,0,0,0,2.46.58c2.83.18,6.82-.45,8.65-.52a38,38,0,0,0,2.77-5.18,10.12,10.12,0,0,0,.84-2.86c.18-2.26-1.45-3.89-1.65-6.19-.32-3.56,1.27-6.5-1.42-9.27-2.14-2.21-6.31-4.51-7.75-.47a14.87,14.87,0,0,0-.88,7.58c.32,1.61,1.11,3.22.71,4.81a5.75,5.75,0,0,1-2.52,3.07"/><path class="cls-6" d="M126.29,126.67c2.31,1.11,5.18.09,6.9-1.87a13.67,13.67,0,0,0,2.85-7.25c.75-5.48-.15-11.45-3.58-15.67a13.6,13.6,0,0,0-11.88-4.41c-1.71.28-4.56.92-5.27,2.49a4.83,4.83,0,0,0,0,3.45c1.23,4,5.59,8.89,6.29,12,.48,2.08.58,4.25,1.14,6.31s1.69,4.1,3.54,5"/><path class="cls-6" d="M118.29,117.17c-.16-3.23-.63-6.78-2.94-8.92a6.9,6.9,0,0,0-8.34-.47c-2.49,1.65-2.56,2.65-2.91,5.54a7.29,7.29,0,0,1-.88,2.55,32,32,0,0,0-2,3.68,3.7,3.7,0,0,0-.28,1.68,4.19,4.19,0,0,0,1,2.09c1.93,2.41,4.21,4,6,6.58,2.26,3.21,3.5,2.8,6.89,2.63a14.66,14.66,0,0,1,2,.12c2.13.21,4.71.42,5.49-1.67.6-1.63-1-3.12-2-4.51-1.87-2.58-2-6.05-2.11-9.29"/><path class="cls-6" d="M134.89,129.52c-2.63-.87-7.81-1.87-9.94.63-2.33,2.74.35,7.58,1.31,10.37.73,2.14-.25,7.74-1.27,9.73a6.22,6.22,0,0,0-1,2.27c-.11,1.59,1.49,2.64,3,2.86l.57,0a7.15,7.15,0,0,0,.74,0c5.41-.58,9-7.68,8.35-12.9-.18-1.34-.57-2.73-.17-4,1.42-4.55,4.61-6.87-1.66-8.94"/><path class="cls-6" d="M144.86,133.87A4.67,4.67,0,0,0,150,134c2.63-1.66,3.08-5.4,3.24-8.61.25-5,.44-10.34-1.88-14.74-1.81-3.44-8.18-9-12.47-6.89-2.84,1.43-.55,6.2.1,10.21a7.42,7.42,0,0,1-.06,3.33c-1,3.21-2.91,6.13-2.91,9.63a1.83,1.83,0,0,0,.31,1.2,1.64,1.64,0,0,0,.83.45,14.85,14.85,0,0,1,3.8,1.22c1.57,1,2.38,2.92,3.88,4"/><path class="cls-6" d="M122.68,137.56c-1.38-3.77-5.93-2.38-9.1-2.36a5.2,5.2,0,0,0-2.15.31,7.11,7.11,0,0,0-3.81,4.86,70.78,70.78,0,0,1,8.4,4.74,29.47,29.47,0,0,1,5,7.66,11.24,11.24,0,0,0,2.61-4.82,17.73,17.73,0,0,0-1-10.4"/><path class="cls-6" d="M108.26,133.3c-.26-1-2.42-3.24-4.42-4.88a9,9,0,0,0-3.13-1.94,3.52,3.52,0,0,0-1,0c-3.68.59-3.42,7.43-4.4,10-.44,1.16-.94,2.26-1.39,3.38a12.61,12.61,0,0,0,5.79.12,11.44,11.44,0,0,0,3.55-1.4,5.35,5.35,0,0,1,2.23.73c.75-2.1,3.41-3.49,2.75-6.07"/><path class="cls-6" d="M123,156.89c3.48,7.53,7.07,15.93,13.07,19.57.6-5.3-.36-11-3.65-15a13.6,13.6,0,0,0-9.42-4.52"/><path class="cls-6" d="M138.91,163.35c-2.84,1.42-.55,6.2.1,10.2a7.41,7.41,0,0,1-.06,3.33c-.08.26-.17.52-.26.78a14.16,14.16,0,0,0,8.66-.08c1.49-.44,2.93-1.22,4.48-1.26a4.57,4.57,0,0,1,1.37.17,17.7,17.7,0,0,0-1.81-6.26c-1.81-3.44-8.18-9-12.47-6.88"/><path class="cls-6" d="M146,160.56a38.32,38.32,0,0,0,2.77-5.18,10.18,10.18,0,0,0,.84-2.86c.18-2.26-1.45-3.9-1.65-6.19-.32-3.56,1.27-6.5-1.42-9.27-2.14-2.21-6.31-4.51-7.75-.47a14.87,14.87,0,0,0-.88,7.58c.32,1.61,1.11,3.22.71,4.81a5.76,5.76,0,0,1-2.52,3.07,9.77,9.77,0,0,0-3,2.67l-.25.65a5.92,5.92,0,0,0,2,5.12,5.68,5.68,0,0,0,2.46.58c2.83.18,6.82-.45,8.65-.52"/><path class="cls-6" d="M99.73,91.9a5.92,5.92,0,0,0,2.26.2c-.74-.4-1.49-.77-2.26-1.1a27.94,27.94,0,0,0-4.38-1.47,14.75,14.75,0,0,0,4,2.26l.35.1"/><path class="cls-6" d="M65.82,62.14c.56,2.06,1.68,4.1,3.55,5a4.69,4.69,0,0,0,1.81.45C71,57,65.18,52.84,59.39,46.25c1.76,3.43,4.72,7.1,5.29,9.58.47,2.08.58,4.25,1.14,6.31"/><path class="cls-6" d="M47.17,53.77a7.31,7.31,0,0,1-.88,2.55,32.27,32.27,0,0,0-2,3.68,3.71,3.71,0,0,0-.28,1.68,4.21,4.21,0,0,0,1,2.09c1.93,2.41,4.21,4,6,6.58,2.26,3.2,3.5,2.8,6.89,2.63a14.72,14.72,0,0,1,2,.12c2.13.21,4.71.42,5.48-1.67.6-1.63-1-3.12-2-4.51-1.87-2.58-2-6.06-2.12-9.29s-.63-6.78-2.94-8.92a6.9,6.9,0,0,0-8.34-.47c-2.49,1.65-2.56,2.65-2.91,5.54"/><path class="cls-6" d="M71.15,69.12A4.82,4.82,0,0,0,68,70.62c-2.33,2.74.35,7.58,1.31,10.37.73,2.14-.25,7.75-1.27,9.73a6.16,6.16,0,0,0-1,2.27c-.11,1.59,1.49,2.64,3,2.86l.57,0a5.85,5.85,0,0,0,.74,0c5.41-.58,9-7.68,8.35-12.9-.18-1.34-.57-2.73-.17-4,1.27-4.07,4-6.36,0-8.27a19.7,19.7,0,0,0-8.51-.88l0-.64"/><path class="cls-6" d="M46.91,68.89A9.05,9.05,0,0,0,43.79,67a3.61,3.61,0,0,0-1,0c-3.68.59-3.42,7.44-4.4,10s-2.27,4.87-2.59,7.65A4.82,4.82,0,0,0,36,87.24a5.24,5.24,0,0,0,1.82,1.88,16.6,16.6,0,0,0,4.59,2.68l.35.1c4.76,1.3,7.25-3,6.42-7.48-.29-1.58-1.13-2.43-.76-4.14.51-2.35,3.58-3.75,2.87-6.5-.26-1-2.42-3.24-4.42-4.88"/><path class="cls-6" d="M44.83,36.49a6.15,6.15,0,0,1-1-.18,9.75,9.75,0,0,1-1-.31c-1.56-.56-3.08-1.35-4.66-1a3.63,3.63,0,0,0-2.06,1.32,3.67,3.67,0,0,0-.63,1.16,4,4,0,0,0,.71,3.67,7.61,7.61,0,0,0,3.1,6.62c.54.37,1.17.73,1.35,1.39a2.7,2.7,0,0,1,0,1,6.58,6.58,0,0,0,.5,4.09,3.16,3.16,0,0,0,1.7,1.41,2.14,2.14,0,0,0,1.72-.1c-.07-2.55.45-5.37,2.39-6.91a21.08,21.08,0,0,1,2.71-1.53,7.2,7.2,0,0,0,3.65-5.7,5.2,5.2,0,0,0-3.33-5.14l-.42-.1a7.57,7.57,0,0,0-2.47.1,9.81,9.81,0,0,1-2.22.18"/><path class="cls-6" d="M81,84.64c.32,1.61,1.11,3.22.72,4.81a5.75,5.75,0,0,1-2.52,3.07,9.75,9.75,0,0,0-3,2.67l-.24.65A5.92,5.92,0,0,0,78,101a5.67,5.67,0,0,0,2.46.58c2.83.18,6.82-.45,8.65-.52a38.16,38.16,0,0,0,2.77-5.18A10.11,10.11,0,0,0,92.73,93c.12-1.53-.58-2.77-1.11-4.11a5.42,5.42,0,0,0-3,.36,2.82,2.82,0,0,0-1.26,1.34c.48-5.31,1.41-11.33-1.33-15.48a2.91,2.91,0,0,0-4.09,2A14.87,14.87,0,0,0,81,84.64"/><path class="cls-6" d="M93.09,100.68a7.61,7.61,0,0,0,3.1,6.61c.54.38,1.17.74,1.35,1.39a2.71,2.71,0,0,1,0,1.05,6.59,6.59,0,0,0,.5,4.1,3.14,3.14,0,0,0,1.7,1.4,2.09,2.09,0,0,0,1.72-.1c-.07-2.54.45-5.36,2.39-6.91a21.52,21.52,0,0,1,2.71-1.53,7.19,7.19,0,0,0,3.65-5.69,5.2,5.2,0,0,0-3.33-5.15l-.42-.1a7.57,7.57,0,0,0-2.47.1,10.13,10.13,0,0,1-2.21.18,5.89,5.89,0,0,1-1-.18c-.33-.08-.65-.19-1-.3-1.56-.56-3.08-1.35-4.66-1A3.61,3.61,0,0,0,93,95.84,3.71,3.71,0,0,0,92.38,97a4,4,0,0,0,.71,3.67"/><path class="cls-6" d="M75.53,101.88a13.6,13.6,0,0,0-11.88-4.41c-1.71.28-4.56.92-5.27,2.49a4.83,4.83,0,0,0,0,3.45c1.23,4,5.59,8.89,6.29,12,.47,2.08.58,4.25,1.14,6.31s1.68,4.1,3.55,5c2.31,1.11,5.18.09,6.9-1.87a13.66,13.66,0,0,0,2.85-7.25c.76-5.48-.15-11.45-3.58-15.67"/><path class="cls-6" d="M45.09,123.31c1.93,2.41,4.21,4,6,6.58,2.26,3.21,3.5,2.8,6.89,2.63a14.67,14.67,0,0,1,2,.12c2.13.21,4.71.42,5.49-1.67.6-1.63-1-3.12-2-4.51-1.87-2.58-2-6.05-2.12-9.29s-.63-6.78-2.94-8.92a6.9,6.9,0,0,0-8.34-.47c-2.49,1.65-2.56,2.65-2.91,5.54a7.31,7.31,0,0,1-.88,2.55,32,32,0,0,0-2,3.68,3.69,3.69,0,0,0-.28,1.68,4.18,4.18,0,0,0,1,2.09"/><path class="cls-6" d="M78,129.52c-2.63-.87-7.81-1.87-9.94.63-2.33,2.74.35,7.58,1.31,10.37.73,2.14-.25,7.74-1.27,9.73a6.23,6.23,0,0,0-1,2.27c-.11,1.59,1.49,2.64,3,2.86l.57,0a7.15,7.15,0,0,0,.74,0c5.41-.58,9-7.68,8.35-12.9-.18-1.34-.57-2.73-.17-4,1.42-4.55,4.61-6.87-1.66-8.94"/><path class="cls-6" d="M96.33,125.44c.25-5,.44-10.34-1.88-14.74-1.81-3.44-8.18-9-12.47-6.89-2.84,1.43-.55,6.2.1,10.21a7.41,7.41,0,0,1-.06,3.33c-1,3.21-2.91,6.13-2.91,9.63a1.83,1.83,0,0,0,.31,1.2,1.64,1.64,0,0,0,.83.45,14.85,14.85,0,0,1,3.8,1.22c1.57,1,2.38,2.92,3.88,4a4.67,4.67,0,0,0,5.16.18c2.63-1.66,3.08-5.4,3.24-8.61"/><path class="cls-6" d="M52,154.48l1.34.91,3.3,2.23a1.77,1.77,0,0,0,.76.35,1.8,1.8,0,0,0,1.21-.5l.29-.22c.81-.61,1.63-1.22,2.43-1.86,2.42-2,4.61-4.17,5.41-7.42a17.74,17.74,0,0,0-1-10.4c-1.37-3.77-5.93-2.38-9.1-2.36a5.2,5.2,0,0,0-2.15.31c-3.23,1.45-4.31,5.2-4.26,8.6a15.82,15.82,0,0,0,1,5.38c.09.24,2,5.83.75,5"/><path class="cls-6" d="M51.33,133.3c-.26-1-2.42-3.24-4.42-4.88a9,9,0,0,0-3.13-1.94,3.5,3.5,0,0,0-1,0c-3.68.59-3.42,7.43-4.4,10s-2.27,4.87-2.59,7.65a4.82,4.82,0,0,0,.24,2.58,5.28,5.28,0,0,0,1.82,1.88,16.73,16.73,0,0,0,4.59,2.68l.35.1c4.76,1.3,7.25-3,6.42-7.48-.29-1.59-1.13-2.43-.76-4.15.51-2.35,3.58-3.75,2.87-6.5"/><path class="cls-6" d="M81.9,136.59a14.87,14.87,0,0,0-.88,7.58c.32,1.61,1.11,3.22.72,4.81a5.76,5.76,0,0,1-2.52,3.07,9.78,9.78,0,0,0-3,2.67l-.24.65a4,4,0,0,0,0,1.38,19.21,19.21,0,0,0,2.57-1.38,8.59,8.59,0,0,0,2.1-1.82c3.82-5,3.74-12.07,7.45-17a11.94,11.94,0,0,0,2.65,2.08,5.61,5.61,0,0,0-1.1-1.58c-2.15-2.21-6.31-4.51-7.75-.47"/><path class="cls-6" d="M58.92,97.71c.81-.61,1.63-1.22,2.43-1.86,2.42-1.95,4.61-4.17,5.41-7.42a17.74,17.74,0,0,0-1-10.4c-1.37-3.77-5.93-2.38-9.1-2.36a5.29,5.29,0,0,0-2.15.31c-3.23,1.45-4.31,5.19-4.26,8.6a15.82,15.82,0,0,0,1,5.38c.09.24,2,5.83.75,5l1.34.9,3.3,2.24a1.76,1.76,0,0,0,.76.35,1.79,1.79,0,0,0,1.21-.51l.29-.22"/><path class="cls-6" d="M63.65,157c-1.71.28-4.56.92-5.27,2.49a4.83,4.83,0,0,0,0,3.45c.92,3,3.57,6.45,5.15,9.3.95-1.16,1.8-2.45,2.67-3.5,2.88-3.46,4.51-5.73,5.45-10.35a13.64,13.64,0,0,0-8-1.39"/><path class="cls-6" d="M50.07,167.31c-2.49,1.65-2.56,2.66-2.91,5.54a7.34,7.34,0,0,1-.88,2.55,32.72,32.72,0,0,0-2,3.67,3.72,3.72,0,0,0-.28,1.69l.12.55c4.27.29,8.34-2.11,11.52-5.74-.34.39,4.54-.52,5.1-.83l.38-.23c-.29-2.55-1-5.05-2.77-6.71a6.91,6.91,0,0,0-8.34-.47"/><path class="cls-6" d="M46.91,167.75a21.41,21.41,0,0,1,2.71-1.53,7.2,7.2,0,0,0,3.65-5.7,5.19,5.19,0,0,0-3.33-5.14l-.42-.11a7.65,7.65,0,0,0-2.47.11,10,10,0,0,1-2.22.18,6.16,6.16,0,0,1-1-.18c-.33-.09-.65-.19-1-.31-1.56-.56-3.08-1.35-4.66-1a3.61,3.61,0,0,0-2.06,1.32,3.67,3.67,0,0,0-.63,1.16,4,4,0,0,0,.71,3.67,7.61,7.61,0,0,0,3.1,6.61c.54.37,1.17.74,1.35,1.39a2.71,2.71,0,0,1,0,1.05,6.59,6.59,0,0,0,.5,4.09,3.14,3.14,0,0,0,1.7,1.41,2.11,2.11,0,0,0,1.72-.1c-.07-2.55.45-5.37,2.39-6.91"/><path class="cls-6" d="M37.86,29.59a16.66,16.66,0,0,0,4.59,2.68l.35.1A4.7,4.7,0,0,0,48,30.94,32.16,32.16,0,0,0,42.8,26,16.89,16.89,0,0,0,36.26,23a13,13,0,0,0-.45,2.13A4.81,4.81,0,0,0,36,27.7a5.28,5.28,0,0,0,1.82,1.88"/><path class="cls-6" d="M11.73,66.72a5.06,5.06,0,0,0,.7.42c2.31,1.11,5.18.08,6.9-1.87A13.65,13.65,0,0,0,22.18,58c.76-5.48-.15-11.45-3.58-15.67a10,10,0,0,0-1.12-1.17c-5.33,8.09-7.74,13.61-3.84,23.55-.64.66-1.28,1.32-1.9,2"/><path class="cls-6" d="M8.53,71.43a2.11,2.11,0,0,0,.11-1,21.61,21.61,0,0,0-1.52,2.45,2.43,2.43,0,0,0,1.41-1.45"/><path class="cls-6" d="M11.13,90.72a6.17,6.17,0,0,0-1,2.27c-.11,1.59,1.49,2.64,3,2.86l.57,0a5.88,5.88,0,0,0,.74,0c5.41-.58,9-7.68,8.35-12.9-.18-1.34-.57-2.73-.17-4C24.12,74.37,27.31,72,21,70c-2.63-.86-7.81-1.88-9.94.63C8.77,73.35,11.45,78.2,12.4,81c.73,2.14-.25,7.75-1.27,9.73"/><path class="cls-6" d="M22.19,67.45a1.81,1.81,0,0,0,.31,1.2,1.64,1.64,0,0,0,.83.45,14.82,14.82,0,0,1,3.8,1.22c1.57,1,2.38,2.93,3.88,4a4.67,4.67,0,0,0,5.16.18c2.63-1.67,3.08-5.4,3.24-8.61.25-5,.44-10.34-1.88-14.74-1.81-3.44-8.18-9-12.47-6.89-2.84,1.43-.55,6.21.1,10.21a7.42,7.42,0,0,1-.06,3.33c-1,3.21-2.91,6.13-2.91,9.63"/><path class="cls-6" d="M8.84,88.43a5,5,0,0,1,0,2.46,10.32,10.32,0,0,0,1-2.46,17.73,17.73,0,0,0-1-10.4A3.64,3.64,0,0,0,6,75.58a11.41,11.41,0,0,0,.74,9.33c.72,1.17,1.73,2.18,2.12,3.51"/><path class="cls-6" d="M22.29,92.52a9.73,9.73,0,0,0-3,2.67l-.24.65a5.92,5.92,0,0,0,2,5.12,5.67,5.67,0,0,0,2.46.58c2.83.18,6.82-.45,8.65-.52A38.13,38.13,0,0,0,35,95.84,10.11,10.11,0,0,0,35.8,93c.18-2.26-1.45-3.89-1.65-6.19-.32-3.56,1.27-6.5-1.42-9.27C30.58,75.32,26.41,73,25,77.06a14.87,14.87,0,0,0-.88,7.58c.32,1.61,1.11,3.22.72,4.81a5.76,5.76,0,0,1-2.52,3.07"/><path class="cls-6" d="M21.08,41.43a5.63,5.63,0,0,0,2.46.58c2.83.18,6.82-.45,8.65-.52A38.42,38.42,0,0,0,35,36.31a10.15,10.15,0,0,0,.84-2.86c.18-2.26-1.45-3.9-1.65-6.19a32,32,0,0,1,.16-4.52c-4.39-.24-7.26,2-9.52,5.15a4.65,4.65,0,0,1,0,2A5.77,5.77,0,0,1,22.29,33l-.68.48c-.47.94-.93,1.9-1.4,2.85q-.5,1-1,2a5.5,5.5,0,0,0,1.9,3.13"/><path class="cls-6" d="M41.1,113.83a3.14,3.14,0,0,0,1.7,1.4,2.09,2.09,0,0,0,1.72-.1c-.07-2.54.45-5.36,2.39-6.91a21.43,21.43,0,0,1,2.71-1.53A7.19,7.19,0,0,0,53.26,101a5.2,5.2,0,0,0-3.33-5.15l-.42-.1a7.57,7.57,0,0,0-2.47.1,10.14,10.14,0,0,1-2.22.18,5.9,5.9,0,0,1-1-.18c-.33-.08-.65-.19-1-.3-1.56-.56-3.08-1.35-4.66-1a3.6,3.6,0,0,0-2.06,1.32A3.71,3.71,0,0,0,35.45,97a4,4,0,0,0,.71,3.67,7.61,7.61,0,0,0,3.1,6.61c.54.38,1.17.74,1.35,1.39a2.71,2.71,0,0,1,0,1.05,6.6,6.6,0,0,0,.5,4.1"/><path class="cls-6" d="M11.34,121.07c-.39,1.18-.77,2.41-1.08,3.66a5.67,5.67,0,0,0,2.18,1.95c2.31,1.11,5.18.09,6.9-1.87a13.66,13.66,0,0,0,2.85-7.25c.76-5.48-.15-11.45-3.58-15.67A13.6,13.6,0,0,0,6.72,97.47l-.52.09a16.41,16.41,0,0,0,3.17,15c1,1.11,2.13,2.13,2.56,3.56.49,1.62-.06,3.36-.6,5"/><path class="cls-6" d="M22.86,142.48c-.18-1.34-.57-2.73-.17-4,1.42-4.55,4.61-6.87-1.66-8.94-2.63-.87-7.81-1.87-9.94.63a5.08,5.08,0,0,0-.75,4.44,8.72,8.72,0,0,0,.92,1.64c.94,1.32,2.26,2.36,3,3.84,1.7,3.64.43,7.89,2,11.77a20.38,20.38,0,0,0,1.23,2.48c3.69-2.28,5.91-7.67,5.35-11.85"/><path class="cls-6" d="M22.19,127a1.81,1.81,0,0,0,.31,1.2,1.64,1.64,0,0,0,.83.45,14.82,14.82,0,0,1,3.8,1.22c1.57,1,2.38,2.92,3.88,4a4.67,4.67,0,0,0,5.16.18c2.63-1.66,3.08-5.4,3.24-8.61.25-5,.44-10.34-1.88-14.74-1.81-3.44-8.18-9-12.47-6.89-2.84,1.43-.55,6.2.1,10.21a7.41,7.41,0,0,1-.06,3.33c-1,3.21-2.91,6.13-2.91,9.63"/><path class="cls-6" d="M27.07,162.88l.45.51a3.18,3.18,0,0,1,.21,1.44c.12,6.42,6.39,11.66,11.14,14.68l.67.39a21,21,0,0,0-2-9.65c-1.54-2.93-6.4-7.43-10.46-7.36"/><path class="cls-6" d="M35,155.38a10.17,10.17,0,0,0,.84-2.86c.18-2.26-1.45-3.9-1.65-6.19-.32-3.56,1.27-6.5-1.42-9.27-2.15-2.21-6.31-4.51-7.75-.47a14.87,14.87,0,0,0-.88,7.58c.32,1.61,1.11,3.22.72,4.81a5.76,5.76,0,0,1-2.52,3.07,9.77,9.77,0,0,0-3,2.67l-.24.65a3.79,3.79,0,0,0,0,1.18,20.1,20.1,0,0,0,4.88,4.53c2.8.11,6.53-.47,8.29-.54A38.42,38.42,0,0,0,35,155.38"/><path class="cls-7" d="M162.6,182.51c-2.41,0-4-1.55-5.46-3.09a10.85,10.85,0,0,0-3.49-2.77,10.85,10.85,0,0,1,3.5,2.76c1.5,1.55,3.06,3.09,5.46,3.09h0c2.75,0,5.49-2,7.44-4.44-1.94,2.44-4.69,4.42-7.44,4.44h0M44.88,181.34a11.11,11.11,0,0,1-6-1.83c-4.27-2.71-9.75-7.2-10.92-12.73a11.06,11.06,0,0,0,.31,1.16c1.63,5,6.64,9,10.61,11.56a10.74,10.74,0,0,0,9.31,1.32,11,11,0,0,1-3.31.52m3.32-.53h0m94.48-2.5c-15.14,0-18.38-25-26.65-33.18a67.86,67.86,0,0,0-8-4.52,67.87,67.87,0,0,1,8,4.52c8.26,8.14,11.5,33.18,26.64,33.18a16.52,16.52,0,0,0,4.67-.72c1-.29,1.92-.72,2.9-1-1,.28-1.93.71-2.91,1a16.6,16.6,0,0,1-4.67.72m-86.74-2.65h0a23.31,23.31,0,0,0,4.87-.93,13.86,13.86,0,0,0,3.95-4.05,13.85,13.85,0,0,1-3.95,4.06,23.26,23.26,0,0,1-4.86.93m117.42-5.18h0c.08-.33.16-.66.24-1h0a16.66,16.66,0,0,1,.73-2.23h0a20.64,20.64,0,0,0-1,3.23m1.08-3.47.2-.43c.08-.17.17-.34.27-.52-.17.32-.33.63-.47.94M27.08,162.88l-.19-.13.19.13h0m44.06-2.34c.22-.72.4-1.49.57-2.35a20,20,0,0,0,3.89-1.24,20,20,0,0,1-3.89,1.24c-.17.86-.36,1.63-.57,2.35M186,155.2a8.94,8.94,0,0,0,1.29-4.72,20.33,20.33,0,0,0-.08-2.09A10.5,10.5,0,0,1,186,155.2M17.28,153.93a20.48,20.48,0,0,1-1-2.07,10.2,10.2,0,0,1-.46-1.37,10.16,10.16,0,0,0,.46,1.37,20.38,20.38,0,0,0,1,2.06m64.52-2.09c2.4-4.26,2.91-9.54,5.3-13.73-2.39,4.2-2.9,9.48-5.3,13.73M15.05,143a10.26,10.26,0,0,0-.82-2.93,7.34,7.34,0,0,0-1-1.56,7.87,7.87,0,0,1,.93,1.35l.1.2a10.3,10.3,0,0,1,.83,2.95M187.12,142q0-.18.08-.36a8.1,8.1,0,0,1,.53-1.52,11.42,11.42,0,0,1,2-2.69,11.6,11.6,0,0,0-2,2.69,8.21,8.21,0,0,0-.61,1.87M10.51,135c-1.46-3-1.13-6.7-.25-10.23h0c-.88,3.52-1.2,7.2.25,10.23M191.77,125c-.15-.63-.32-1.26-.5-1.87h0c.18.62.35,1.25.5,1.88M190,116.34l.06-.23c0-.11.07-.22.11-.32a8.7,8.7,0,0,1,1.85-2.57,7.81,7.81,0,0,0-2,2.9l-.06.22m-178.3-.93a14.79,14.79,0,0,0-2.28-2.86,16.07,16.07,0,0,1-3.79-10,16.08,16.08,0,0,0,3.79,10,14.56,14.56,0,0,1,2.27,2.86m180.93-2.86h0a16.37,16.37,0,0,0,3.49-13.69q-.12-.64-.3-1.26a16.41,16.41,0,0,1-3.19,15h0M6.88,95.7a26.38,26.38,0,0,0,2-4.84h0a26.26,26.26,0,0,1-2,4.84m186.17-5a4.56,4.56,0,0,1,.46-3.25,4.94,4.94,0,0,0-.39.94,4.87,4.87,0,0,0-.07,2.31m2.07-5.64.11-.18a15.15,15.15,0,0,0,2.16-7.17v0h0q0-.62,0-1.23a15.46,15.46,0,0,1-2.18,8.43l-.12.18M6,75.58H6a15,15,0,0,1,.7-1.81,27.46,27.46,0,0,1,5.06-7h0a38.24,38.24,0,0,0-3.1,3.72h0a22.64,22.64,0,0,0-1.33,2.09c-.23.41-.44.82-.63,1.24A15,15,0,0,0,6,75.58m191.34-.49a17.27,17.27,0,0,0-.7-3.41,17.24,17.24,0,0,1,.7,3.41h0M145.64,45.35h0a19.58,19.58,0,0,1,1.16-1.61c1-1.23,2-2.17,2.84-3.14h0c-.84,1-1.84,1.91-2.84,3.15-.4.5-.79,1-1.16,1.61m38.58-6.59h0c-.49-.93-1-1.88-1.53-2.83h0c.54,1,1,1.9,1.53,2.83M151.82,35c0-.19,0-.38,0-.58A38.31,38.31,0,0,1,151.7,30,9.63,9.63,0,0,1,153,26l-.06.1A9.62,9.62,0,0,0,151.7,30a37.19,37.19,0,0,0,.12,4.48q0,.3,0,.58h0m29.19-2c-.4-.64-.82-1.28-1.24-1.91h0q.64.94,1.24,1.91h0M162.39,20.45h0a15.1,15.1,0,0,1,1.69-.1l.78,0h0l-.78,0a15,15,0,0,0-1.69.09"/><path class="cls-8" d="M162.6,182.51c-2.4,0-4-1.54-5.46-3.09a10.85,10.85,0,0,0-3.5-2.76,4.55,4.55,0,0,0-1.7-.32h-.13a6.3,6.3,0,0,0-1.57.26c-1,.27-1.93.71-2.9,1a16.52,16.52,0,0,1-4.67.72c-15.14,0-18.38-25-26.64-33.18a67.87,67.87,0,0,0-8-4.52,21.09,21.09,0,0,0-4.67-2l-.11,0a11.85,11.85,0,0,1-6.18,1.69,12.46,12.46,0,0,1-9-3.77,14.47,14.47,0,0,0-1,1.54c-2.39,4.19-2.9,9.47-5.3,13.73a14.71,14.71,0,0,1-1.14,1.73,13.28,13.28,0,0,1-5,3.37,20,20,0,0,1-3.89,1.24c-.17.86-.36,1.63-.57,2.35-1,3.28-2.52,5.33-4.93,8.22-.49.59-1,1.25-1.47,1.93a13.86,13.86,0,0,1-3.95,4.05,23.31,23.31,0,0,1-4.87.93h-.12c-.09,0-.13,0-.13-.06s.1,0,.25,0a23.27,23.27,0,0,0,4.87-.93l.38-.23c-.29-2.55-1-5.05-2.77-6.71A6.43,6.43,0,0,0,54,166.13a7.21,7.21,0,0,0-4,1.17c-2.49,1.65-2.56,2.66-2.91,5.54a7.34,7.34,0,0,1-.88,2.55,32.72,32.72,0,0,0-2,3.67,3.72,3.72,0,0,0-.28,1.69l.12.55.7,0c4,0,7.81-2.33,10.82-5.77l0,0a17.15,17.15,0,0,1-7.47,5.22h0a10.74,10.74,0,0,1-9.31-1.32c-4-2.52-9-6.56-10.61-11.56,1.63,5,6.64,9,10.6,11.56l.67.39a21,21,0,0,0-2-9.65c-1.53-2.91-6.33-7.36-10.36-7.36h-.08l-.19-.13a6.28,6.28,0,0,0-.73-.38,20.08,20.08,0,0,1-8.88-8.44,20.38,20.38,0,0,1-1-2.06,10.16,10.16,0,0,1-.46-1.37c-.09-.35-.16-.69-.22-1a11.08,11.08,0,0,0,.68,2.4,20.38,20.38,0,0,0,1.23,2.48c3.69-2.28,5.91-7.67,5.35-11.85-.18-1.34-.57-2.73-.17-4,1.42-4.55,4.61-6.87-1.66-8.94a18.56,18.56,0,0,0-5.46-1,5.71,5.71,0,0,0-4.48,1.59,5.08,5.08,0,0,0-.75,4.44,8.72,8.72,0,0,0,.92,1.64c.9,1.26,2.14,2.26,2.85,3.64a7.87,7.87,0,0,0-.93-1.35c-.63-.76-1.35-1.47-1.93-2.28a8.63,8.63,0,0,1-.76-1.29c-1.45-3-1.13-6.71-.25-10.23a5.66,5.66,0,0,0,2.18,1.95,4.7,4.7,0,0,0,2,.45,6.68,6.68,0,0,0,4.85-2.32,13.66,13.66,0,0,0,2.85-7.25c.76-5.48-.15-11.45-3.58-15.67A13.66,13.66,0,0,0,8.46,97.33a10.78,10.78,0,0,0-1.74.14l-.52.09a16.41,16.41,0,0,0,3.17,15c1,1.11,2.13,2.13,2.56,3.56,0,.07,0,.15.06.23l-.06-.22a4.31,4.31,0,0,0-.29-.71,14.56,14.56,0,0,0-2.27-2.86,16.08,16.08,0,0,1-3.79-10A15.81,15.81,0,0,1,6.88,95.7h0a26.26,26.26,0,0,0,2-4.84,10.36,10.36,0,0,0,.94-2.44,17.73,17.73,0,0,0-1-10.4A3.65,3.65,0,0,0,6,75.58a15,15,0,0,1,.7-1.81c.2-.42.41-.84.63-1.24l-.19.36a2.43,2.43,0,0,0,1.41-1.45,2.12,2.12,0,0,0,.11-1,38.24,38.24,0,0,1,3.1-3.72,5.26,5.26,0,0,0,.69.41,4.7,4.7,0,0,0,2.05.46,6.7,6.7,0,0,0,4.85-2.32,10.66,10.66,0,0,0,2.06-3.72q-.48,4.14-.77,8.3a18.36,18.36,0,0,0-5-.82,5.71,5.71,0,0,0-4.48,1.59C8.77,73.35,11.45,78.2,12.4,81c.73,2.14-.25,7.75-1.27,9.73a6.17,6.17,0,0,0-1,2.27c-.11,1.59,1.49,2.64,3,2.86l.57,0h0a6.36,6.36,0,0,0,.69,0,8.66,8.66,0,0,0,6-4c0,.62.08,1.24.13,1.86a5.78,5.78,0,0,0-1.34,1.48l-.24.65a5.92,5.92,0,0,0,2,5.12l.31.16q.21,1.64.45,3.28c.65,4.38,1.49,9.39,2.73,14.43-1,2.66-2.39,5.2-2.39,8.16a1.81,1.81,0,0,0,.31,1.2,1.64,1.64,0,0,0,.83.45,14.82,14.82,0,0,1,3.8,1.22,6.92,6.92,0,0,1,1.63,1.55q.95,2.12,2.07,4.1a6.06,6.06,0,0,0-3.12-1.12A2.83,2.83,0,0,0,25,136.59a14.87,14.87,0,0,0-.88,7.58c.32,1.61,1.11,3.22.72,4.81a5.76,5.76,0,0,1-2.52,3.07,9.77,9.77,0,0,0-3,2.67l-.24.65a3.79,3.79,0,0,0,0,1.18,20.1,20.1,0,0,0,4.88,4.53h.73c2.69,0,5.95-.49,7.55-.55A38.42,38.42,0,0,0,35,155.38a10.17,10.17,0,0,0,.84-2.86c.18-2.26-1.45-3.9-1.65-6.19-.19-2.11.29-4,.15-5.76q.87,1,1.82,2a12.64,12.64,0,0,0-.31,1.63,4.82,4.82,0,0,0,.24,2.58,5.28,5.28,0,0,0,1.82,1.88,16.73,16.73,0,0,0,4.59,2.68l.35.1a6.31,6.31,0,0,0,1.66.24,4.56,4.56,0,0,0,4.22-2.75,24.1,24.1,0,0,0,2.46.2l.14.38c.08.22,1.74,5.07,1,5.07a.41.41,0,0,1-.22-.09l1.34.91,3.3,2.23a1.77,1.77,0,0,0,.76.35h.1a2,2,0,0,0,1.1-.51l.29-.22c.81-.61,1.63-1.22,2.43-1.86,2.42-2,4.61-4.17,5.41-7.42a14,14,0,0,0,.39-3.32c.83-.5,1.64-1.05,2.42-1.63a21,21,0,0,1-1.52,7.24,6.23,6.23,0,0,0-1,2.27c-.11,1.59,1.49,2.64,3,2.86l.57,0a7.15,7.15,0,0,0,.74,0c5.41-.58,9-7.68,8.35-12.9-.18-1.34-.57-2.73-.17-4,1.28-4.11,4-6.41-.1-8.34q.28-.77.5-1.56l.23.07a14.85,14.85,0,0,1,3.8,1.22c1.57,1,2.38,2.92,3.88,4a4.67,4.67,0,0,0,5.16.18c2.63-1.66,3.08-5.4,3.24-8.61.25-5,.44-10.34-1.88-14.74A17,17,0,0,0,87,104a13.87,13.87,0,0,1,6.21-1.31,7.52,7.52,0,0,0,3,4.61c.54.38,1.17.74,1.35,1.39a2.71,2.71,0,0,1,0,1.05,6.59,6.59,0,0,0,.5,4.1,3.14,3.14,0,0,0,1.7,1.4,2.48,2.48,0,0,0,.78.14,1.89,1.89,0,0,0,.94-.24c-.07-2.54.45-5.36,2.39-6.91a21.52,21.52,0,0,1,2.71-1.53,7.45,7.45,0,0,0,.9-.62q.9.35,1.79.73a7.13,7.13,0,0,0-2.23,1c-2.49,1.65-2.56,2.65-2.91,5.54a7.29,7.29,0,0,1-.88,2.55,32,32,0,0,0-2,3.68,3.7,3.7,0,0,0-.28,1.68,4.19,4.19,0,0,0,1,2.09c1.93,2.41,4.21,4,6,6.58,1.63,2.31,2.72,2.75,4.47,2.75.68,0,1.46-.07,2.41-.11h.24c.5,0,1.1.06,1.74.13s1.33.13,2,.13c1.53,0,3-.34,3.49-1.8.6-1.63-1-3.12-2-4.51-1.87-2.58-2-6.05-2.11-9.29a19.46,19.46,0,0,0-1.06-6.08,34.72,34.72,0,0,1,4,3.1,7,7,0,0,1,.4,1.17c.48,2.08.58,4.25,1.14,6.31s1.69,4.1,3.54,5a4.7,4.7,0,0,0,2.05.45,5.68,5.68,0,0,0,.78-.06q.25.74.49,1.5h-.18a5.71,5.71,0,0,0-4.48,1.59c-2.33,2.74.35,7.58,1.31,10.37.73,2.14-.25,7.74-1.27,9.73a6.22,6.22,0,0,0-1,2.27c-.11,1.59,1.49,2.64,3,2.86l.57,0a7.15,7.15,0,0,0,.74,0c4.46-.48,7.72-5.4,8.33-10l.11.14a28.24,28.24,0,0,0,1.94,2.19,4,4,0,0,1-.09,1.31,5.76,5.76,0,0,1-2.52,3.07,9.77,9.77,0,0,0-3,2.67l-.25.65a5.92,5.92,0,0,0,2,5.12,5.68,5.68,0,0,0,2.46.58c.35,0,.72,0,1.09,0,2.69,0,5.95-.49,7.55-.55a38.32,38.32,0,0,0,2.77-5.18,15.71,15.71,0,0,0,.56-1.54,16,16,0,0,0,2.24.32,3.83,3.83,0,0,0-2.31,2.37,4,4,0,0,0,.71,3.67,7.61,7.61,0,0,0,3.1,6.61c.54.37,1.17.74,1.35,1.39a2.71,2.71,0,0,1,0,1.05,6.59,6.59,0,0,0,.5,4.09,3.15,3.15,0,0,0,1.7,1.41,2.47,2.47,0,0,0,.78.13,1.91,1.91,0,0,0,.94-.24c-.07-2.55.45-5.37,2.39-6.91a21.51,21.51,0,0,1,2.71-1.53,7.2,7.2,0,0,0,3.65-5.7,5.19,5.19,0,0,0-3.33-5.14l-.42-.11a4.82,4.82,0,0,0-.8-.06,11.09,11.09,0,0,0-1.67.17,12.3,12.3,0,0,1-1.85.19h-.37a6.17,6.17,0,0,1-1-.18c-.33-.09-.65-.19-1-.31-.88-.32-1.75-.71-2.62-.93a15.86,15.86,0,0,0,5-1.26,25.21,25.21,0,0,0,6-3.65l.1.27c.08.22,1.74,5.07,1,5.07a.41.41,0,0,1-.22-.09l1.34.91,3.3,2.23a1.78,1.78,0,0,0,.76.35h.1a2,2,0,0,0,1.1-.51l.29-.22c.81-.61,1.63-1.22,2.43-1.86,2.42-2,4.61-4.17,5.41-7.42a17.75,17.75,0,0,0-1-10.4c-.79-2.16-2.62-2.63-4.64-2.63h-.38c.26-.72.51-1.45.75-2.19h.49c1.53,0,3-.34,3.49-1.8.6-1.63-1-3.12-2-4.51-.09-.13-.18-.26-.27-.39a102.92,102.92,0,0,0,1.53-10.44c.43,2,.55,4.08,1.08,6.05s1.69,4.1,3.54,5a4.7,4.7,0,0,0,2.05.45,6.68,6.68,0,0,0,4.85-2.32,9.23,9.23,0,0,0,1.16-1.66c.18.62.35,1.24.5,1.87.95,4,1.16,8.08-1.09,11.23a13.79,13.79,0,0,1-.94,1.15,11.42,11.42,0,0,0-2,2.69,8.1,8.1,0,0,0-.53,1.52,8.12,8.12,0,0,1,.53-1.53c.69-1.48,2-2.52,3-3.84a10.49,10.49,0,0,0,1.76-6.5l-.63-.22a18.56,18.56,0,0,0-5.46-1,5.71,5.71,0,0,0-4.48,1.59c-2.33,2.74.35,7.58,1.31,10.37.73,2.14-.25,7.74-1.27,9.73a6.25,6.25,0,0,0-1,2.27c-.11,1.59,1.49,2.64,3,2.86l.57,0a7.16,7.16,0,0,0,.74,0l.68-.11a8.93,8.93,0,0,0,1.34-4.79A8.94,8.94,0,0,1,186,155.2a9.55,9.55,0,0,1-1.08,1.41c-2.85,3.12-6.76,4.67-9.31,8.26a12.74,12.74,0,0,0-.75,1.19c-.1.17-.18.34-.27.52a12,12,0,0,1,1-1.72c2.23-3.15,5.51-4.72,8.21-7.17a14,14,0,0,0-4.63-.83,10.69,10.69,0,0,0-1.73.14c-1.71.28-4.56.92-5.27,2.49a4.84,4.84,0,0,0,0,3.45,20.59,20.59,0,0,0,2.09,4.3,16.66,16.66,0,0,0-.73,2.23,7.07,7.07,0,0,0-1.33-1.7,6.42,6.42,0,0,0-4.39-1.65,7.2,7.2,0,0,0-3.95,1.17c-2.49,1.65-2.56,2.66-2.91,5.54a7.32,7.32,0,0,1-.88,2.55,32.72,32.72,0,0,0-2,3.67,4.52,4.52,0,0,0-.27,1.12,6.62,6.62,0,0,0,4.7,2.32h0c4.14,0,8.28-4.51,9.66-8.29a32,32,0,0,0,1-3.75h0a31.71,31.71,0,0,1-1,3.74,14.13,14.13,0,0,1-2.22,3.85c-1.94,2.44-4.69,4.41-7.44,4.44h0M141,162.87a4.63,4.63,0,0,0-2.11.48c-2.84,1.42-.55,6.2.1,10.2a7.41,7.41,0,0,1-.06,3.33c-.08.26-.17.52-.26.78a12.5,12.5,0,0,0,4,.64,16.56,16.56,0,0,0,4.67-.72c1.49-.44,2.93-1.22,4.48-1.26h.12a4.54,4.54,0,0,1,1.25.17,17.7,17.7,0,0,0-1.81-6.26c-1.53-2.91-6.33-7.37-10.36-7.37m-18-6c3.48,7.53,7.07,15.93,13.07,19.57.6-5.3-.36-11-3.65-15a13.6,13.6,0,0,0-9.42-4.52M38.92,154a3.75,3.75,0,0,0-.78.08,3.61,3.61,0,0,0-2.06,1.32,3.67,3.67,0,0,0-.63,1.16,4,4,0,0,0,.71,3.67,7.61,7.61,0,0,0,3.1,6.61c.54.37,1.17.74,1.35,1.39a2.71,2.71,0,0,1,0,1.05,6.59,6.59,0,0,0,.5,4.09,3.14,3.14,0,0,0,1.7,1.41,2.47,2.47,0,0,0,.78.13,1.92,1.92,0,0,0,.94-.24c-.07-2.55.45-5.37,2.39-6.91a21.41,21.41,0,0,1,2.71-1.53,7.2,7.2,0,0,0,3.65-5.7,5.19,5.19,0,0,0-3.33-5.14l-.42-.11a4.84,4.84,0,0,0-.8-.06,11.08,11.08,0,0,0-1.67.17,12.31,12.31,0,0,1-1.85.19h-.37a6.16,6.16,0,0,1-1-.18c-.33-.09-.65-.19-1-.31A12.15,12.15,0,0,0,38.92,154m26.47,2.89a10.76,10.76,0,0,0-1.73.14c-1.71.28-4.56.92-5.27,2.49a4.83,4.83,0,0,0,0,3.45c.92,3,3.57,6.45,5.15,9.3.95-1.16,1.8-2.45,2.67-3.5,2.88-3.46,4.51-5.73,5.45-10.35a14.34,14.34,0,0,0-6.28-1.53m19.24-22.49a2.83,2.83,0,0,0-2.73,2.21,14.87,14.87,0,0,0-.88,7.58c.32,1.61,1.11,3.22.72,4.81a5.76,5.76,0,0,1-2.52,3.07,9.78,9.78,0,0,0-3,2.67l-.24.65a4,4,0,0,0,0,1.38,19.21,19.21,0,0,0,2.57-1.38,8.59,8.59,0,0,0,2.1-1.82c3.82-5,3.74-12.07,7.45-17a11.94,11.94,0,0,0,2.65,2.08,5.61,5.61,0,0,0-1.1-1.58c-1.29-1.32-3.3-2.68-5-2.68m33.42.56c-1.5,0-3.11.26-4.46.27a5.2,5.2,0,0,0-2.15.31,7.11,7.11,0,0,0-3.81,4.86,70.78,70.78,0,0,1,8.4,4.74,29.47,29.47,0,0,1,5,7.66,11.24,11.24,0,0,0,2.61-4.82,17.73,17.73,0,0,0-1-10.4c-.79-2.16-2.62-2.63-4.64-2.63m-17.76-8.47a3.24,3.24,0,0,0-.55,0c-3.68.59-3.42,7.43-4.4,10-.44,1.16-.94,2.26-1.39,3.38a12.82,12.82,0,0,0,3.16.4,12.33,12.33,0,0,0,2.63-.28,11.44,11.44,0,0,0,3.55-1.4l.11,0a8,8,0,0,1,2.11.75c.75-2.1,3.41-3.49,2.75-6.07-.26-1-2.42-3.24-4.42-4.88a9,9,0,0,0-3.13-1.94l-.43,0m89.85-10.67a12,12,0,0,1,2.45-3.24l.53-.66a18.22,18.22,0,0,0-3.73-10,13.63,13.63,0,0,0-9.72-4.54q.13-3.4.17-6.78a10.33,10.33,0,0,0,.78-2.13,17.47,17.47,0,0,0-.84-9.95c-.11-5.31-.3-10.62-.51-15.95q-.06-1.61-.15-3.23a24.85,24.85,0,0,0,.55,2.84c.56,2.06,1.69,4.1,3.54,5a4.71,4.71,0,0,0,2.05.46,6.71,6.71,0,0,0,4.85-2.32A9.22,9.22,0,0,0,191,64a12.21,12.21,0,0,1,2.1,1.7,10.23,10.23,0,0,0-.15,1.73,1.82,1.82,0,0,0,.31,1.2,1.64,1.64,0,0,0,.83.45c.54.16,1.11.28,1.66.42a16.27,16.27,0,0,1,.85,2.16,17.27,17.27,0,0,1,.7,3.41,3.22,3.22,0,0,0-1.57,2,14.89,14.89,0,0,0-.88,7.58l.14.61.22-.34a15.14,15.14,0,0,0,2.15-7.16,15.15,15.15,0,0,1-2.16,7.17l-.11.18c-.52.8-1.17,1.55-1.61,2.39a4.56,4.56,0,0,0-.46,3.25,8.86,8.86,0,0,0,.43,1.47l-.41.3a9.73,9.73,0,0,0-3,2.67l-.25.65a5.92,5.92,0,0,0,2,5.12,5.68,5.68,0,0,0,2.46.58c.34,0,.7,0,1.08,0l1,0a16.31,16.31,0,0,0-.29-2.69,16.37,16.37,0,0,1-3.49,13.69h0l-.61.67a8.7,8.7,0,0,0-1.85,2.57m6.17-12.18-.46.2c-1.7.86-1.56,2.92-1,5.3a16.62,16.62,0,0,0,1.49-5.49M186.35,69a5.71,5.71,0,0,0-4.48,1.59c-2.33,2.74.35,7.58,1.31,10.37.73,2.14-.25,7.75-1.27,9.73a6.18,6.18,0,0,0-1,2.27c-.11,1.59,1.49,2.64,3,2.86l.57,0h0a6.32,6.32,0,0,0,.69,0c5.41-.58,9-7.68,8.35-12.9-.18-1.34-.57-2.73-.17-4,1.42-4.55,4.61-6.88-1.66-8.94a18.57,18.57,0,0,0-5.46-1m11,8.71h0M136.13,57.26a26.74,26.74,0,0,0,.15-2.9c.82-.36,1.66-.71,2.48-1.14.1.43.18.86.25,1.27a10.07,10.07,0,0,1,.15,2.1,28.53,28.53,0,0,1-3,.67m14.95-6.62a17.84,17.84,0,0,0-5.43-5.29c.37-.57.75-1.11,1.16-1.61,1-1.23,2-2.17,2.84-3.15l.37.55a7.61,7.61,0,0,0,3.1,6.62c.2.14.42.28.62.44a27.58,27.58,0,0,1-2.66,2.44m33.15-11.87a14.11,14.11,0,0,0-5-1,10.59,10.59,0,0,0-1.72.14,17.13,17.13,0,0,0-2.34.53c-.23-.51-.48-1-.76-1.52l.8-.63a16.4,16.4,0,0,0,4.55-5.14c.43.63.84,1.27,1.24,1.91l-.06.38a2.62,2.62,0,0,0,1.75,2.47c.54,1,1,1.9,1.53,2.83M159.06,36.5h-.38a6.17,6.17,0,0,1-1-.18,9.87,9.87,0,0,1-1-.31,12.14,12.14,0,0,0-3.88-1.09A3.76,3.76,0,0,0,152,35l-.17,0q0-.28,0-.58A37.19,37.19,0,0,1,151.7,30a9.62,9.62,0,0,1,1.22-3.88,9.59,9.59,0,0,0-1.17,3.51,16.59,16.59,0,0,0,4.55,2.65l.35.1a6.31,6.31,0,0,0,1.66.24c3.66,0,5.49-3.77,4.76-7.72-.29-1.58-1.13-2.43-.77-4.15l.08-.29a15,15,0,0,1,1.69-.09l.78,0a12.73,12.73,0,0,0-.76,4.67,15.85,15.85,0,0,0,1,5.38,33.55,33.55,0,0,1,1,3.56,16.8,16.8,0,0,0-2.42,2.31l-.39-.09a4.54,4.54,0,0,0-.8-.07,11.08,11.08,0,0,0-1.67.17,12.11,12.11,0,0,1-1.83.19"/><path class="cls-9" d="M182.7,35.93h0a2.62,2.62,0,0,1-1.75-2.47l.06-.38h0c.59.95,1.15,1.9,1.69,2.86"/><path class="cls-9" d="M174.41,36.94c-1.25-2.27-3-4.22-5.11-4.22a4.18,4.18,0,0,0-1.93.51,8.67,8.67,0,0,0-1.2.76,33.55,33.55,0,0,0-1-3.56,15.85,15.85,0,0,1-1-5.38,12.73,12.73,0,0,1,.76-4.67h0a12.47,12.47,0,0,1,4.51,1.06c4.19,1.92,7.59,5.61,10.39,9.73h0a16.4,16.4,0,0,1-4.55,5.14l-.8.63"/><path class="cls-9" d="M185.27,67.59a4.71,4.71,0,0,1-2.05-.46c-1.86-.89-3-2.94-3.54-5a24.85,24.85,0,0,1-.55-2.84,72.87,72.87,0,0,0-2.7-17.5,29.15,29.15,0,0,0-1.25-3.34,17.13,17.13,0,0,1,2.34-.53,10.59,10.59,0,0,1,1.72-.14,14.11,14.11,0,0,1,5,1h0l.7,1.36c4.16,8.16,4.21,12,4.11,20.64a3.73,3.73,0,0,0,.31,1.88,4,4,0,0,0,1.52,1.28l.16.1a9.22,9.22,0,0,1-.91,1.25,6.71,6.71,0,0,1-4.85,2.32"/><path class="cls-9" d="M184.61,95.89h0l-.57,0c-1.56-.22-3.16-1.27-3-2.86a6.18,6.18,0,0,1,1-2.27c1-2,2-7.59,1.27-9.73-1-2.78-3.63-7.63-1.31-10.37A5.71,5.71,0,0,1,186.35,69a18.57,18.57,0,0,1,5.46,1c6.28,2.06,3.08,4.39,1.66,8.94-.4,1.29,0,2.68.17,4,.7,5.22-2.94,12.31-8.35,12.9a6.32,6.32,0,0,1-.69,0"/><path class="cls-9" d="M195.77,69.51c-.56-.14-1.12-.25-1.66-.42a1.64,1.64,0,0,1-.83-.45,1.82,1.82,0,0,1-.31-1.2,10.23,10.23,0,0,1,.15-1.73,14.07,14.07,0,0,1,2.65,3.8"/><path class="cls-9" d="M195,85.25l-.14-.61a14.89,14.89,0,0,1,.88-7.58,3.22,3.22,0,0,1,1.57-2h0c0,.47.08.93.09,1.4s0,.82,0,1.23h0v0a15.14,15.14,0,0,1-2.15,7.16l-.22.34"/><path class="cls-9" d="M195.4,101.57c-.37,0-.73,0-1.08,0a5.68,5.68,0,0,1-2.46-.58,5.92,5.92,0,0,1-2-5.12l.25-.65a9.73,9.73,0,0,1,3-2.67l.41-.3c.45,1.18,1.1,2.34,1.6,3.48a14.87,14.87,0,0,1,.69,1.9q.18.62.3,1.26a16.31,16.31,0,0,1,.29,2.69l-1,0"/><path class="cls-9" d="M185.27,127.13a4.7,4.7,0,0,1-2.05-.45c-1.86-.9-3-2.93-3.54-5s-.65-4-1.08-6.05c.59-5.94.79-11.77,1-16.86,0-.47,0-1,.06-1.42a13.63,13.63,0,0,1,9.72,4.54,18.22,18.22,0,0,1,3.73,10l-.53.66a12,12,0,0,0-2.45,3.24c0,.1-.08.21-.11.32l-.06.23a8.74,8.74,0,0,0,.66,4.74c.23.67.45,1.36.65,2.06h0a9.23,9.23,0,0,1-1.16,1.66,6.68,6.68,0,0,1-4.85,2.32"/><path class="cls-9" d="M175.82,132.77h-.49a65.32,65.32,0,0,0,1.72-6.69c.08.13.17.27.27.39,1,1.39,2.59,2.89,2,4.51-.54,1.46-2,1.8-3.49,1.8"/><path class="cls-9" d="M184.56,155.42l-.57,0c-1.56-.22-3.16-1.27-3-2.86a6.25,6.25,0,0,1,1-2.27c1-2,2-7.59,1.27-9.73-1-2.78-3.63-7.63-1.31-10.37a5.71,5.71,0,0,1,4.48-1.59,18.56,18.56,0,0,1,5.46,1l.63.22a10.49,10.49,0,0,1-1.76,6.5c-.94,1.32-2.26,2.36-3,3.84a8.12,8.12,0,0,0-.53,1.53q0,.18-.08.36a23,23,0,0,0,.12,6.44,20.33,20.33,0,0,1,.08,2.09,8.93,8.93,0,0,1-1.34,4.79l-.68.11a7.16,7.16,0,0,1-.74,0"/><path class="cls-9" d="M194.81,109.11c-.53-2.37-.67-4.44,1-5.3l.46-.2a16.62,16.62,0,0,1-1.49,5.49"/><path class="cls-9" d="M171.39,158h-.1a1.78,1.78,0,0,1-.76-.35l-3.3-2.23-1.34-.91a.41.41,0,0,0,.22.09c.77,0-.88-4.85-1-5.07l-.1-.27c4.45-3.64,7.48-8.64,9.55-14.29H175c2,0,3.85.47,4.64,2.63a17.75,17.75,0,0,1,1,10.4c-.8,3.25-3,5.47-5.41,7.42-.8.64-1.62,1.25-2.43,1.86l-.29.22a2,2,0,0,1-1.1.51"/><path class="cls-9" d="M179.84,90.56c.05-4,0-8.05-.06-12.08a17.47,17.47,0,0,1,.84,9.95,10.33,10.33,0,0,1-.78,2.13"/><path class="cls-9" d="M174.33,167.25h0a20.59,20.59,0,0,1-2.09-4.3,4.84,4.84,0,0,1,0-3.45c.72-1.57,3.56-2.21,5.27-2.49a10.69,10.69,0,0,1,1.73-.14,14,14,0,0,1,4.63.83c-2.69,2.44-6,4-8.21,7.17a12,12,0,0,0-1,1.72l-.2.43-.1.24"/><path class="cls-9" d="M162.61,182.5a6.62,6.62,0,0,1-4.7-2.32,4.52,4.52,0,0,1,.27-1.12,32.72,32.72,0,0,1,2-3.67,7.32,7.32,0,0,0,.88-2.55c.34-2.88.41-3.88,2.91-5.54a7.2,7.2,0,0,1,3.95-1.17,6.42,6.42,0,0,1,4.39,1.65,7.07,7.07,0,0,1,1.33,1.7h0c-.09.33-.17.66-.24,1a32,32,0,0,1-1,3.75c-1.38,3.77-5.52,8.25-9.66,8.29h0"/><path class="cls-9" d="M157.44,174.9a2.47,2.47,0,0,1-.78-.13,3.15,3.15,0,0,1-1.7-1.41,6.59,6.59,0,0,1-.5-4.09,2.71,2.71,0,0,0,0-1.05c-.17-.65-.81-1-1.35-1.39a7.61,7.61,0,0,1-3.1-6.61,4,4,0,0,1-.71-3.67,3.83,3.83,0,0,1,2.31-2.37c.37,0,.74,0,1.11,0s.87,0,1.31-.06c.87.22,1.74.61,2.62.93.32.12.65.22,1,.31a6.17,6.17,0,0,0,1,.18H159a12.3,12.3,0,0,0,1.85-.19,11.09,11.09,0,0,1,1.67-.17,4.82,4.82,0,0,1,.8.06l.42.11a5.19,5.19,0,0,1,3.33,5.14,7.2,7.2,0,0,1-3.65,5.7,21.51,21.51,0,0,0-2.71,1.53c-1.94,1.54-2.46,4.37-2.39,6.91a1.91,1.91,0,0,1-.94.24"/><path class="cls-9" d="M158.32,32.6a6.31,6.31,0,0,1-1.66-.24l-.35-.1a16.59,16.59,0,0,1-4.55-2.65,9.59,9.59,0,0,1,1.17-3.51L153,26c1.91-3.24,5.62-5.12,9.41-5.55h0l-.08.29c-.37,1.71.47,2.56.77,4.15.73,3.94-1.1,7.72-4.76,7.72"/><path class="cls-9" d="M153.74,48.2c-.2-.16-.42-.3-.62-.44a7.61,7.61,0,0,1-3.1-6.62l-.37-.55h0A8,8,0,0,0,151.82,35h0l.17,0a3.76,3.76,0,0,1,.78-.08A12.14,12.14,0,0,1,156.66,36a9.87,9.87,0,0,0,1,.31,6.17,6.17,0,0,0,1,.18h.38a12.11,12.11,0,0,0,1.83-.19,11.08,11.08,0,0,1,1.67-.17,4.54,4.54,0,0,1,.8.07l.39.09c-1.34,1.51-2.56,3.21-3.68,4.51-2,2.36-4.07,5.05-6.33,7.38"/><path class="cls-9" d="M132.76,57.54c-.39,0-.77,0-1.15,0a10.83,10.83,0,0,1,4.67-3.15,26.74,26.74,0,0,1-.15,2.9,21.33,21.33,0,0,1-3.37.28"/><path class="cls-9" d="M139.16,56.59a10.07,10.07,0,0,0-.15-2.1c-.07-.42-.16-.84-.25-1.27a10.89,10.89,0,0,0,2.89-2.09,38.92,38.92,0,0,0,4-5.77h0a17.84,17.84,0,0,1,5.43,5.29q-.37.3-.76.57a36.82,36.82,0,0,1-11.16,5.38"/><path class="cls-9" d="M128.34,127.13a4.7,4.7,0,0,1-2.05-.45c-1.86-.9-3-2.93-3.54-5s-.66-4.23-1.14-6.31a7,7,0,0,0-.4-1.17,25.87,25.87,0,0,1,3.74,4.18,33.4,33.4,0,0,1,4.17,8.7,5.68,5.68,0,0,1-.78.06"/><path class="cls-8" d="M80.92,120.25a37.11,37.11,0,0,1,.57-8.91c.23.9.45,1.81.59,2.68a7.41,7.41,0,0,1-.06,3.33c-.31,1-.7,1.94-1.1,2.89"/><path class="cls-7" d="M8.58,87.74a9.1,9.1,0,0,0-.86-1.4,8.94,8.94,0,0,1,.86,1.4m-3-5.88a11.61,11.61,0,0,1-.18-3,12.21,12.21,0,0,0,0,1.68h0a10.85,10.85,0,0,0,.17,1.27"/><path class="cls-8" d="M9,88.9a4.55,4.55,0,0,0-.11-.46,4.8,4.8,0,0,0-.26-.69,8.94,8.94,0,0,0-.86-1.4c-.34-.47-.69-.93-1-1.42a9.18,9.18,0,0,1-1.18-3.06,10.85,10.85,0,0,1-.17-1.27,9.56,9.56,0,0,0,1.35,4.33c.72,1.17,1.73,2.18,2.12,3.51A4.51,4.51,0,0,1,9,88.9M5.37,80.58h0"/><polyline class="cls-7" points="5.37 78.85 5.37 78.84 5.37 78.85"/><path class="cls-8" d="M13.63,64.73a26.47,26.47,0,0,1-1.84-7.2,26.49,26.49,0,0,0,1.84,7.2h0"/><path class="cls-7" d="M17.49,41.18h0l.1-.16c.56-.85,1.09-1.76,1.59-2.7h0c-.24.46-.49.91-.75,1.35s-.55.92-.84,1.36l-.1.15"/><path class="cls-8" d="M22.42,53.95A18.91,18.91,0,0,0,18.6,42.34a10,10,0,0,0-1.11-1.16l.1-.15c.29-.44.57-.89.84-1.36s.51-.89.75-1.35a5.49,5.49,0,0,0,1.9,3.11,5.63,5.63,0,0,0,2.46.58c.35,0,.72,0,1.1,0h.16q-.41,1.6-.77,3.2A3.58,3.58,0,0,0,23.67,47c-.49,2.37-.89,4.72-1.24,7"/><path class="cls-7" d="M21.62,33.45l.33-.66-.33.66h0m1.14-2.22a31.41,31.41,0,0,1,2-3.33h0c-.31.43-.6.88-.89,1.34-.39.63-.77,1.3-1.14,2"/><path class="cls-8" d="M21.62,33.45l.33-.66c.27-.52.53-1,.81-1.55.37-.68.75-1.35,1.14-2,.29-.46.58-.91.89-1.34h0a4.63,4.63,0,0,1,0,2A5.77,5.77,0,0,1,22.29,33l-.67.47"/><path class="cls-9" d="M118.9,132.77c-.67,0-1.35-.06-2-.13s-1.25-.13-1.74-.13h-.24c-1,0-1.73.11-2.41.11-1.75,0-2.85-.44-4.47-2.75-1.8-2.55-4.08-4.16-6-6.58a4.19,4.19,0,0,1-1-2.09,3.7,3.7,0,0,1,.28-1.68,32,32,0,0,1,2-3.68,7.29,7.29,0,0,0,.88-2.55c.34-2.88.41-3.88,2.91-5.54a7.13,7.13,0,0,1,2.23-1,49.15,49.15,0,0,1,8,4.29,19.46,19.46,0,0,1,1.06,6.08c.16,3.23.25,6.71,2.11,9.29,1,1.39,2.59,2.89,2,4.51-.54,1.46-2,1.8-3.49,1.8"/><path class="cls-9" d="M127.63,155.42l-.57,0c-1.56-.22-3.16-1.27-3-2.86a6.22,6.22,0,0,1,1-2.27c1-2,2-7.59,1.27-9.73-1-2.78-3.63-7.63-1.31-10.37a5.71,5.71,0,0,1,4.48-1.59h.18c1.86,5.82,3.24,11.86,7.09,16.78-.61,4.64-3.87,9.55-8.33,10a7.15,7.15,0,0,1-.74,0"/><path class="cls-9" d="M121.07,152.78a29.47,29.47,0,0,0-5-7.66,70.78,70.78,0,0,0-8.4-4.74,7.11,7.11,0,0,1,3.81-4.86,5.2,5.2,0,0,1,2.15-.31c1.35,0,3-.27,4.46-.27,2,0,3.85.47,4.64,2.63a17.73,17.73,0,0,1,1,10.4,11.24,11.24,0,0,1-2.61,4.82"/><path class="cls-9" d="M97.1,140.33a12.82,12.82,0,0,1-3.16-.4c.45-1.12,1-2.23,1.39-3.38,1-2.6.72-9.44,4.4-10a3.24,3.24,0,0,1,.55,0l.43,0a9,9,0,0,1,3.13,1.94c2,1.64,4.16,3.87,4.42,4.88.66,2.58-2,4-2.75,6.07a8,8,0,0,0-2.11-.75l-.11,0a11.44,11.44,0,0,1-3.55,1.4,12.33,12.33,0,0,1-2.63.28"/><path class="cls-9" d="M136.11,176.46c-6-3.64-9.59-12-13.07-19.57a13.6,13.6,0,0,1,9.42,4.52c3.3,4.06,4.26,9.75,3.65,15"/><path class="cls-9" d="M142.68,178.3a12.5,12.5,0,0,1-4-.64c.09-.25.18-.52.26-.78a7.41,7.41,0,0,0,.06-3.33c-.65-4-2.94-8.78-.1-10.2a4.63,4.63,0,0,1,2.11-.48c4,0,8.83,4.46,10.36,7.37a17.7,17.7,0,0,1,1.81,6.26,4.54,4.54,0,0,0-1.25-.17h-.12c-1.55,0-3,.82-4.48,1.26a16.56,16.56,0,0,1-4.67.72"/><path class="cls-9" d="M138.49,161.11c-.38,0-.74,0-1.09,0a5.68,5.68,0,0,1-2.46-.58,5.92,5.92,0,0,1-2-5.12l.25-.65a9.77,9.77,0,0,1,3-2.67,5.76,5.76,0,0,0,2.52-3.07,4,4,0,0,0,.09-1.31,21.48,21.48,0,0,0,10.62,6.17,15.71,15.71,0,0,1-.56,1.54,38.32,38.32,0,0,1-2.77,5.18c-1.6.06-4.87.55-7.55.55"/><path class="cls-9" d="M100.51,115.36a2.48,2.48,0,0,1-.78-.14,3.14,3.14,0,0,1-1.7-1.4,6.59,6.59,0,0,1-.5-4.1,2.71,2.71,0,0,0,0-1.05c-.17-.65-.81-1-1.35-1.39a7.52,7.52,0,0,1-3-4.61h0a24.35,24.35,0,0,1,5.48.68,64.82,64.82,0,0,1,8.72,2.7,7.45,7.45,0,0,1-.9.62,21.52,21.52,0,0,0-2.71,1.53c-1.94,1.54-2.46,4.36-2.39,6.91a1.89,1.89,0,0,1-.94.24"/><path class="cls-9" d="M70.71,155.42l-.57,0c-1.56-.22-3.16-1.27-3-2.86a6.23,6.23,0,0,1,1-2.27A21,21,0,0,0,69.58,143a28.28,28.28,0,0,0,9.94-12.89c4.12,1.93,1.39,4.22.1,8.34-.4,1.29,0,2.68.17,4,.7,5.22-2.94,12.32-8.35,12.9a7.15,7.15,0,0,1-.74,0"/><path class="cls-9" d="M90.65,134.74a4.62,4.62,0,0,1-2.72-.87c-1.5-1.1-2.31-3-3.88-4a14.85,14.85,0,0,0-3.8-1.22l-.23-.07a22.57,22.57,0,0,0,.75-3.88,41.74,41.74,0,0,0,.15-4.43c.4-1,.79-1.91,1.1-2.89a7.41,7.41,0,0,0,.06-3.33c-.14-.87-.36-1.78-.59-2.68a13.37,13.37,0,0,1,.74-2.21A10,10,0,0,1,87,104a17,17,0,0,1,7.44,6.7c2.32,4.4,2.13,9.72,1.88,14.74-.16,3.21-.6,6.95-3.24,8.61a4.57,4.57,0,0,1-2.44.69"/><path class="cls-9" d="M57.53,158h-.1a1.77,1.77,0,0,1-.76-.35l-3.3-2.23L52,154.48a.41.41,0,0,0,.22.09c.77,0-.89-4.85-1-5.07l-.14-.38h.74a29.88,29.88,0,0,0,15.26-4.49,14,14,0,0,1-.39,3.32c-.8,3.25-3,5.47-5.41,7.42-.8.64-1.62,1.25-2.43,1.86l-.29.22a2,2,0,0,1-1.1.51"/><path class="cls-9" d="M44.46,151.67a6.31,6.31,0,0,1-1.66-.24l-.35-.1a16.73,16.73,0,0,1-4.59-2.68A5.28,5.28,0,0,1,36,146.77a4.82,4.82,0,0,1-.24-2.58,12.64,12.64,0,0,1,.31-1.63,22.55,22.55,0,0,0,8,5.22,21.06,21.06,0,0,0,4.55,1.14,4.56,4.56,0,0,1-4.22,2.75"/><path class="cls-9" d="M76,156.76a4,4,0,0,1,0-1.38l.24-.65a9.78,9.78,0,0,1,3-2.67A5.76,5.76,0,0,0,81.74,149c.39-1.59-.4-3.2-.72-4.81a14.87,14.87,0,0,1,.88-7.58,2.83,2.83,0,0,1,2.73-2.21c1.72,0,3.73,1.36,5,2.68a5.61,5.61,0,0,1,1.1,1.58,11.94,11.94,0,0,1-2.65-2.08c-3.71,4.93-3.63,12-7.45,17a8.59,8.59,0,0,1-2.1,1.82A19.21,19.21,0,0,1,76,156.76"/><path class="cls-9" d="M63.54,172.25c-1.58-2.85-4.24-6.32-5.15-9.3a4.83,4.83,0,0,1,0-3.45c.72-1.57,3.56-2.21,5.27-2.49a10.76,10.76,0,0,1,1.73-.14,14.34,14.34,0,0,1,6.28,1.53c-.94,4.62-2.57,6.88-5.45,10.35-.87,1.05-1.73,2.34-2.67,3.5"/><path class="cls-9" d="M44.88,181.32l-.7,0-.12-.55a3.72,3.72,0,0,1,.28-1.69,32.72,32.72,0,0,1,2-3.67,7.34,7.34,0,0,0,.88-2.55c.34-2.88.41-3.88,2.91-5.54a7.21,7.21,0,0,1,4-1.17,6.43,6.43,0,0,1,4.39,1.65c1.79,1.66,2.48,4.17,2.77,6.71l-.38.23a23.27,23.27,0,0,1-4.87.93c-.15,0-.24,0-.25,0l0,0,0,0,0,0c-3,3.44-6.81,5.77-10.82,5.77"/><path class="cls-9" d="M43.58,174.9a2.47,2.47,0,0,1-.78-.13,3.14,3.14,0,0,1-1.7-1.41,6.59,6.59,0,0,1-.5-4.09,2.71,2.71,0,0,0,0-1.05c-.17-.65-.81-1-1.35-1.39a7.61,7.61,0,0,1-3.1-6.61,4,4,0,0,1-.71-3.67,3.67,3.67,0,0,1,.63-1.16,3.61,3.61,0,0,1,2.06-1.32,3.75,3.75,0,0,1,.78-.08,12.15,12.15,0,0,1,3.88,1.09c.32.12.65.22,1,.31a6.16,6.16,0,0,0,1,.18h.37a12.31,12.31,0,0,0,1.85-.19,11.08,11.08,0,0,1,1.67-.17,4.84,4.84,0,0,1,.8.06l.42.11a5.19,5.19,0,0,1,3.33,5.14,7.2,7.2,0,0,1-3.65,5.7,21.41,21.41,0,0,0-2.71,1.53c-1.94,1.54-2.46,4.37-2.39,6.91a1.92,1.92,0,0,1-.94.24"/><path class="cls-9" d="M14.48,67.59a4.7,4.7,0,0,1-2.05-.46,5.26,5.26,0,0,1-.69-.41h0c.63-.67,1.26-1.33,1.9-2h0a26.49,26.49,0,0,1-1.84-7.2c-.54-5.9,1.8-10.44,5.69-16.35h0a10,10,0,0,1,1.11,1.16,18.91,18.91,0,0,1,3.82,11.61q-.25,1.6-.46,3.14-.31,2.22-.57,4.46a10.66,10.66,0,0,1-2.06,3.72,6.7,6.7,0,0,1-4.85,2.32"/><path class="cls-9" d="M7.12,72.89l.19-.36a22.64,22.64,0,0,1,1.33-2.09h0a2.12,2.12,0,0,1-.11,1,2.43,2.43,0,0,1-1.41,1.45"/><path class="cls-9" d="M13.82,95.89h0l-.57,0c-1.56-.22-3.16-1.27-3-2.86a6.17,6.17,0,0,1,1-2.27c1-2,2-7.59,1.27-9.73-1-2.78-3.63-7.63-1.31-10.37A5.71,5.71,0,0,1,15.57,69a18.36,18.36,0,0,1,5,.82,165.73,165.73,0,0,0-.1,22,8.66,8.66,0,0,1-6,4,6.36,6.36,0,0,1-.69,0"/><path class="cls-9" d="M23.67,47A3.58,3.58,0,0,1,24,45.24c-.13.58-.25,1.16-.37,1.74"/><path class="cls-9" d="M8.89,90.86a5.15,5.15,0,0,0,.06-2,4.51,4.51,0,0,0-.11-.47c-.38-1.33-1.39-2.34-2.12-3.51a9.56,9.56,0,0,1-1.35-4.33h0a12.21,12.21,0,0,1,0-1.68v0h0A14.14,14.14,0,0,1,6,75.58H6A3.65,3.65,0,0,1,8.83,78a17.73,17.73,0,0,1,1,10.4,10.36,10.36,0,0,1-.94,2.44h0"/><path class="cls-9" d="M21.39,101.12l-.31-.16a5.92,5.92,0,0,1-2-5.12l.24-.65a5.78,5.78,0,0,1,1.34-1.48q.28,3.72.75,7.41"/><path class="cls-9" d="M24.64,42c-.38,0-.75,0-1.1,0a5.63,5.63,0,0,1-2.46-.58,5.49,5.49,0,0,1-1.9-3.11h0c.84-1.57,1.63-3.23,2.44-4.86h0l.67-.47a5.77,5.77,0,0,0,2.52-3.07,4.63,4.63,0,0,0,0-2c2.14-3,4.84-5.16,8.88-5.16C29.35,28,26.63,35,24.81,42h-.16"/><path class="cls-9" d="M14.48,127.13a4.7,4.7,0,0,1-2-.45,5.66,5.66,0,0,1-2.18-1.95h0c.31-1.25.69-2.47,1.08-3.65a8.74,8.74,0,0,0,.66-4.74c0-.08,0-.16-.06-.23-.43-1.43-1.6-2.46-2.56-3.56a16.41,16.41,0,0,1-3.17-15l.52-.09a10.78,10.78,0,0,1,1.74-.14,13.66,13.66,0,0,1,10.14,4.54c3.42,4.22,4.33,10.19,3.58,15.67a13.66,13.66,0,0,1-2.85,7.25,6.68,6.68,0,0,1-4.85,2.32"/><path class="cls-9" d="M17.51,154.33a20.38,20.38,0,0,1-1.23-2.48,11.08,11.08,0,0,1-.68-2.4c-.37-2.14-.25-4.34-.54-6.43a10.3,10.3,0,0,0-.83-2.95l-.1-.2c-.71-1.37-2-2.37-2.85-3.64a8.72,8.72,0,0,1-.92-1.64,5.08,5.08,0,0,1,.75-4.44,5.71,5.71,0,0,1,4.48-1.59,18.56,18.56,0,0,1,5.46,1c6.28,2.06,3.08,4.39,1.66,8.94-.4,1.29,0,2.68.17,4,.56,4.18-1.66,9.57-5.35,11.85"/><path class="cls-9" d="M28.75,131.4a6.92,6.92,0,0,0-1.63-1.55,14.82,14.82,0,0,0-3.8-1.22,1.64,1.64,0,0,1-.83-.45,1.81,1.81,0,0,1-.31-1.2c0-3,1.35-5.5,2.39-8.16a74.52,74.52,0,0,0,4.18,12.57"/><path class="cls-8" d="M27.68,163.86a1.64,1.64,0,0,0-.15-.47h0a1.64,1.64,0,0,1,.16.48"/><path class="cls-9" d="M39.54,179.89l-.67-.39c-4-2.51-9-6.56-10.6-11.56a11.06,11.06,0,0,1-.31-1.16,10.28,10.28,0,0,1-.22-1.95,6.27,6.27,0,0,0-.05-1,1.64,1.64,0,0,0-.16-.48h0a1.55,1.55,0,0,0-.44-.5h.08c4,0,8.83,4.45,10.36,7.36a21,21,0,0,1,2,9.65"/><path class="cls-9" d="M24.63,161.11H23.9A20.1,20.1,0,0,1,19,156.56a3.79,3.79,0,0,1,0-1.18l.24-.65a9.77,9.77,0,0,1,3-2.67A5.76,5.76,0,0,0,24.81,149c.39-1.59-.4-3.2-.72-4.81a14.87,14.87,0,0,1,.88-7.58,2.83,2.83,0,0,1,2.73-2.21,6.06,6.06,0,0,1,3.12,1.12,35.26,35.26,0,0,0,3.48,5.07c.14,1.77-.34,3.66-.15,5.76.21,2.29,1.84,3.93,1.65,6.19a10.17,10.17,0,0,1-.84,2.86,38.42,38.42,0,0,1-2.77,5.18c-1.61.06-4.87.55-7.55.55"/><path class="cls-8" d="M92.21,98.45l-.7-.26-.61-.27c.35-.68.7-1.39,1-2.08A10.11,10.11,0,0,0,92.73,93c.12-1.52-.57-2.76-1.1-4.1l.21,0a27.71,27.71,0,0,1,3.53.63,14.66,14.66,0,0,0,4,2.26l.35.1a6.27,6.27,0,0,0,1.66.24,5.14,5.14,0,0,0,.59,0q1,.53,1.94,1.14h0c0-.12,0-.26,0-.4a11.12,11.12,0,0,1,.13-1.52c1.85-1.32,2.65-4.07,2.12-6.91l-.06-.26a14.51,14.51,0,0,1,1.35-2.52,14,14,0,0,0-.26,2.95,15.81,15.81,0,0,0,1,5.38c.08.22,1.74,5.07,1,5.07a.42.42,0,0,1-.22-.09l1.34.9h0a8.19,8.19,0,0,1-1.11,1.77,4.47,4.47,0,0,0-2.34-1.78l-.42-.1a4.64,4.64,0,0,0-.81-.07,11,11,0,0,0-1.66.17,12.3,12.3,0,0,1-1.85.19h-.36a5.89,5.89,0,0,1-1-.18c-.33-.08-.65-.19-1-.3a12.07,12.07,0,0,0-3.88-1.09,3.76,3.76,0,0,0-.78.08A3.61,3.61,0,0,0,93,95.84,3.71,3.71,0,0,0,92.38,97a3.87,3.87,0,0,0-.17,1.45"/><path class="cls-9" d="M110.31,95.86h0l-1.34-.9a.42.42,0,0,0,.22.09c.77,0-.88-4.85-1-5.07a15.81,15.81,0,0,1-1-5.38,14,14,0,0,1,.26-2.95,4,4,0,0,1,1.31-1.28,4.89,4.89,0,0,1,2.27-.5,27.85,27.85,0,0,1,4.53.73,7.45,7.45,0,0,0,1.33.12,5.54,5.54,0,0,0,3.43-1,5.08,5.08,0,0,1-1.07,3.42c-1.06,1.21-2.75,1.55-4,2.48-3,2.16-3.28,6.91-4.88,10.28"/><path class="cls-9" d="M104,91.32a30.94,30.94,0,0,1,2.06-7.16l.06.26c.53,2.84-.27,5.58-2.12,6.91"/><path class="cls-8" d="M87.32,90.57c.44-4.87,1.26-10.34-.72-14.41a15.44,15.44,0,0,1,1.27,6.77c0,2.52-.32,5.15-.54,7.63h0a2.63,2.63,0,0,1,.42-.65,2.86,2.86,0,0,0-.42.67M81.55,78.12a11.24,11.24,0,0,0-1.37-.73c1.3-3.12,2.85-5.06-.48-6.72a16.46,16.46,0,0,1,3.75,1.86A9.14,9.14,0,0,1,86,75.09a4.34,4.34,0,0,0-1.37-.25,2.83,2.83,0,0,0-2.73,2.21c-.12.35-.24.7-.35,1.07"/><path class="cls-8" d="M71.13,69.76l0-.64a6.26,6.26,0,0,0-1.71.46c-.47-1.09-.88-2.22-1.34-3.32a5.13,5.13,0,0,0,1.26.87,4.69,4.69,0,0,0,1.81.45,21.62,21.62,0,0,0-1.61-8.28A21.77,21.77,0,0,1,71.18,68q0,.85-.05,1.75h0"/><path class="cls-7" d="M57,43.28l-.42-.55.42.55"/><path class="cls-8" d="M65.83,62.19A18.25,18.25,0,0,0,61.37,58l0-.33c-.16-3.23-.63-6.78-2.94-8.92A6.43,6.43,0,0,0,54,47.06a7.18,7.18,0,0,0-3.95,1.17c-2.29,1.52-2.53,2.48-2.82,4.85a9.32,9.32,0,0,1-1-.63,10.4,10.4,0,0,1-1.19-1,5.88,5.88,0,0,1,1.85-2.78,21.08,21.08,0,0,1,2.71-1.53,7.2,7.2,0,0,0,3.65-5.7,5.2,5.2,0,0,0-3.33-5.14l-.42-.1a4.55,4.55,0,0,0-.8-.07,11.07,11.07,0,0,0-1.67.17,12.12,12.12,0,0,1-1.84.19h-.38a6.15,6.15,0,0,1-1-.18,9.75,9.75,0,0,1-1-.31,18.43,18.43,0,0,0-3.17-1c-.17-1.54-.37-3.08-.66-4.58a13.33,13.33,0,0,0,3.48,1.88l.35.1a6.32,6.32,0,0,0,1.66.24A4.41,4.41,0,0,0,48,30.95a101.7,101.7,0,0,1,7.49,10.3c.24.36.48.71.73,1l.32.45.42.55h0c.8,1.06,1.62,2,2.44,3,1.76,3.42,4.72,7.09,5.28,9.57.47,2.08.58,4.25,1.14,6.31v.05m-29.62-39-.14-.2.19,0,0,.16"/><path class="cls-9" d="M101.38,92.13a6.27,6.27,0,0,1-1.66-.24l-.35-.1a14.66,14.66,0,0,1-4-2.26A28.49,28.49,0,0,1,102,92.1a5.14,5.14,0,0,1-.59,0"/><path class="cls-9" d="M71.17,67.59a4.69,4.69,0,0,1-1.81-.45,5.13,5.13,0,0,1-1.26-.87c-.16-.39-.33-.77-.5-1.14a17.61,17.61,0,0,0-1.77-2.93v-.05c-.56-2.06-.66-4.23-1.14-6.31-.57-2.48-3.52-6.15-5.28-9.57,3,3.45,6.07,6.23,8.3,9.62a20.94,20.94,0,0,1,1.86,3.43,21.62,21.62,0,0,1,1.61,8.28"/><path class="cls-9" d="M61.37,58A20,20,0,0,0,57.76,56c-3.42-1.41-7.27-1.16-10.51-2.94.29-2.37.54-3.34,2.82-4.85A7.18,7.18,0,0,1,54,47.06a6.43,6.43,0,0,1,4.39,1.65c2.32,2.14,2.78,5.69,2.94,8.92l0,.33"/><path class="cls-9" d="M80.18,77.39c-2.66-1.21-6-1.82-8.14-3.82a11.45,11.45,0,0,1-2.6-4,6.26,6.26,0,0,1,1.71-.46l0,.64h0a21.07,21.07,0,0,1,2.29-.13,19.18,19.18,0,0,1,6.28,1c3.34,1.65,1.78,3.59.48,6.72"/><path class="cls-9" d="M45.06,51.46c-3.08-3-4.34-7.71-4.93-12.15-.19-1.44-.33-2.89-.5-4.35a18.43,18.43,0,0,1,3.17,1,9.75,9.75,0,0,0,1,.31,6.15,6.15,0,0,0,1,.18h.38A12.12,12.12,0,0,0,47,36.31a11.07,11.07,0,0,1,1.67-.17,4.55,4.55,0,0,1,.8.07l.42.1a5.2,5.2,0,0,1,3.33,5.14,7.2,7.2,0,0,1-3.65,5.7,21.08,21.08,0,0,0-2.71,1.53,5.88,5.88,0,0,0-1.85,2.78"/><path class="cls-9" d="M90.9,97.93c-3.46-1.6-6.43-4.83-6.73-8.75C84,86.43,85,83.53,84,81a5.94,5.94,0,0,0-2.48-2.87c.11-.36.22-.72.35-1.07a2.83,2.83,0,0,1,2.73-2.21,4.34,4.34,0,0,1,1.37.25,9.34,9.34,0,0,1,.61,1.07c2,4.07,1.16,9.54.72,14.41a2.86,2.86,0,0,1,.42-.67,2.77,2.77,0,0,1,.84-.66,4.38,4.38,0,0,1,2-.42c.34,0,.69,0,1,.06.53,1.34,1.23,2.58,1.1,4.1a10.11,10.11,0,0,1-.84,2.86c-.29.69-.63,1.4-1,2.08"/><path class="cls-9" d="M102,99.67a29.33,29.33,0,0,1-9.75-1.21A3.87,3.87,0,0,1,92.38,97,3.71,3.71,0,0,1,93,95.84a3.61,3.61,0,0,1,2.06-1.32,3.76,3.76,0,0,1,.78-.08,12.07,12.07,0,0,1,3.88,1.09c.32.12.65.22,1,.3a5.89,5.89,0,0,0,1,.18h.36a12.3,12.3,0,0,0,1.85-.19,11,11,0,0,1,1.66-.17,4.64,4.64,0,0,1,.81.07l.42.1a4.47,4.47,0,0,1,2.34,1.78A5.32,5.32,0,0,1,107.55,99a9.45,9.45,0,0,1-4.25.7H102"/><path class="cls-9" d="M44.46,32.6a6.32,6.32,0,0,1-1.66-.24l-.35-.1A13.33,13.33,0,0,1,39,30.39a22,22,0,0,0-1.86-5.72,11.84,11.84,0,0,0-.9-1.49l0-.16c4.54.93,8.42,4.12,11.74,7.94a4.41,4.41,0,0,1-3.53,1.65"/><path class="cls-10" d="M53.93,133.6a15.1,15.1,0,0,1-2.58-.23l0-.07c-.26-1-2.42-3.24-4.42-4.88a9,9,0,0,0-3.13-1.94l-.43,0a3.23,3.23,0,0,0-.55,0,3.08,3.08,0,0,0-2.13,1.5q-.7-.6-1.35-1.23c0-.45.06-.9.09-1.34.25-5,.44-10.34-1.88-14.74-1.48-2.81-6-7.05-9.93-7.35q-.13-.95-.22-1.9c1.9-.15,3.74-.39,4.82-.43A38.13,38.13,0,0,0,35,95.84,10.11,10.11,0,0,0,35.8,93c.18-2.26-1.45-3.89-1.65-6.19-.32-3.56,1.27-6.5-1.42-9.27-1.25-1.29-3.18-2.6-4.86-2.68a34.17,34.17,0,0,0-.2-4.14c1.24,1,2,2.66,3.35,3.63a4.66,4.66,0,0,0,5.16.18c2.63-1.67,3.08-5.4,3.24-8.61.21-4.18.37-8.57-.91-12.46a23.82,23.82,0,0,1,1.65,2.37l1.51,2.41a36.66,36.66,0,0,0,2.41,3.5,4.27,4.27,0,0,0,1,2c1.93,2.41,4.21,4,6,6.58,1.63,2.31,2.73,2.74,4.48,2.74C56.26,73.1,57,73,58,73h.25c.5,0,1.1.06,1.74.13s1.33.13,2,.13a4.92,4.92,0,0,0,2.37-.48,29.56,29.56,0,0,1,3.39,4c.51,1.57,1.2,3.08,1.6,4.24.73,2.14-.25,7.75-1.27,9.73a6.16,6.16,0,0,0-1,2.27c-.11,1.59,1.49,2.64,3,2.86l.57,0h0a6.32,6.32,0,0,0,.69,0,6.91,6.91,0,0,0,2.44-.74,44.82,44.82,0,0,1,0,5.14,14.26,14.26,0,0,0-8.47-2.91,10.79,10.79,0,0,0-1.74.14c-1.71.28-4.56.92-5.27,2.49a4.83,4.83,0,0,0,0,3.45c1.23,4,5.59,8.89,6.29,12,.47,2.08.58,4.25,1.14,6.31a10.41,10.41,0,0,0,1.12,2.67,26.57,26.57,0,0,1-2.31,3.6c-.37-.51-.8-1-1.15-1.5-1.87-2.58-2-6.05-2.12-9.29s-.63-6.78-2.94-8.92A6.43,6.43,0,0,0,54,106.6a7.18,7.18,0,0,0-3.95,1.17c-2.49,1.65-2.56,2.65-2.91,5.54a7.31,7.31,0,0,1-.88,2.55,32,32,0,0,0-2,3.68,3.69,3.69,0,0,0-.28,1.68,4.18,4.18,0,0,0,1,2.09c1.93,2.41,4.21,4,6,6.58,1.63,2.31,2.72,2.75,4.47,2.75.68,0,1.46-.07,2.41-.11h.24c.24,0,.51,0,.79,0a12.42,12.42,0,0,1-5.09,1.06m-15-39.16a3.76,3.76,0,0,0-.78.08,3.6,3.6,0,0,0-2.06,1.32A3.71,3.71,0,0,0,35.45,97a4,4,0,0,0,.71,3.67,7.61,7.61,0,0,0,3.1,6.61c.54.38,1.17.74,1.35,1.39a2.71,2.71,0,0,1,0,1.05,6.6,6.6,0,0,0,.5,4.1,3.14,3.14,0,0,0,1.7,1.4,2.48,2.48,0,0,0,.78.14,1.89,1.89,0,0,0,.94-.24c-.07-2.54.45-5.36,2.39-6.91a21.43,21.43,0,0,1,2.71-1.53A7.19,7.19,0,0,0,53.26,101a5.2,5.2,0,0,0-3.33-5.15l-.42-.1a4.64,4.64,0,0,0-.81-.07,11,11,0,0,0-1.66.17,12.31,12.31,0,0,1-1.85.19h-.37a5.9,5.9,0,0,1-1-.18c-.33-.08-.65-.19-1-.3a12.08,12.08,0,0,0-3.88-1.09m13.11.5,1.34.9,3.3,2.24a1.76,1.76,0,0,0,.76.35h.1a2,2,0,0,0,1.1-.51l.29-.22c.81-.61,1.63-1.22,2.43-1.86,2.42-1.95,4.61-4.17,5.41-7.42a17.74,17.74,0,0,0-1-10.4c-.79-2.16-2.62-2.63-4.64-2.63-1.5,0-3.11.26-4.46.27a5.29,5.29,0,0,0-2.15.31c-3.23,1.45-4.31,5.19-4.26,8.6a15.82,15.82,0,0,0,1,5.38c.08.22,1.74,5.07,1,5.07a.42.42,0,0,1-.22-.09m-8.68-28a3.57,3.57,0,0,0-.56,0c-3.68.59-3.42,7.44-4.4,10s-2.27,4.87-2.59,7.65A4.82,4.82,0,0,0,36,87.24a5.24,5.24,0,0,0,1.82,1.88,16.6,16.6,0,0,0,4.59,2.68l.35.1a6.28,6.28,0,0,0,1.66.24c3.67,0,5.49-3.77,4.76-7.72-.29-1.58-1.13-2.43-.76-4.14.51-2.35,3.58-3.75,2.87-6.5-.26-1-2.42-3.24-4.42-4.88A9.05,9.05,0,0,0,43.79,67l-.43,0"/><path class="cls-11" d="M62,73.23c-.66,0-1.35-.06-2-.13S58.73,73,58.23,73H58c-.95,0-1.73.11-2.41.11-1.75,0-2.85-.44-4.48-2.74-1.8-2.55-4.08-4.16-6-6.58a4.27,4.27,0,0,1-1-2c2,2.47,4.16,3.61,9.42,4.84a23.21,23.21,0,0,1,10.86,6.18,4.92,4.92,0,0,1-2.37.48"/><path class="cls-11" d="M70.75,95.89h0l-.57,0c-1.56-.22-3.16-1.27-3-2.86a6.16,6.16,0,0,1,1-2.27c1-2,2-7.59,1.27-9.73-.4-1.16-1.09-2.67-1.6-4.24A33.2,33.2,0,0,1,73.09,89a39.74,39.74,0,0,1,.79,6.07,6.91,6.91,0,0,1-2.44.74,6.32,6.32,0,0,1-.69,0"/><path class="cls-11" d="M44.46,92.13a6.28,6.28,0,0,1-1.66-.24l-.35-.1a16.6,16.6,0,0,1-4.59-2.68A5.24,5.24,0,0,1,36,87.24a4.82,4.82,0,0,1-.24-2.58c.33-2.78,1.63-5.1,2.59-7.65s.72-9.44,4.4-10a3.57,3.57,0,0,1,.56,0l.43,0a9.05,9.05,0,0,1,3.13,1.94c2,1.64,4.16,3.88,4.42,4.88.7,2.75-2.37,4.15-2.87,6.5-.37,1.71.47,2.56.76,4.14.73,3.95-1.1,7.72-4.76,7.72"/><path class="cls-11" d="M66.93,124.35a10.41,10.41,0,0,1-1.12-2.67c-.56-2.06-.66-4.23-1.14-6.31-.7-3.06-5.06-8-6.29-12a4.83,4.83,0,0,1,0-3.45c.72-1.57,3.56-2.21,5.27-2.49a10.79,10.79,0,0,1,1.74-.14,14.26,14.26,0,0,1,8.47,2.91,62.16,62.16,0,0,1-5,20.06c-.57,1.36-1.2,2.73-1.92,4"/><path class="cls-11" d="M55.57,132.63c-1.75,0-2.85-.44-4.47-2.75-1.8-2.55-4.08-4.16-6-6.58a4.18,4.18,0,0,1-1-2.09,3.69,3.69,0,0,1,.28-1.68,32,32,0,0,1,2-3.68,7.31,7.31,0,0,0,.88-2.55c.34-2.88.41-3.88,2.91-5.54A7.18,7.18,0,0,1,54,106.6a6.43,6.43,0,0,1,4.39,1.65c2.32,2.14,2.78,5.69,2.94,8.92s.25,6.71,2.12,9.29c.35.48.77,1,1.15,1.5a15,15,0,0,1-5.07,4.34l-.53.25c-.29,0-.55,0-.79,0H58c-1,0-1.73.11-2.41.11"/><path class="cls-11" d="M51.35,133.37A23.19,23.19,0,0,1,40.67,128a3.08,3.08,0,0,1,2.13-1.5,3.23,3.23,0,0,1,.55,0l.43,0a9,9,0,0,1,3.13,1.94c2,1.64,4.16,3.87,4.42,4.88l0,.07"/><path class="cls-11" d="M57.53,98.44h-.1a1.76,1.76,0,0,1-.76-.35l-3.3-2.24L52,94.94a.42.42,0,0,0,.22.09c.77,0-.89-4.85-1-5.07a15.82,15.82,0,0,1-1-5.38c0-3.41,1-7.15,4.26-8.6a5.29,5.29,0,0,1,2.15-.31c1.35,0,3-.27,4.46-.27,2,0,3.85.47,4.64,2.63a17.74,17.74,0,0,1,1,10.4c-.8,3.24-3,5.47-5.41,7.42-.8.64-1.62,1.26-2.43,1.86l-.29.22a2,2,0,0,1-1.1.51"/><path class="cls-11" d="M33.73,75.21A4.62,4.62,0,0,1,31,74.34c-1.32-1-2.11-2.58-3.35-3.63-.51-5-1.65-10-.12-14.48,1-2.87,3.7-5.29,6.48-5.29a4.66,4.66,0,0,1,1.66.3,6.9,6.9,0,0,1,2.81,2.2c1.29,3.89,1.12,8.28.91,12.46-.16,3.21-.6,6.94-3.24,8.61a4.57,4.57,0,0,1-2.44.69"/><path class="cls-11" d="M27.37,101.45q-.11-1.19-.15-2.38c-.24-6.91-.77-14.65.38-21.38a19,19,0,0,0,.26-2.85c1.68.08,3.61,1.4,4.86,2.68,2.69,2.77,1.11,5.71,1.42,9.27C34.35,89.09,36,90.73,35.8,93A10.11,10.11,0,0,1,35,95.84,38.13,38.13,0,0,1,32.19,101c-1.08,0-2.91.28-4.82.43"/><path class="cls-11" d="M43.58,115.36a2.48,2.48,0,0,1-.78-.14,3.14,3.14,0,0,1-1.7-1.4,6.6,6.6,0,0,1-.5-4.1,2.71,2.71,0,0,0,0-1.05c-.17-.65-.81-1-1.35-1.39a7.61,7.61,0,0,1-3.1-6.61A4,4,0,0,1,35.45,97a3.71,3.71,0,0,1,.63-1.16,3.6,3.6,0,0,1,2.06-1.32,3.76,3.76,0,0,1,.78-.08,12.08,12.08,0,0,1,3.88,1.09c.32.12.65.22,1,.3a5.9,5.9,0,0,0,1,.18h.37A12.31,12.31,0,0,0,47,95.84a11,11,0,0,1,1.66-.17,4.64,4.64,0,0,1,.81.07l.42.1A5.2,5.2,0,0,1,53.26,101a7.19,7.19,0,0,1-3.65,5.69,21.43,21.43,0,0,0-2.71,1.53c-1.94,1.54-2.46,4.36-2.39,6.91a1.89,1.89,0,0,1-.94.24"/><path class="cls-11" d="M39.32,126.78l0,0A41,41,0,0,1,27.6,103.35c3.94.3,8.45,4.54,9.93,7.35,2.32,4.4,2.13,9.72,1.88,14.74,0,.44,0,.89-.09,1.34"/><path class="cls-10" d="M152,137.17c-4.53-.46-9.08-3.74-13-8.09a6.66,6.66,0,0,1,2,.77c1.57,1,2.38,2.92,3.88,4A4.67,4.67,0,0,0,150,134c2.63-1.66,3.08-5.4,3.24-8.61.25-5,.44-10.34-1.88-14.74-1.53-2.91-6.33-7.37-10.36-7.37a4.62,4.62,0,0,0-2.11.48c-2.84,1.43-.55,6.2.1,10.21a7.42,7.42,0,0,1-.06,3.33c-.88,2.78-2.42,5.35-2.82,8.25-.61-.81-1.21-1.65-1.77-2.49a16.18,16.18,0,0,0,1.67-5.57c.75-5.48-.15-11.45-3.58-15.67A12,12,0,0,0,128,98.59c.27-1,.58-1.9.94-2.84,5.08-1,8.43-7.78,7.76-12.81-.07-.56-.19-1.13-.26-1.7.63-1.05,1.29-2.08,2-3.07a13.91,13.91,0,0,0-.51,6.46c.32,1.61,1.11,3.22.71,4.81a5.75,5.75,0,0,1-2.52,3.07,9.73,9.73,0,0,0-3,2.67l-.25.65a5.92,5.92,0,0,0,2,5.12,5.68,5.68,0,0,0,2.46.58c.35,0,.71,0,1.09,0,2.69,0,6-.49,7.55-.55a38,38,0,0,0,2.77-5.18,10.12,10.12,0,0,0,.84-2.86c.18-2.26-1.45-3.89-1.65-6.19-.32-3.56,1.27-6.5-1.42-9.27-1.29-1.33-3.3-2.69-5-2.69h-.2c.69-.65,1.41-1.27,2.14-1.87a7.47,7.47,0,0,0,1.36,1.35,4.66,4.66,0,0,0,5.16.18c2.63-1.67,3.08-5.4,3.24-8.61.07-1.43.14-2.88.14-4.33.65-1.52,1.24-3.07,2-4.54a17.4,17.4,0,0,1,.87-1.51,2.68,2.68,0,0,0,.39.17,2.47,2.47,0,0,0,.78.13,1.92,1.92,0,0,0,.94-.24,13.54,13.54,0,0,1,.19-2.76,7.35,7.35,0,0,1,2.85-1.57,18.78,18.78,0,0,0-.39,2.51,7.28,7.28,0,0,1-.88,2.55,32.27,32.27,0,0,0-2,3.68,3.72,3.72,0,0,0-.28,1.68,4.22,4.22,0,0,0,1,2.09c1.93,2.41,4.21,4,6,6.58,1.63,2.31,2.73,2.74,4.48,2.74l.9,0c-.19.87-.38,1.75-.58,2.62a3.9,3.9,0,0,0-1.38.29c-3.23,1.45-4.31,5.19-4.26,8.6a15.82,15.82,0,0,0,1,5.38c.08.22,1.74,5.07,1,5.07a.42.42,0,0,1-.22-.09l1.34.9.34.23c0,1,0,2.07.06,3.1q0,3.72-.12,7.43a7.15,7.15,0,0,0-3.58,1.16c-2.49,1.65-2.56,2.65-2.91,5.54a7.28,7.28,0,0,1-.88,2.55,32,32,0,0,0-2,3.68,3.71,3.71,0,0,0-.28,1.68,4.19,4.19,0,0,0,1,2.09c1.66,2.08,3.58,3.56,5.23,5.56a16.3,16.3,0,0,1-.89,1.87,30.48,30.48,0,0,0-2.52-2.31,9,9,0,0,0-3.13-1.94l-.43,0a3.24,3.24,0,0,0-.55,0c-3.68.59-3.41,7.43-4.39,10l-.24.63m.76-42.72a3.76,3.76,0,0,0-.78.08,3.61,3.61,0,0,0-2.06,1.32,3.77,3.77,0,0,0-.63,1.16,4,4,0,0,0,.71,3.67,7.61,7.61,0,0,0,3.1,6.61c.54.38,1.17.74,1.35,1.39a2.71,2.71,0,0,1,0,1.05,6.6,6.6,0,0,0,.5,4.1,3.14,3.14,0,0,0,1.7,1.4,2.48,2.48,0,0,0,.78.14,1.89,1.89,0,0,0,.94-.24c-.07-2.54.45-5.36,2.39-6.91a21.52,21.52,0,0,1,2.71-1.53,7.19,7.19,0,0,0,3.65-5.69,5.2,5.2,0,0,0-3.33-5.15l-.42-.1a4.62,4.62,0,0,0-.8-.07,11,11,0,0,0-1.67.17A12.3,12.3,0,0,1,159,96h-.37a5.91,5.91,0,0,1-1-.18c-.33-.08-.65-.19-1-.3a12.07,12.07,0,0,0-3.88-1.09m4.44-27.52a3.59,3.59,0,0,0-.56,0c-3.68.59-3.41,7.44-4.39,10s-2.27,4.87-2.6,7.65a4.82,4.82,0,0,0,.24,2.58,5.25,5.25,0,0,0,1.81,1.88,16.62,16.62,0,0,0,4.59,2.68l.35.1a6.28,6.28,0,0,0,1.66.24c3.67,0,5.49-3.77,4.76-7.72-.29-1.58-1.13-2.43-.77-4.14.51-2.35,3.58-3.75,2.88-6.5-.26-1-2.42-3.24-4.42-4.88A9.07,9.07,0,0,0,157.64,67l-.43,0"/><path class="cls-11" d="M169.43,73.1c-1.75,0-2.85-.44-4.48-2.74-1.8-2.55-4.08-4.16-6-6.58a4.22,4.22,0,0,1-1-2.09,3.72,3.72,0,0,1,.28-1.68,32.27,32.27,0,0,1,2-3.68,7.28,7.28,0,0,0,.88-2.55,18.78,18.78,0,0,1,.39-2.51,5.58,5.58,0,0,1,.78-.16,5.72,5.72,0,0,1,.81-.06c5,0,8.3,6.33,8.48,11.75a42.39,42.39,0,0,1-1.15,10.26l-.9,0"/><path class="cls-11" d="M158.31,92.13a6.28,6.28,0,0,1-1.66-.24l-.35-.1a16.62,16.62,0,0,1-4.59-2.68,5.25,5.25,0,0,1-1.81-1.88,4.82,4.82,0,0,1-.24-2.58c.33-2.78,1.63-5.1,2.6-7.65s.72-9.44,4.39-10a3.59,3.59,0,0,1,.56,0l.43,0a9.07,9.07,0,0,1,3.13,1.94c2,1.64,4.16,3.88,4.42,4.88.7,2.75-2.37,4.15-2.88,6.5-.37,1.71.47,2.56.77,4.14.73,3.95-1.1,7.72-4.76,7.72"/><path class="cls-11" d="M164.18,128.87c-1.65-2-3.57-3.48-5.23-5.56a4.19,4.19,0,0,1-1-2.09,3.71,3.71,0,0,1,.28-1.68,32,32,0,0,1,2-3.68,7.28,7.28,0,0,0,.88-2.55c.34-2.88.41-3.88,2.91-5.54a7.15,7.15,0,0,1,3.58-1.16A131.85,131.85,0,0,1,166,121.76a33,33,0,0,1-1.78,7.1"/><path class="cls-11" d="M153.09,137.23a10.71,10.71,0,0,1-1.07-.06l.24-.63c1-2.6.72-9.44,4.39-10a3.24,3.24,0,0,1,.55,0l.43,0a9,9,0,0,1,3.13,1.94,30.48,30.48,0,0,1,2.52,2.31,12.44,12.44,0,0,1-1.64,2.28c-2.71,3-5.62,4.21-8.55,4.21"/><path class="cls-11" d="M157.44,115.36a2.48,2.48,0,0,1-.78-.14,3.14,3.14,0,0,1-1.7-1.4,6.6,6.6,0,0,1-.5-4.1,2.71,2.71,0,0,0,0-1.05c-.17-.65-.81-1-1.35-1.39a7.61,7.61,0,0,1-3.1-6.61,4,4,0,0,1-.71-3.67,3.77,3.77,0,0,1,.63-1.16A3.61,3.61,0,0,1,152,94.53a3.76,3.76,0,0,1,.78-.08,12.07,12.07,0,0,1,3.88,1.09c.32.12.65.22,1,.3a5.91,5.91,0,0,0,1,.18H159a12.3,12.3,0,0,0,1.85-.19,11,11,0,0,1,1.67-.17,4.62,4.62,0,0,1,.8.07l.42.1a5.2,5.2,0,0,1,3.33,5.15,7.19,7.19,0,0,1-3.65,5.69,21.52,21.52,0,0,0-2.71,1.53c-1.94,1.54-2.46,4.36-2.39,6.91a1.89,1.89,0,0,1-.94.24"/><path class="cls-11" d="M167.57,96.08l-.34-.23-1.34-.9a.42.42,0,0,0,.22.09c.77,0-.88-4.85-1-5.07a15.82,15.82,0,0,1-1-5.38c0-3.41,1-7.15,4.26-8.6a3.9,3.9,0,0,1,1.38-.29,87.84,87.84,0,0,0-2,10.35,78.44,78.44,0,0,0-.2,10"/><path class="cls-11" d="M157.44,55.83a2.47,2.47,0,0,1-.78-.13,2.68,2.68,0,0,1-.39-.17,12.4,12.4,0,0,1,2.3-2.7,13.54,13.54,0,0,0-.19,2.76,1.92,1.92,0,0,1-.94.24"/><path class="cls-11" d="M129,95.76a85.13,85.13,0,0,1,5.79-11.53c.56-1,1.12-2,1.71-3,.07.57.19,1.14.26,1.7.67,5-2.68,11.79-7.76,12.81"/><path class="cls-11" d="M147.58,75.21a4.62,4.62,0,0,1-2.72-.87A7.47,7.47,0,0,1,143.5,73c2.79-2.28,5.78-4.32,7.8-7.33a24.24,24.24,0,0,0,2.1-4.08c0,1.45-.07,2.9-.14,4.33-.16,3.21-.6,6.94-3.24,8.61a4.57,4.57,0,0,1-2.44.69"/><path class="cls-11" d="M138.49,101.57c-.38,0-.74,0-1.09,0a5.68,5.68,0,0,1-2.46-.58,5.92,5.92,0,0,1-2-5.12l.25-.65a9.73,9.73,0,0,1,3-2.67,5.75,5.75,0,0,0,2.52-3.07c.39-1.59-.4-3.21-.71-4.81a13.91,13.91,0,0,1,.51-6.46,24.88,24.88,0,0,1,2-2.45q.43-.45.88-.88h.2c1.72,0,3.73,1.36,5,2.69,2.69,2.77,1.11,5.71,1.42,9.27.2,2.29,1.83,3.93,1.65,6.19a10.12,10.12,0,0,1-.84,2.86A38,38,0,0,1,146,101c-1.6.06-4.87.55-7.55.55"/><path class="cls-11" d="M134.36,123.12c-3.46-5.13-6-10.6-6.83-14.38A20.46,20.46,0,0,1,128,98.59a12,12,0,0,1,4.44,3.28c3.42,4.22,4.33,10.19,3.58,15.67a16.18,16.18,0,0,1-1.67,5.57"/><g class="cls-3"><path class="cls-11" d="M147.58,134.74a4.62,4.62,0,0,1-2.72-.87c-1.5-1.1-2.31-3-3.88-4a6.66,6.66,0,0,0-2-.77c-1-1.1-2-2.27-2.87-3.48.4-2.91,1.94-5.47,2.82-8.25A7.42,7.42,0,0,0,139,114c-.65-4-2.94-8.78-.1-10.21a4.62,4.62,0,0,1,2.11-.48c4,0,8.83,4.46,10.36,7.37,2.32,4.4,2.13,9.72,1.88,14.74-.16,3.21-.6,6.95-3.24,8.61a4.57,4.57,0,0,1-2.44.69"/></g></g></svg>