<svg id="Layer_1" data-name="Layer 1" xmlns="http://www.w3.org/2000/svg" xmlns:xlink="http://www.w3.org/1999/xlink" viewBox="0 0 200 200"><defs><style>.cls-1{fill:none;}.cls-2{clip-path:url(#clip-path);}.cls-3{fill:#f59daf;}.cls-4{fill:#235566;}.cls-5{fill:#137baa;}.cls-6{fill:#ee2e3b;}.cls-7{fill:#cc202f;}.cls-8{fill:#d87b94;}.cls-9{fill:#eb8ca1;}.cls-10{fill:#dc2526;}.cls-11{fill:#c52126;}.cls-12{fill:#f04f3d;}</style><clipPath id="clip-path"><ellipse class="cls-1" cx="114.79" cy="100.46" rx="139.52" ry="134.18" transform="translate(-27.05 44.34) rotate(-19.6)"/></clipPath></defs><title>heart</title><g class="cls-2"><path class="cls-3" d="M73.58,56.58c-10.3,4-21.27,7.6-27.85,16.27-16.2,21.38-1.67,53.17,17,55.68,16.46,2.21,34.73-4.12,48.53-12.89C100,95,89.37,74.06,73.58,56.58Z"/><path class="cls-4" d="M41.9,48.8a53.94,53.94,0,0,0-2,19.75C47.85,65,57.69,61.39,66.07,61c-1.38-9.57,6.43-15.61,15.21-20.43A86.63,86.63,0,0,0,41.9,48.8Z"/><path class="cls-5" d="M21.59,61.2a53.53,53.53,0,0,0,2.93,8.59A54.42,54.42,0,0,0,27.28,75c2.47-1.4,7.09-3.9,12.65-6.41a53.94,53.94,0,0,1,2-19.75A103.86,103.86,0,0,0,21.59,61.2Z"/><path class="cls-5" d="M66.07,61c4.64-.23,8.83.51,12,2.77A174.13,174.13,0,0,0,90.88,41.67a51.87,51.87,0,0,0-9.59-1.13C72.5,45.36,64.69,51.41,66.07,61Z"/><path class="cls-6" d="M94.49,23.56,96,14.4,82.62,11.16l-3.11,10.7a42,42,0,0,0-5.43.8L68.63,12.09l-13,5,4.21,11.26a51.61,51.61,0,0,0-7.47,5.49l-9.11-6.54L33.67,37.36l8.8,8c-17.4,29,22.08,53.09,22.08,53.09a98.74,98.74,0,0,0,17.2-.66c-10.95-8-20.13-17.08-23.92-30.55C51,51,62.77,30.8,83.14,33.87c23.12,3.07,28.3,22.31,28.56,42.79a51,51,0,0,0,10.06-.75c.55-17-5.46-45-27.26-52.35Z"/><path class="cls-7" d="M83.14,33.87C62.77,30.8,51,51,57.82,67.23c3.79,13.48,13,22.58,23.92,30.55C88,96.86,93.45,94.87,93,90.73,67.47,72.53,50.86,54.54,71.55,43c27.7-15.75,33.14,32,33.14,32s1.72,1.38,7,1.59c-.26-20.48-5.45-39.72-28.56-42.79Z"/><path class="cls-8" d="M101.21,55a125.3,125.3,0,0,0-25.75.81c-.65.24-1.24.49-1.88.74C89.37,74.06,90.85,101,111.3,115.65c7.91-5,14.56-11.18,18.72-17.93C113.34,88,99,74.48,101.21,55Z"/><path class="cls-9" d="M101.21,55C99,74.48,113.34,88,130,97.73a35.72,35.72,0,0,0,1.85-3.35c3.51-25.3-7.3-37.23-30.67-39.34Z"/><path class="cls-5" d="M129.44,27.92c-1.07-1.21-2.47-2.7-4.27-4.52-57.65.9-62.31,72-62.31,72s2,2.54,10.37,2.78c2.46-31.34,26.91-57.79,56.21-70.22Z"/><path class="cls-4" d="M73.22,98.14c4.77.14,11.6-.48,21.31-2.75C77.51,56.75,131.45,33,131.45,33s3.79,1.52-2-5.05C100.13,40.36,75.68,66.8,73.22,98.14Z"/><path class="cls-10" d="M103.11,138.52c11.12-20,9.74-40.35-.35-56.4-5.93.4-11.43.89-15.83,1-6.86.11-13.83.24-20.43,2.2-29,8.59-39.89,50.43-2,79.6,15.53-2.34,31.43-13.35,38.65-26.36Z"/><path class="cls-11" d="M148,92.32c-8.33-11.75-28.48-11.33-45.23-10.2,10.09,16.05,11.47,36.37.35,56.4-7.23,13-23.12,24-38.65,26.36a109.53,109.53,0,0,0,25.92,14.49c9.28,3.76,17.27,12.32,28.37,9.58,17.81-4.38,23.61-25.27,26.76-35.48,5.48-17.76,14.4-44.35,2.48-61.16Z"/><path class="cls-12" d="M71.95,93c-14-2.07-23,15.25-23.44,26.57-.9,21.72,21.26,29.8,16.58,11.61-1-4-1.71-7.92-.77-12.07,1.73-7.66,9.17-10.62,12.14-17.35A6.15,6.15,0,0,0,71.95,93Z"/></g></svg>