<svg id="Layer_1" data-name="Layer 1" xmlns="http://www.w3.org/2000/svg" viewBox="0 0 200 200"><defs><style>.cls-1{fill:#fff;}</style></defs><title>infinity</title><path class="cls-1" d="M99.52,118.67C85.89,141,64,147.34,43.29,141.52,22.4,135.64,10.59,119.3,8.5,101.27,5.31,73.79,21.23,56.73,36.78,50.07c11.44-4.89,23.3-5.91,35.33-2S93,59.77,99.5,70.86c7-12.06,16.89-20.09,30-23.57a48.45,48.45,0,0,1,30.8,2c19.68,7.81,31.6,25.72,30.6,47.9-.94,20.72-13.29,37.94-34.91,44.25C136.46,147.13,113.64,142,99.52,118.67ZM164.31,95a20.18,20.18,0,0,0-5.74-15.47A22.45,22.45,0,0,0,139,72.57a20.44,20.44,0,0,0-14.12,8.18c-3.12,4-5.75,8.41-8.66,12.59a2.07,2.07,0,0,0,.06,2.73c2.61,3.74,5,7.61,7.74,11.28,5.23,7.12,12.06,10.64,21.14,9.28C155.84,115,164.84,106.2,164.31,95ZM58.21,117c4.64-.24,10-1.75,13.71-6.25,4-4.86,7.4-10.21,11-15.4a2.2,2.2,0,0,0-.24-1.9c-2.42-3.71-5.11-7.26-7.37-11.06A21.75,21.75,0,0,0,51.64,73C38.6,76.45,32,88.62,35.52,101.19,38.14,110.66,47.75,116.9,58.21,117Z"/></svg>