<svg id="Layer_1" data-name="Layer 1" xmlns="http://www.w3.org/2000/svg" xmlns:xlink="http://www.w3.org/1999/xlink" viewBox="0 0 200 200"><defs><style>.cls-1{fill:none;}.cls-2{clip-path:url(#clip-path);}.cls-3{fill:#f9a220;}.cls-4{fill:#14b0bf;}.cls-5{clip-path:url(#clip-path-2);}.cls-6{fill:#dc2526;}.cls-7{fill:#d87b94;}.cls-8{fill:#eb8ca1;}.cls-9{fill:#f59daf;}</style><clipPath id="clip-path"><circle class="cls-1" cx="103.5" cy="99.5" r="123.5"/></clipPath><clipPath id="clip-path-2"><rect class="cls-1" x="5.02" y="13.8" width="866.15" height="824.73"/></clipPath></defs><title>Artboard 1</title><g class="cls-2"><path class="cls-3" d="M68.75,166.31c-3.48-4.57-3.71-11.3-.58-17.12,2.35-4.37,5.72-7.7,8.69-10.64,5.8-5.73,8.76-9.05,7.18-16.14-2.62-11.8-17.34-18.47-29.44-17.87l-.45-9.14c16.17-.77,35.1,8.36,38.81,25,2.75,12.35-4.15,19.16-9.68,24.63-2.76,2.72-5.36,5.3-7.06,8.46-1.39,2.6-1.47,5.58-.2,7.26l-7.28,5.54Z"/><path class="cls-4" d="M55.13,92.3l-1.44-9A30.85,30.85,0,0,0,79.57,50l9.11-.82A40,40,0,0,1,55.13,92.3Z"/><g class="cls-5"><path class="cls-6" d="M72.44,98a27.26,27.26,0,0,1-17.51-6.08,11.32,11.32,0,0,0-1.15-.39A11,11,0,0,1,49,89l6.39-6.55-.11-.09a8.46,8.46,0,0,0,1.17.41A11.79,11.79,0,0,1,60.8,84.9c4.26,3.55,10.46,4.82,16.58,3.38S88.7,82.84,91,77.62l8.37,3.69c-3.45,7.83-10.89,13.77-19.9,15.88a30.87,30.87,0,0,1-7,.82Z"/><path class="cls-7" d="M71,131.72c-2.87,19.21-25.14,30.82-45.75,15.74a39,39,0,0,1-5.23-4.59C13.43,136,8.57,126.28,6.35,115.47v0a65.24,65.24,0,0,1,3.71-38.27,50.76,50.76,0,0,1,2.39-4.89l.08-.13c.34-.6.68-1.19,1-1.78l0-.07c.61-1,1.28-2,2-3C23.67,55.67,37,44.79,51,44.35c.51,0,1,0,1.53,0a5.63,5.63,0,0,1,.67,0,24.61,24.61,0,0,1,7.17,1.42C76.53,51.7,81.53,74,62.43,83.31c6.78,7.84,4.55,21.41-3.84,27.19a15.51,15.51,0,0,1-2.21,1.28,7.29,7.29,0,0,1,2.51-.67c6.87-.55,13.9,9,12.15,20.6Z"/><path class="cls-8" d="M58.89,111.12a22.37,22.37,0,0,1,1.7,12.76C59,134.83,48.32,147.45,36.11,146.45c-11.72-1-24-17.36-28.27-27.2-.55-1.27-1-2.54-1.49-3.79v0a65.24,65.24,0,0,1,3.71-38.27,50.76,50.76,0,0,1,2.39-4.89l.08-.13c.34-.6.68-1.19,1-1.78l0-.07c.61-1,1.28-2,2-3,8-11.64,20.94-22.55,35.38-22.92.51,0,1,0,1.53,0a5.63,5.63,0,0,1,.67,0,24.61,24.61,0,0,1,7.17,1.42C67,55,65.91,68.67,52,75.47c7.34,8.49,4.12,23.7-6,28.47,4.6-2.16,9.77.89,12.66,6.56.1.2.21.4.3.61Z"/></g><path class="cls-9" d="M28.24,115.72a35.15,35.15,0,0,0,2.45,8.34c1,2.19,2.21,4.33,2.43,6.72s-1,5.14-3.36,5.64-4.66-1.56-6.19-3.56C5.76,109.62,10.12,64,41.15,53.63,54.37,49.21,62.38,59,52.49,67.27c-5.36,4.5-13.9,6.06-10.22,15,7.28,17.62-18.55,6.25-14,33.48Z"/><path class="cls-3" d="M135,156.35c3.48-4.57,3.71-11.3.58-17.12-2.35-4.37-5.72-7.7-8.69-10.64-5.8-5.73-8.76-9.05-7.18-16.14C122.29,100.65,137,94,149.11,94.58l.44-9.14c-16.17-.77-35.1,8.36-38.81,25-2.75,12.35,4.15,19.16,9.68,24.63,2.76,2.72,5.36,5.3,7.06,8.46,1.39,2.6,1.47,5.58.2,7.26l7.28,5.54Z"/><path class="cls-4" d="M148.59,82.34l1.44-9a30.85,30.85,0,0,1-25.87-33.25L115,39.24a40,40,0,0,0,33.54,43.1Z"/><path class="cls-6" d="M131.28,88A27.26,27.26,0,0,0,148.78,82a11.2,11.2,0,0,1,1.15-.39,11,11,0,0,0,4.76-2.52l-6.39-6.55.11-.09a8.56,8.56,0,0,1-1.17.41,11.79,11.79,0,0,0-4.32,2.11c-4.26,3.55-10.46,4.82-16.58,3.38S115,72.88,112.72,67.66l-8.37,3.69c3.45,7.83,10.89,13.77,19.9,15.88a30.87,30.87,0,0,0,7,.82Z"/><path class="cls-7" d="M132.67,121.76c2.87,19.21,25.14,30.82,45.75,15.74a39.12,39.12,0,0,0,5.23-4.59c6.64-6.91,11.5-16.59,13.72-27.41v0a65.24,65.24,0,0,0-3.71-38.27,50.8,50.8,0,0,0-2.39-4.89l-.08-.13c-.34-.6-.68-1.19-1-1.78l0-.07c-.61-1-1.28-2-2-3C180,45.71,166.76,34.83,152.74,34.4a14.79,14.79,0,0,0-1.53,0,5.59,5.59,0,0,0-.67,0,24.63,24.63,0,0,0-7.17,1.42c-16.19,5.91-21.19,28.18-2.09,37.52-6.78,7.84-4.55,21.41,3.84,27.19a15.23,15.23,0,0,0,2.21,1.28,7.31,7.31,0,0,0-2.51-.67c-6.87-.55-13.9,9-12.15,20.6Z"/><path class="cls-8" d="M144.82,101.16a22.39,22.39,0,0,0-1.7,12.76c1.63,10.95,12.27,23.57,24.48,22.58,11.72-1,24-17.36,28.27-27.2.55-1.27,1-2.54,1.49-3.79v0a65.24,65.24,0,0,0-3.71-38.27,50.8,50.8,0,0,0-2.39-4.89l-.08-.13c-.34-.6-.68-1.19-1-1.78l0-.07c-.61-1-1.28-2-2-3-8-11.64-20.94-22.55-35.38-22.92a14.79,14.79,0,0,0-1.53,0,5.59,5.59,0,0,0-.67,0,24.63,24.63,0,0,0-7.17,1.42c-6.68,9.21-5.57,22.88,8.36,29.68-7.34,8.49-4.12,23.7,6,28.47-4.6-2.16-9.77.89-12.66,6.56-.11.2-.21.4-.3.61Z"/><path class="cls-9" d="M175.47,105.76A35.16,35.16,0,0,1,173,114.1c-1,2.19-2.21,4.33-2.43,6.72s1,5.14,3.36,5.64,4.66-1.56,6.19-3.56C198,99.66,193.59,54,162.57,43.67c-13.23-4.42-21.23,5.34-11.35,13.64,5.36,4.5,13.9,6.06,10.22,15-7.28,17.62,18.55,6.25,14,33.48Z"/></g></svg>