<svg id="Layer_1" data-name="Layer 1" xmlns="http://www.w3.org/2000/svg" viewBox="0 0 200 200"><defs><style>.cls-1{fill:#39f;}.cls-2{fill:#63c;}</style></defs><title>sex</title><path class="cls-1" d="M96.26,53c15.8,0,28.65,10.22,28.65,22.79S112.05,98.55,96.26,98.55,67.61,88.33,67.61,75.76,80.46,53,96.26,53m0-8.55c-21.75,0-39.39,14-39.39,31.34S74.5,107.1,96.26,107.1s39.39-14,39.39-31.34S118,44.43,96.26,44.43Z"/><path class="cls-1" d="M174.95,9a5.92,5.92,0,0,0-3.67,1.21L118.1,52.54a3.57,3.57,0,0,0,0,5.84h0a6.18,6.18,0,0,0,7.34,0l53.17-42.3a3.57,3.57,0,0,0,0-5.84h0A5.92,5.92,0,0,0,174.95,9Z"/><path class="cls-2" d="M64.39,76.62C80.19,76.62,93,86.84,93,99.41S80.19,122.2,64.39,122.2,35.74,112,35.74,99.41,48.59,76.62,64.39,76.62m0-8.55C42.64,68.07,25,82.1,25,99.41s17.64,31.34,39.39,31.34,39.39-14,39.39-31.34S86.14,68.07,64.39,68.07Z"/><path class="cls-2" d="M64.57,123.91c-2.87,0-5.19,1.85-5.19,4.13v59.83c0,2.28,2.32,4.13,5.19,4.13s5.19-1.85,5.19-4.13V128c0-2.28-2.32-4.13-5.19-4.13Z"/><path class="cls-2" d="M87.49,167.78H41.65c-2.87,0-5.19,1.85-5.19,4.13S38.78,176,41.65,176H87.49c2.87,0,5.19-1.85,5.19-4.13s-2.32-4.13-5.19-4.13Z"/><path class="cls-1" d="M174.47,9h-.31L128.1,12.49c-2.86.13-5,2.09-4.88,4.36s2.45,3.89,5.18,3.89h.31l46.06-3.49c2.86-.13,5-2.09,4.88-4.36S177.2,9,174.47,9Z"/><path class="cls-1" d="M175,9.39h-.31c-2.86.13-5,2.09-4.88,4.36l3,35.79c.16,2.2,2.45,3.89,5.18,3.89h.31c2.86-.13,5-2.09,4.88-4.36l-3-35.79c-.16-2.2-2.45-3.89-5.18-3.89Z"/><path class="cls-1" d="M58.46,66.93s-2,9.7-1.25,13S68,80,68,80V76.62s0-9.12,1.79-9.69"/></svg>