<svg id="Layer_1" data-name="Layer 1" xmlns="http://www.w3.org/2000/svg" xmlns:xlink="http://www.w3.org/1999/xlink" viewBox="0 0 200 200"><defs><style>.cls-1{fill:none;}.cls-2{clip-path:url(#clip-path);}.cls-3{clip-path:url(#clip-path-2);}.cls-4{fill:#cad9e0;}.cls-5{fill:#dc2526;}.cls-6{fill:#aec5d2;}.cls-7{fill:#be2226;}.cls-8{fill:#eaf1f4;}</style><clipPath id="clip-path"><circle class="cls-1" cx="100" cy="91" r="155"/></clipPath><clipPath id="clip-path-2"><rect class="cls-1" x="-1030.87" y="-1025.63" width="1270.1" height="1209.37"/></clipPath></defs><title>tooth</title><g class="cls-2"><g class="cls-3"><path class="cls-4" d="M172.89,78.27c-.11.42-.25.85-.35,1.27s-.25.85-.39,1.27c-.28.85-.57,1.66-.85,2.48-.25.64-.5,1.27-.78,1.87a6.14,6.14,0,0,1-.53,1.1,15.54,15.54,0,0,1-1,2.05c-17,31.41-1.13,40.82-18.32,72.16,0,1.13-7.89,11.78-7.89,11.92-.39.5-.78,1-1.17,1.45-.74.92-1.45,1.81-2.12,2.58s-1.31,1.52-1.91,2.16-1.17,1.24-1.7,1.77c-3.5,3.43-5.59,4.07-6.76,2.72a3.65,3.65,0,0,1-.49-.81l-.21-.53a13,13,0,0,1-.53-2.73c0-.28,0-.56-.07-.88-.25-3.29-.07-7.82.1-13,.32-9.23.64-20.55-1.45-30.63-.25-1.27-.56-2.55-.92-3.78a42.28,42.28,0,0,0-1.87-5.37c-.5-1.13-1-2.26-1.63-3.33a29.85,29.85,0,0,0-3.08-4.46c-.39-.46-.81-.92-1.24-1.35-4.63-4.74-11.28-7.75-20.69-7.89-13.94-.25-28,5-31.73,29.29-1.13,7.43-1.49,15.71-.32,41.77a3.68,3.68,0,0,1-2.44,3.5,4.16,4.16,0,0,1-4.46-.92c-12.31-12.56-22.54-28.48-24-45.21a43.1,43.1,0,0,1,0-8.81c.14-1.41.25-2.79.32-4.1,1.31-21.33-6.37-29.78-11.78-40.29a41.55,41.55,0,0,1-5-21,66.78,66.78,0,0,1,.78-9c2.16-13.72,8.84-33,21.5-38.38C56.77,8,71.34,9.69,83.37,18.07a21.36,21.36,0,0,0,3.92,2.12l1.52.53.25.07a21.28,21.28,0,0,0,7.46,1.1H97a22.31,22.31,0,0,0,12-3.82c.64-.43,1.28-.88,1.91-1.27a46.85,46.85,0,0,1,7.78-4l.14,0c1.06-.46,2.12-.81,3.21-1.17a37.88,37.88,0,0,1,17.48-1.45,32.17,32.17,0,0,1,10.36,3.54c.85.46,1.74,1,2.58,1.52C163.63,22.53,170.7,36,173.39,50.12a64.91,64.91,0,0,1-.5,28.16"/><path class="cls-5" d="M141,92.89c1.8-7.32,8.28-12.25.21-18.76-8.24-6.64-14.06-2.43-22.51,1.77-5.5,2.73-12.11,5.47-21.23,5.23-9.12.24-15.73-2.49-21.23-5.23-8.46-4.21-14.28-8.41-22.51-1.77-8.08,6.51-1.59,11.44.21,18.76,4.25,17.32-18.94,39.73,3.47,72.5-3.13-6.25.16-22.93.28-30.07.16-10,2.13-18.4,8.09-26.78,6.9-9.69,19-14.89,31.7-16.39,12.66,1.5,24.8,6.7,31.7,16.39,6,8.38,7.92,16.8,8.1,26.78.12,7.15,3.4,23.83.27,30.07,22.4-32.77-.79-55.17,3.47-72.5"/><path class="cls-6" d="M130.51,183.74a1.79,1.79,0,0,1-1.41-.66,3.65,3.65,0,0,1-.49-.81l-.21-.53a13,13,0,0,1-.53-2.73c0-.28,0-.56-.07-.88-.09-1.17-.12-2.5-.12-4,0-2.64.11-5.7.22-9s.23-7,.23-10.73a99.7,99.7,0,0,0-1.68-19.91c-.25-1.27-.56-2.55-.92-3.78a42.28,42.28,0,0,0-1.87-5.37c-.5-1.13-1-2.26-1.63-3.33a29.85,29.85,0,0,0-3.08-4.46c-.39-.46-.81-.92-1.24-1.35-4.63-4.74-11.28-7.75-20.69-7.89h-.93c-13.63,0-27.14,5.53-30.8,29.3a104.14,104.14,0,0,0-1,16.72c0,6,.22,13.88.72,25.05,0,0,0,.05,0,.08a3.69,3.69,0,0,1-2.44,3.42h0C59.54,170,57,156.82,57,143.72c.35-3.29.66-6.27.7-8.4s.14-3.95.34-5.84c.07-.44.14-.88.22-1.32A65.53,65.53,0,0,1,61.9,115a43.19,43.19,0,0,1,3.85-6.51c6.9-9.69,19-14.89,31.7-16.39,12.66,1.5,24.8,6.7,31.7,16.39,6,8.38,7.92,16.8,8.1,26.78.12,7.15,3.4,23.83.27,30.07,22.4-32.77-.79-55.17,3.47-72.5,1.8-7.32,8.28-12.25.21-18.76-3.11-2.51-5.87-3.46-8.56-3.46-4.44,0-8.69,2.62-14,5.24A45.07,45.07,0,0,1,102.5,81c19.5-5.33,36-18.18,38-40.25.14-1.45.21-2.9.32-4.31.53-5.93,3.37-12.16,9.24-12.16a10.86,10.86,0,0,1,4,.84c4.71,1.87,7.82,6.33,10.61,10.58,3,4.7,6,9.51,8.74,14.47a70.23,70.23,0,0,1,1.3,13.34,59.24,59.24,0,0,1-1.8,14.81c-.11.42-.25.85-.35,1.27s-.25.85-.39,1.27c-.28.85-.57,1.66-.85,2.48-.25.64-.5,1.27-.78,1.87a6.14,6.14,0,0,1-.53,1.1,15.54,15.54,0,0,1-1,2.05c-17,31.41-1.13,40.82-18.32,72.16,0,1.13-7.89,11.78-7.89,11.92-.39.5-.78,1-1.17,1.45-.74.92-1.45,1.81-2.12,2.58s-1.31,1.52-1.91,2.16-1.17,1.24-1.7,1.77c-2.39,2.34-4.12,3.38-5.35,3.38"/></g><path class="cls-7" d="M137.52,165.39c3.13-6.25-.15-22.93-.27-30.07-.17-10-2.13-18.4-8.1-26.78-6.9-9.69-19-14.89-31.7-16.39-12.66,1.5-24.8,6.7-31.7,16.39A43.19,43.19,0,0,0,61.9,115C68.28,99,81,85.7,98.44,82q2-.45,4.06-1a45.07,45.07,0,0,0,16.19-5.05c5.27-2.62,9.51-5.24,14-5.24,2.69,0,5.45,1,8.56,3.46,8.07,6.51,1.59,11.44-.21,18.76-4.25,17.32,18.94,39.73-3.47,72.5M57,143.72a90.33,90.33,0,0,1,1-14.24c-.2,1.89-.3,3.84-.34,5.84s-.35,5.11-.7,8.4"/><path class="cls-8" d="M42.19,111.78C38,85.2,15.41,64,30.81,35.91c6-10.89,18.3-18.44,30.39-18.44a26.67,26.67,0,0,1,11.11,2.36c10,4.57,16.66,10.42,27,10.42a30.65,30.65,0,0,0,5.39-.5,28.22,28.22,0,0,1,4.81-.6,9,9,0,0,1,2.51.33c2.37.68,4.46,3.06,3.85,5.45-1.15,4.56-11.14,7-14.89,8.11-3.57,1.07-7.15,2.14-10.8,2.9-8,1.68-16.43,1.87-24.1,4.79a36.53,36.53,0,0,0-19.2,17.56c-4.72,9.27-2.64,14.89-1.12,24.39,1.05,6.57.83,13.05-3.59,19.11"/></g></svg>